<?xml version="1.0" encoding="UTF-8" standalone="no"?><!DOCTYPE svg PUBLIC "-//W3C//DTD SVG 1.1//EN" "http://www.w3.org/Graphics/SVG/1.1/DTD/svg11.dtd"><svg width="100%" height="100%" viewBox="0 0 12 12" version="1.1" xmlns="http://www.w3.org/2000/svg" xmlns:xlink="http://www.w3.org/1999/xlink" xml:space="preserve" xmlns:serif="http://www.serif.com/" style="fill-rule:evenodd;clip-rule:evenodd;stroke-linejoin:round;stroke-miterlimit:2;"><path d="M8.808,0.596c0.639,0 1.157,0.57 1.157,1.313c0,0.621 -0.397,1.14 -0.932,1.26c-0.173,-0.777 -0.674,-1.416 -1.33,-1.709c0.173,-0.501 0.604,-0.864 1.105,-0.864Zm1.071,3.074c0.535,0.242 1.054,0.536 1.054,1.002l-0,0.207c-0,0.242 -0.19,0.432 -0.432,0.432l-1.917,-0c0.259,-0.345 0.432,-0.777 0.483,-1.244c0.311,-0.051 0.588,-0.189 0.812,-0.397Zm-1.831,2.09c0.622,0.294 1.244,0.639 1.261,1.209l0,0.207c0,0.294 -0.242,0.518 -0.518,0.518l-2.418,0c0.242,-0.414 0.397,-0.898 0.432,-1.433c0.466,-0 0.898,-0.19 1.243,-0.501Zm-2.228,2.625c0.795,0.363 1.52,0.829 1.52,1.554l0,0.311c0,0.363 -0.293,0.674 -0.673,0.674l-5.406,-0c-0.363,-0 -0.674,-0.294 -0.674,-0.674l0,-0.328c0,-0.708 0.76,-1.191 1.555,-1.571c0.483,0.5 1.14,0.794 1.848,0.794c0.691,0 1.347,-0.276 1.83,-0.76Zm-1.848,-4.387c1.02,0 1.848,0.914 1.848,2.038c0,1.125 -0.828,2.038 -1.848,2.038c-1.019,0 -1.847,-0.913 -1.847,-2.038c-0,-1.124 0.828,-2.038 1.847,-2.038Zm2.781,-1.778c0.777,-0 1.399,0.69 1.382,1.519c-0,0.847 -0.622,1.537 -1.382,1.537l-0.034,0c-0.19,-0.811 -0.657,-1.519 -1.296,-1.934c0.156,-0.656 0.691,-1.122 1.33,-1.122Z" style="fill:#fff;"/></svg>