<?xml version="1.0" encoding="UTF-8" standalone="no"?><!DOCTYPE svg PUBLIC "-//W3C//DTD SVG 1.1//EN" "http://www.w3.org/Graphics/SVG/1.1/DTD/svg11.dtd"><svg width="100%" height="100%" viewBox="0 0 12 12" version="1.1" xmlns="http://www.w3.org/2000/svg" xmlns:xlink="http://www.w3.org/1999/xlink" xml:space="preserve" xmlns:serif="http://www.serif.com/" style="fill-rule:evenodd;clip-rule:evenodd;stroke-linejoin:round;stroke-miterlimit:2;"><path d="M7.203,0.596l-2.886,0c-0.576,0 -0.785,0.06 -0.995,0.173c-0.208,0.11 -0.378,0.28 -0.488,0.488c-0.112,0.21 -0.172,0.418 -0.172,0.994l-0,7.018c-0,0.575 0.06,0.784 0.172,0.994c0.113,0.211 0.278,0.376 0.488,0.488c0.21,0.113 0.419,0.173 0.995,0.173l2.886,-0c0.576,-0 0.785,-0.06 0.995,-0.173c0.21,-0.112 0.375,-0.277 0.488,-0.488c0.112,-0.21 0.172,-0.418 0.172,-0.994l0,-7.018c0,-0.576 -0.06,-0.784 -0.172,-0.994c-0.11,-0.208 -0.28,-0.378 -0.488,-0.488c-0.21,-0.113 -0.419,-0.173 -0.995,-0.173Zm-3.509,8.26l0,-6.192l4.132,0l-0,6.192l-4.132,-0Z" style="fill:#fff;"/><path d="M4.239,6.566c0,0.068 -0.055,0.123 -0.123,0.123c-0.068,-0 -0.123,-0.055 -0.123,-0.123c-0,-0.251 0.01,-0.375 0.066,-0.467c0.037,-0.061 0.089,-0.112 0.149,-0.149c0.092,-0.056 0.216,-0.067 0.467,-0.067l0.181,0c0.198,0 0.336,0.002 0.437,0.024c0.09,0.02 0.157,0.054 0.211,0.109c0.055,0.054 0.089,0.121 0.109,0.211c0.022,0.101 0.024,0.239 0.024,0.437l-0,0.181c-0,0.251 -0.011,0.375 -0.067,0.467c-0.037,0.06 -0.088,0.112 -0.149,0.149c-0.092,0.056 -0.216,0.066 -0.467,0.066c-0.358,0 -0.536,-0.01 -0.667,-0.09c-0.083,-0.051 -0.153,-0.121 -0.204,-0.204c-0.035,-0.058 -0.017,-0.134 0.041,-0.17c0.058,-0.035 0.134,-0.017 0.17,0.041c0.03,0.05 0.072,0.092 0.122,0.122l-0,0c0.045,0.028 0.099,0.039 0.172,0.046c0.093,0.009 0.21,0.009 0.366,0.009c0.103,-0 0.18,0 0.241,-0.006c0.041,-0.004 0.071,-0.009 0.097,-0.024c0.028,-0.017 0.051,-0.041 0.068,-0.068c0.015,-0.026 0.021,-0.056 0.025,-0.097c0.005,-0.061 0.005,-0.138 0.005,-0.241l0,-0.181c0,-0.148 0.001,-0.259 -0.011,-0.344c-0.008,-0.057 -0.018,-0.099 -0.049,-0.13c-0.031,-0.031 -0.073,-0.041 -0.13,-0.049c-0.085,-0.012 -0.196,-0.011 -0.344,-0.011l-0.181,-0c-0.103,-0 -0.18,-0 -0.241,0.005c-0.041,0.004 -0.071,0.01 -0.097,0.025c-0.027,0.017 -0.051,0.04 -0.068,0.068c-0.015,0.026 -0.02,0.056 -0.024,0.097c-0.006,0.061 -0.006,0.138 -0.006,0.241Zm3.042,-1.612c-0,-0.068 0.055,-0.123 0.123,-0.123c0.068,0 0.123,0.055 0.123,0.123c0,0.251 -0.01,0.375 -0.066,0.467c-0.037,0.061 -0.089,0.112 -0.149,0.149c-0.092,0.056 -0.216,0.067 -0.467,0.067l-0.181,-0c-0.198,-0 -0.336,-0.002 -0.437,-0.024c-0.09,-0.02 -0.157,-0.054 -0.211,-0.109c-0.055,-0.054 -0.089,-0.121 -0.109,-0.211c-0.022,-0.101 -0.024,-0.239 -0.024,-0.437l0,-0.181c0,-0.251 0.011,-0.375 0.067,-0.467c0.037,-0.06 0.088,-0.112 0.149,-0.149c0.092,-0.056 0.216,-0.066 0.467,-0.066c0.358,-0 0.536,0.01 0.667,0.09c0.083,0.051 0.153,0.121 0.204,0.204c0.035,0.058 0.017,0.134 -0.041,0.17c-0.058,0.035 -0.134,0.017 -0.17,-0.041c-0.03,-0.05 -0.072,-0.092 -0.122,-0.122c-0.045,-0.028 -0.099,-0.039 -0.172,-0.046c-0.093,-0.009 -0.21,-0.009 -0.366,-0.009c-0.103,0 -0.18,-0 -0.241,0.006c-0.041,0.004 -0.071,0.009 -0.097,0.024c-0.028,0.017 -0.051,0.041 -0.068,0.068c-0.015,0.026 -0.021,0.056 -0.025,0.097c-0.005,0.061 -0.005,0.138 -0.005,0.241l-0,0.181c-0,0.148 -0.001,0.259 0.011,0.344c0.008,0.057 0.018,0.099 0.049,0.13c0.031,0.031 0.073,0.041 0.13,0.049c0.085,0.012 0.196,0.011 0.344,0.011l0.181,0c0.103,0 0.18,0 0.241,-0.005c0.041,-0.004 0.071,-0.01 0.097,-0.025c0.027,-0.017 0.051,-0.04 0.068,-0.068c0.015,-0.026 0.02,-0.056 0.024,-0.097c0.006,-0.061 0.006,-0.138 0.006,-0.241Zm-3.288,0c-0,-0.358 0.01,-0.536 0.09,-0.667c0.051,-0.083 0.121,-0.153 0.204,-0.204c0.131,-0.08 0.309,-0.09 0.667,-0.09c0.251,-0 0.375,0.01 0.467,0.066c0.061,0.037 0.112,0.089 0.149,0.149c0.056,0.092 0.067,0.216 0.067,0.467l-0,0.181c-0,0.198 -0.002,0.336 -0.024,0.437c-0.02,0.09 -0.054,0.157 -0.109,0.211c-0.054,0.055 -0.121,0.089 -0.211,0.109c-0.101,0.022 -0.239,0.024 -0.437,0.024l-0.181,-0c-0.251,-0 -0.375,-0.011 -0.467,-0.067c-0.06,-0.037 -0.112,-0.088 -0.149,-0.149c-0.056,-0.092 -0.066,-0.216 -0.066,-0.467Zm0.246,0c0,0.103 -0,0.18 0.006,0.241c0.004,0.041 0.009,0.071 0.024,0.097c0.017,0.028 0.041,0.051 0.068,0.068c0.026,0.015 0.056,0.021 0.097,0.025c0.061,0.005 0.138,0.005 0.241,0.005l0.181,0c0.148,0 0.259,0.001 0.344,-0.011c0.057,-0.008 0.099,-0.018 0.13,-0.049c0.031,-0.031 0.041,-0.073 0.049,-0.13c0.012,-0.085 0.011,-0.196 0.011,-0.344l0,-0.181c0,-0.103 0,-0.18 -0.005,-0.241c-0.004,-0.041 -0.01,-0.071 -0.025,-0.097c-0.017,-0.027 -0.04,-0.051 -0.068,-0.068c-0.026,-0.015 -0.056,-0.02 -0.097,-0.024c-0.061,-0.006 -0.138,-0.006 -0.241,-0.006c-0.156,0 -0.273,-0 -0.366,0.009c-0.073,0.007 -0.127,0.018 -0.172,0.046c-0.05,0.03 -0.092,0.072 -0.122,0.122c-0.028,0.045 -0.039,0.099 -0.046,0.172c-0.009,0.093 -0.009,0.21 -0.009,0.366Zm0.37,-0.139c0,-0.085 0,-0.127 0.021,-0.157c0.008,-0.011 0.017,-0.02 0.028,-0.028c0.03,-0.021 0.072,-0.021 0.157,-0.021c0.084,0 0.127,0 0.157,0.021c0.01,0.008 0.019,0.017 0.027,0.028c0.021,0.03 0.021,0.072 0.021,0.157c0,0.084 0,0.127 -0.021,0.157c-0.008,0.01 -0.017,0.019 -0.027,0.027c-0.03,0.021 -0.073,0.021 -0.157,0.021c-0.085,0 -0.127,0 -0.157,-0.021c-0.011,-0.008 -0.02,-0.017 -0.028,-0.027c-0.021,-0.03 -0.021,-0.073 -0.021,-0.157Zm1.891,-0c-0,-0.085 -0,-0.127 0.021,-0.157c0.008,-0.011 0.017,-0.02 0.027,-0.028c0.03,-0.021 0.073,-0.021 0.157,-0.021c0.085,0 0.127,0 0.157,0.021c0.011,0.008 0.02,0.017 0.028,0.028c0.021,0.03 0.021,0.072 0.021,0.157c-0,0.084 -0,0.127 -0.021,0.157c-0.008,0.01 -0.017,0.019 -0.028,0.027c-0.03,0.021 -0.072,0.021 -0.157,0.021c-0.084,0 -0.127,0 -0.157,-0.021c-0.01,-0.008 -0.019,-0.017 -0.027,-0.027c-0.021,-0.03 -0.021,-0.073 -0.021,-0.157Zm-0.37,2.589c-0,0.068 -0.055,0.123 -0.123,0.123c-0.068,0 -0.124,-0.055 -0.124,-0.123l0,-0.493l0.247,-0l-0,0.493Zm-0.17,-1.32c0.032,-0.049 0.075,-0.092 0.124,-0.124c0.065,-0.044 0.138,-0.061 0.215,-0.069c0.076,-0.008 0.17,-0.008 0.283,-0.008l0.329,0l-0,0.247l-0.329,-0c-0.118,-0 -0.197,0 -0.258,0.006c-0.058,0.006 -0.085,0.017 -0.103,0.029c-0.022,0.015 -0.041,0.034 -0.056,0.056c-0.012,0.018 -0.023,0.045 -0.029,0.103c-0.006,0.061 -0.006,0.14 -0.006,0.258l-0.247,0c0,-0.113 0,-0.207 0.008,-0.283c0.008,-0.077 0.025,-0.15 0.069,-0.215Zm1.567,-0.077l0,0.575l-0.246,0l-0,-0.575c-0,-0.068 0.055,-0.124 0.123,-0.124c0.068,0 0.123,0.056 0.123,0.124Zm-0.616,1.274c0.078,-0 0.131,-0 0.171,-0.003c0.04,-0.003 0.059,-0.008 0.072,-0.013l-0,0c0.05,-0.021 0.09,-0.061 0.111,-0.111c0.005,-0.013 0.01,-0.032 0.013,-0.072c0.003,-0.04 0.003,-0.093 0.003,-0.171l0.246,-0c0,0.075 0.001,0.137 -0.003,0.188c-0.004,0.052 -0.011,0.102 -0.031,0.149c-0.046,0.111 -0.134,0.199 -0.245,0.245c-0.047,0.02 -0.097,0.027 -0.149,0.031c-0.051,0.004 -0.113,0.003 -0.188,0.003l-0.329,0l0,-0.246l0.329,-0Zm-2.302,-0.576c0,-0.084 0,-0.127 0.021,-0.157c0.008,-0.01 0.017,-0.019 0.028,-0.027c0.03,-0.021 0.072,-0.021 0.157,-0.021c0.084,-0 0.127,-0 0.157,0.021c0.01,0.008 0.019,0.017 0.027,0.027c0.021,0.03 0.021,0.073 0.021,0.157c0,0.085 0,0.127 -0.021,0.157c-0.008,0.011 -0.017,0.02 -0.027,0.028c-0.03,0.021 -0.073,0.021 -0.157,0.021c-0.085,-0 -0.127,-0 -0.157,-0.021c-0.011,-0.008 -0.02,-0.017 -0.028,-0.028c-0.021,-0.03 -0.021,-0.072 -0.021,-0.157Zm1.809,0c-0,-0.115 -0,-0.173 0.027,-0.214c0.012,-0.018 0.028,-0.034 0.046,-0.046c0.041,-0.027 0.099,-0.027 0.214,-0.027c0.116,-0 0.174,-0 0.215,0.027c0.018,0.012 0.033,0.028 0.045,0.046c0.028,0.041 0.028,0.099 0.028,0.214c0,0.116 0,0.174 -0.028,0.215c-0.012,0.018 -0.027,0.033 -0.045,0.045c-0.041,0.028 -0.099,0.028 -0.215,0.028c-0.115,0 -0.173,0 -0.214,-0.028c-0.018,-0.012 -0.034,-0.027 -0.046,-0.045c-0.027,-0.041 -0.027,-0.099 -0.027,-0.215Z" style="fill:#fff;"/></svg>