<?xml version="1.0" encoding="UTF-8" standalone="no"?>
<!DOCTYPE svg PUBLIC "-//W3C//DTD SVG 1.1//EN" "http://www.w3.org/Graphics/SVG/1.1/DTD/svg11.dtd">
<svg width="100%" height="100%" viewBox="0 0 12 12" version="1.1" xmlns="http://www.w3.org/2000/svg" xmlns:xlink="http://www.w3.org/1999/xlink" xml:space="preserve" xmlns:serif="http://www.serif.com/" style="fill-rule:evenodd;clip-rule:evenodd;stroke-linecap:round;stroke-linejoin:round;stroke-miterlimit:1.5;">
    <g transform="matrix(1,0,0,1,0,-0.475594)">
        <g transform="matrix(0.884761,0,0,0.884761,0.691433,1.44077)">
            <path d="M6,0.78C8.881,0.78 11.22,3.119 11.22,6C11.22,8.881 8.881,11.22 6,11.22C3.119,11.22 0.78,8.881 0.78,6C0.78,3.119 3.119,0.78 6,0.78ZM6,1.585C3.563,1.585 1.585,3.563 1.585,6C1.585,8.437 3.563,10.415 6,10.415C8.437,10.415 10.415,8.437 10.415,6C10.415,3.563 8.437,1.585 6,1.585Z" style="fill:rgb(235,235,235);"/>
        </g>
        <g transform="matrix(1,1.22465e-16,1.22465e-16,-1,0,10.3272)">
            <path d="M6,6.749L6,3.578L8.161,3.578" style="fill:none;stroke:rgb(235,235,235);stroke-width:1px;"/>
        </g>
        <rect x="5.259" y="1.583" width="1.372" height="0.929" style="fill:rgb(235,235,235);"/>
    </g>
</svg>
