<?xml version="1.0" encoding="UTF-8" standalone="no"?><!DOCTYPE svg PUBLIC "-//W3C//DTD SVG 1.1//EN" "http://www.w3.org/Graphics/SVG/1.1/DTD/svg11.dtd"><svg width="100%" height="100%" viewBox="0 0 12 12" version="1.1" xmlns="http://www.w3.org/2000/svg" xmlns:xlink="http://www.w3.org/1999/xlink" xml:space="preserve" xmlns:serif="http://www.serif.com/" style="fill-rule:evenodd;clip-rule:evenodd;stroke-linecap:round;stroke-linejoin:round;stroke-miterlimit:1.5;"><path d="M6.413,5.818l-1.044,0c0.154,-0.263 0.253,-0.571 0.275,-0.911c0.296,-0 0.571,-0.121 0.79,-0.319c0.089,0.042 0.178,0.086 0.263,0.132c-0.027,0.027 -0.051,0.056 -0.073,0.088c-0.072,0.103 -0.116,0.208 -0.152,0.51l-0.059,0.5Zm0.505,-4.514c0.406,0 0.736,0.363 0.736,0.835c-0,0.395 -0.253,0.725 -0.594,0.802c-0.109,-0.494 -0.428,-0.901 -0.845,-1.088c0.11,-0.318 0.384,-0.549 0.703,-0.549Zm0.681,1.955c0.34,0.154 0.67,0.341 0.67,0.637l-0,0.132c-0,0.154 -0.121,0.275 -0.275,0.275l-1.219,-0c0.165,-0.22 0.274,-0.495 0.307,-0.791c0.198,-0.033 0.374,-0.121 0.517,-0.253Zm-2.581,2.999c0.505,0.23 0.966,0.527 0.966,0.988l0,0.198c0,0.23 -0.187,0.428 -0.428,0.428l-3.438,0c-0.231,0 -0.428,-0.187 -0.428,-0.428l-0,-0.209c-0,-0.45 0.483,-0.758 0.988,-0.999c0.308,0.318 0.725,0.505 1.175,0.505c0.44,-0 0.857,-0.176 1.165,-0.483Zm-1.176,-2.79c0.649,-0 1.176,0.581 1.176,1.296c-0,0.715 -0.527,1.296 -1.176,1.296c-0.648,-0 -1.175,-0.581 -1.175,-1.296c0,-0.715 0.527,-1.296 1.175,-1.296Zm1.769,-1.131c0.494,-0 0.889,0.439 0.878,0.966c0,0.538 -0.395,0.978 -0.878,0.978l-0.022,-0c-0.121,-0.517 -0.418,-0.967 -0.824,-1.23c0.099,-0.418 0.439,-0.714 0.846,-0.714Z" style="fill:#fff;"/><g><path d="M9.047,4.786l-1.513,-0.179c-0.301,-0.036 -0.414,-0.017 -0.531,0.029c-0.116,0.045 -0.216,0.123 -0.286,0.225c-0.072,0.103 -0.117,0.209 -0.152,0.511l-0.435,3.677c-0.035,0.301 -0.017,0.414 0.029,0.531c0.046,0.118 0.122,0.214 0.226,0.286c0.103,0.072 0.208,0.117 0.51,0.152l1.512,0.179c0.302,0.036 0.311,-0.117 0.428,-0.163c0.117,-0.046 0.214,-0.122 0.286,-0.225c0.072,-0.103 0.22,-0.075 0.256,-0.377l0.435,-3.677c0.035,-0.301 0.017,-0.414 -0.029,-0.532c-0.045,-0.115 -0.124,-0.215 -0.226,-0.285c-0.103,-0.072 -0.209,-0.117 -0.51,-0.152Zm-2.35,4.11l0.383,-3.244l2.165,0.256l-0.383,3.244l-2.165,-0.256Z" style="fill:#fff;"/><path d="M7.124,7.73c-0.004,0.036 -0.036,0.061 -0.072,0.057c-0.036,-0.004 -0.061,-0.037 -0.057,-0.072c0.015,-0.132 0.028,-0.196 0.064,-0.241c0.023,-0.029 0.053,-0.053 0.087,-0.069c0.052,-0.023 0.117,-0.021 0.249,-0.006l0.094,0.012c0.104,0.012 0.177,0.021 0.228,0.039c0.046,0.016 0.079,0.038 0.104,0.07c0.025,0.032 0.039,0.069 0.044,0.117c0.005,0.055 -0.002,0.127 -0.015,0.231l-0.011,0.095c-0.015,0.131 -0.028,0.195 -0.064,0.24c-0.023,0.03 -0.053,0.053 -0.087,0.069c-0.052,0.024 -0.117,0.022 -0.249,0.006c-0.187,-0.022 -0.28,-0.038 -0.344,-0.089c-0.04,-0.032 -0.072,-0.072 -0.094,-0.119c-0.015,-0.033 -0.001,-0.071 0.032,-0.086c0.033,-0.015 0.071,-0.001 0.086,0.031c0.013,0.028 0.033,0.053 0.057,0.072l-0,0c0.022,0.017 0.049,0.027 0.087,0.035c0.048,0.01 0.11,0.017 0.192,0.027c0.053,0.006 0.094,0.011 0.126,0.012c0.022,0 0.038,-0 0.052,-0.007c0.016,-0.007 0.03,-0.018 0.04,-0.031c0.01,-0.013 0.015,-0.029 0.019,-0.05c0.007,-0.031 0.012,-0.072 0.018,-0.125l0.011,-0.095c0.009,-0.078 0.016,-0.136 0.016,-0.181c-0.001,-0.031 -0.004,-0.053 -0.018,-0.071c-0.014,-0.018 -0.036,-0.027 -0.065,-0.034c-0.044,-0.011 -0.102,-0.018 -0.18,-0.027l-0.095,-0.011c-0.053,-0.007 -0.094,-0.012 -0.126,-0.012c-0.022,-0.001 -0.038,-0 -0.052,0.007c-0.016,0.007 -0.029,0.017 -0.04,0.031c-0.01,0.012 -0.014,0.028 -0.019,0.049c-0.007,0.032 -0.011,0.072 -0.018,0.126Zm1.694,-0.656c0.004,-0.036 0.036,-0.061 0.072,-0.057c0.036,0.004 0.061,0.037 0.057,0.072c-0.016,0.132 -0.029,0.196 -0.064,0.241c-0.023,0.029 -0.053,0.053 -0.087,0.068c-0.052,0.024 -0.118,0.022 -0.249,0.007l-0.095,-0.012c-0.103,-0.012 -0.176,-0.021 -0.228,-0.039c-0.045,-0.016 -0.078,-0.038 -0.103,-0.07c-0.025,-0.032 -0.04,-0.069 -0.044,-0.117c-0.006,-0.055 0.002,-0.127 0.014,-0.231l0.012,-0.095c0.015,-0.131 0.028,-0.196 0.063,-0.24c0.024,-0.03 0.054,-0.053 0.088,-0.069c0.052,-0.024 0.117,-0.022 0.248,-0.006c0.188,0.022 0.281,0.038 0.345,0.089c0.04,0.031 0.072,0.072 0.094,0.119c0.015,0.033 0,0.071 -0.032,0.086c-0.033,0.015 -0.072,0.001 -0.087,-0.032c-0.013,-0.028 -0.032,-0.052 -0.056,-0.071c-0.022,-0.017 -0.05,-0.027 -0.087,-0.035c-0.048,-0.01 -0.11,-0.017 -0.192,-0.027c-0.054,-0.006 -0.094,-0.011 -0.126,-0.012c-0.022,-0.001 -0.038,0 -0.053,0.007c-0.015,0.007 -0.029,0.018 -0.039,0.031c-0.01,0.013 -0.015,0.028 -0.019,0.05c-0.007,0.031 -0.012,0.072 -0.018,0.125l-0.011,0.095c-0.009,0.078 -0.017,0.136 -0.016,0.181c0.001,0.031 0.004,0.053 0.018,0.071c0.014,0.018 0.035,0.026 0.065,0.034c0.044,0.011 0.102,0.018 0.18,0.027l0.094,0.011c0.054,0.007 0.094,0.012 0.127,0.012c0.021,0.001 0.038,-0 0.052,-0.007c0.016,-0.007 0.029,-0.018 0.04,-0.031c0.01,-0.012 0.014,-0.028 0.019,-0.049c0.007,-0.032 0.011,-0.072 0.018,-0.126Zm-1.723,-0.204c0.022,-0.187 0.038,-0.28 0.089,-0.344c0.031,-0.04 0.072,-0.072 0.119,-0.094c0.074,-0.034 0.168,-0.028 0.355,-0.006c0.131,0.016 0.196,0.029 0.24,0.064c0.03,0.023 0.054,0.053 0.069,0.087c0.024,0.052 0.022,0.118 0.006,0.249l-0.011,0.095c-0.012,0.103 -0.021,0.176 -0.039,0.227c-0.016,0.046 -0.038,0.079 -0.07,0.104c-0.032,0.025 -0.069,0.039 -0.117,0.044c-0.055,0.005 -0.128,-0.002 -0.231,-0.015l-0.095,-0.011c-0.131,-0.015 -0.196,-0.028 -0.24,-0.064c-0.03,-0.023 -0.054,-0.053 -0.069,-0.087c-0.024,-0.052 -0.022,-0.117 -0.006,-0.249Zm0.129,0.016c-0.006,0.053 -0.011,0.094 -0.012,0.126c-0.001,0.022 0,0.038 0.007,0.052c0.007,0.016 0.018,0.03 0.031,0.04c0.013,0.01 0.028,0.015 0.05,0.019c0.031,0.007 0.071,0.012 0.125,0.018l0.095,0.011c0.078,0.009 0.136,0.016 0.181,0.016c0.031,-0.001 0.053,-0.004 0.071,-0.018c0.018,-0.014 0.026,-0.036 0.034,-0.065c0.011,-0.044 0.018,-0.102 0.027,-0.18l0.011,-0.095c0.007,-0.053 0.012,-0.094 0.012,-0.126c0.001,-0.022 -0,-0.038 -0.007,-0.052c-0.007,-0.016 -0.018,-0.029 -0.031,-0.04c-0.012,-0.01 -0.028,-0.014 -0.049,-0.019c-0.032,-0.007 -0.072,-0.011 -0.126,-0.018c-0.082,-0.009 -0.144,-0.017 -0.193,-0.018c-0.038,-0.001 -0.067,0.002 -0.093,0.013c-0.028,0.013 -0.052,0.033 -0.071,0.057c-0.018,0.022 -0.027,0.049 -0.035,0.087c-0.01,0.048 -0.017,0.11 -0.027,0.192Zm0.202,-0.051c0.006,-0.044 0.008,-0.066 0.021,-0.081c0.005,-0.005 0.01,-0.009 0.016,-0.012c0.017,-0.009 0.039,-0.007 0.084,-0.002c0.044,0.006 0.066,0.008 0.081,0.021c0.005,0.005 0.009,0.01 0.012,0.016c0.01,0.017 0.007,0.039 0.002,0.084c-0.005,0.044 -0.008,0.066 -0.021,0.081c-0.005,0.005 -0.01,0.009 -0.016,0.012c-0.017,0.01 -0.039,0.007 -0.084,0.002c-0.044,-0.005 -0.066,-0.008 -0.081,-0.021c-0.005,-0.005 -0.009,-0.01 -0.012,-0.016c-0.009,-0.017 -0.007,-0.039 -0.002,-0.084Zm0.991,0.117c0.005,-0.044 0.008,-0.066 0.021,-0.081c0.005,-0.005 0.01,-0.009 0.016,-0.012c0.017,-0.009 0.039,-0.007 0.083,-0.002c0.045,0.006 0.067,0.008 0.081,0.021c0.006,0.005 0.01,0.01 0.013,0.016c0.009,0.017 0.007,0.039 0.001,0.084c-0.005,0.044 -0.007,0.066 -0.02,0.081c-0.005,0.005 -0.01,0.009 -0.016,0.012c-0.017,0.01 -0.04,0.007 -0.084,0.002c-0.044,-0.005 -0.067,-0.008 -0.081,-0.021c-0.005,-0.005 -0.009,-0.01 -0.013,-0.016c-0.009,-0.017 -0.006,-0.039 -0.001,-0.084Zm-0.354,1.334c-0.004,0.036 -0.037,0.062 -0.072,0.057c-0.036,-0.004 -0.061,-0.036 -0.057,-0.072l0.03,-0.258l0.129,0.015l-0.03,0.258Zm-0.008,-0.702c0.021,-0.024 0.046,-0.043 0.073,-0.057c0.037,-0.019 0.076,-0.024 0.117,-0.023c0.041,0.001 0.09,0.006 0.149,0.013l0.172,0.021l-0.015,0.129l-0.172,-0.02c-0.062,-0.008 -0.104,-0.012 -0.136,-0.013c-0.031,-0 -0.045,0.003 -0.055,0.008c-0.013,0.007 -0.024,0.016 -0.034,0.027c-0.007,0.008 -0.014,0.022 -0.021,0.052c-0.007,0.031 -0.012,0.073 -0.019,0.135l-0.129,-0.016c0.007,-0.059 0.012,-0.108 0.021,-0.147c0.009,-0.041 0.023,-0.077 0.049,-0.109Zm0.827,0.057l-0.036,0.301l-0.129,-0.015l0.035,-0.302c0.005,-0.035 0.037,-0.061 0.073,-0.057c0.035,0.005 0.061,0.037 0.057,0.073Zm-0.402,0.629c0.041,0.005 0.068,0.008 0.09,0.009c0.021,0.001 0.031,-0 0.038,-0.002l0,-0c0.028,-0.008 0.051,-0.026 0.065,-0.051c0.004,-0.007 0.008,-0.017 0.011,-0.037c0.004,-0.021 0.008,-0.049 0.013,-0.09l0.129,0.015c-0.005,0.04 -0.009,0.072 -0.014,0.099c-0.005,0.027 -0.012,0.052 -0.025,0.076c-0.031,0.055 -0.083,0.096 -0.144,0.113c-0.026,0.008 -0.052,0.009 -0.08,0.007c-0.027,-0.001 -0.059,-0.005 -0.098,-0.01l-0.173,-0.02l0.015,-0.129l0.173,0.02Zm-1.171,-0.444c0.006,-0.044 0.008,-0.067 0.021,-0.081c0.005,-0.005 0.01,-0.009 0.016,-0.013c0.017,-0.009 0.039,-0.006 0.084,-0.001c0.044,0.005 0.066,0.008 0.081,0.021c0.005,0.005 0.009,0.01 0.012,0.016c0.01,0.017 0.007,0.039 0.002,0.084c-0.006,0.044 -0.008,0.066 -0.021,0.08c-0.005,0.006 -0.01,0.01 -0.016,0.013c-0.017,0.009 -0.039,0.007 -0.084,0.001c-0.044,-0.005 -0.066,-0.007 -0.081,-0.02c-0.005,-0.005 -0.009,-0.01 -0.012,-0.016c-0.01,-0.017 -0.007,-0.04 -0.002,-0.084Zm0.948,0.112c0.007,-0.06 0.011,-0.091 0.028,-0.111c0.007,-0.008 0.016,-0.016 0.026,-0.021c0.024,-0.012 0.054,-0.008 0.115,-0.001c0.06,0.007 0.09,0.011 0.11,0.028c0.009,0.007 0.016,0.016 0.021,0.026c0.012,0.024 0.009,0.054 0.001,0.115c-0.007,0.06 -0.01,0.09 -0.027,0.11c-0.008,0.009 -0.017,0.016 -0.027,0.021c-0.023,0.012 -0.054,0.009 -0.114,0.002c-0.061,-0.008 -0.091,-0.011 -0.111,-0.028c-0.009,-0.008 -0.016,-0.017 -0.021,-0.027c-0.012,-0.023 -0.008,-0.053 -0.001,-0.114Z" style="fill:#fff;"/></g><circle cx="5.76" cy="5.76" r="5.299" style="fill:none;stroke:#fff;stroke-width:0.24px;"/></svg>