<?xml version="1.0" encoding="UTF-8" standalone="no"?>
<!-- Created with Inkscape (http://www.inkscape.org/) -->

<svg
   width="128"
   height="128"
   viewBox="0 0 33.866668 33.866666"
   version="1.1"
   id="svg8"
   inkscape:version="1.1.1 (3bf5ae0d25, 2021-09-20)"
   sodipodi:docname="mask_icon.svg"
   inkscape:export-filename="F:\MyCloud\Design\Aufträge\Halloweenhaus Schmalenbek\Logos\Logo_GrauRot.png"
   inkscape:export-xdpi="684.17511"
   inkscape:export-ydpi="684.17511"
   xmlns:inkscape="http://www.inkscape.org/namespaces/inkscape"
   xmlns:sodipodi="http://sodipodi.sourceforge.net/DTD/sodipodi-0.dtd"
   xmlns="http://www.w3.org/2000/svg"
   xmlns:svg="http://www.w3.org/2000/svg"
   xmlns:rdf="http://www.w3.org/1999/02/22-rdf-syntax-ns#"
   xmlns:cc="http://creativecommons.org/ns#"
   xmlns:dc="http://purl.org/dc/elements/1.1/">
  <defs
     id="defs2">
    <filter
       inkscape:collect="always"
       style="color-interpolation-filters:sRGB"
       id="filter2991"
       x="-0.35279999"
       width="1.7056"
       y="-0.35279999"
       height="1.7056">
      <feGaussianBlur
         inkscape:collect="always"
         stdDeviation="0.046655238"
         id="feGaussianBlur2993" />
    </filter>
    <filter
       inkscape:collect="always"
       style="color-interpolation-filters:sRGB"
       id="filter3047"
       x="-0.31439999"
       width="1.6288"
       y="-0.31439999"
       height="1.6288">
      <feGaussianBlur
         inkscape:collect="always"
         stdDeviation="0.041577117"
         id="feGaussianBlur3049" />
    </filter>
  </defs>
  <sodipodi:namedview
     id="base"
     pagecolor="#7e7e7e"
     bordercolor="#666666"
     borderopacity="1.0"
     inkscape:pageopacity="0"
     inkscape:pageshadow="2"
     inkscape:zoom="5.6568542"
     inkscape:cx="60.899572"
     inkscape:cy="67.263533"
     inkscape:document-units="mm"
     inkscape:current-layer="layer1"
     showgrid="false"
     showguides="true"
     inkscape:snap-global="false"
     inkscape:window-width="1920"
     inkscape:window-height="1009"
     inkscape:window-x="1912"
     inkscape:window-y="-8"
     inkscape:window-maximized="1"
     inkscape:guide-bbox="true"
     inkscape:pagecheckerboard="1"
     units="px"
     width="128px">
    <inkscape:grid
       type="xygrid"
       id="grid815" />
  </sodipodi:namedview>
  <metadata
     id="metadata5">
    <rdf:RDF>
      <cc:Work
         rdf:about="">
        <dc:format>image/svg+xml</dc:format>
        <dc:type
           rdf:resource="http://purl.org/dc/dcmitype/StillImage" />
      </cc:Work>
    </rdf:RDF>
  </metadata>
  <g
     inkscape:label="Ebene 1"
     inkscape:groupmode="layer"
     id="layer1"
     transform="translate(0,-87)">
    <g
       id="g985"
       inkscape:export-filename="F:\MyCloud\Design\Aufträge\Halloweenhaus Schmalenbek\Logos\Logo_SchwarzRot.png"
       inkscape:export-xdpi="39183.234"
       inkscape:export-ydpi="39183.234"
       transform="matrix(6.1305793,0,0,6.1305793,-164.27335,-278.32114)">
      <path
         id="path896"
         d="m 29.687594,59.759158 -0.181386,0.223758 -0.19327,-0.159163 -0.14986,0.224277 -0.242879,5.16e-4 0.0093,0.149344 -0.272333,-0.07235 -0.02997,0.04599 -0.468707,-0.07028 -0.08217,0.195337 -0.187584,0.06253 -0.12454,0.452686 -0.0021,0.0041 0.753959,1.615405 0.0098,0.0078 0.280604,0.197403 0.125574,0.341583 0.09715,-0.18397 0.146243,0.102838 0.06873,0.307475 0.0956,-0.191204 0.05478,0.03824 v 5.16e-4 l 0.12919,0.300757 0.150379,-0.287319 0.08371,-0.05064 0.06873,0.152444 0.0863,-0.245461 0.191204,-0.11524 0.06408,0.187069 0.113689,-0.293521 0.24598,-0.147796 0.825788,-1.736328 -0.02739,-0.134874 -0.08992,-0.0677 0.01189,-0.15503 -0.251666,-0.09922 -0.03152,-0.240295 -0.409276,-0.04289 -0.04961,-0.123507 -0.252698,0.08423 -0.08888,-0.06666 -0.234611,0.04237 -0.02532,-0.140041 z m 0.02584,0.127124 0.101288,0.05271 0.131773,0.719852 -0.125574,-0.01395 -0.109553,-0.75551 z m -0.379304,0.08578 0.129191,0.103352 0.113689,0.55604 -0.106453,0.01085 -0.212391,-0.441833 -0.01499,-0.08992 z m 0.804603,0.103352 0.06666,0.05116 0.106971,0.573092 -0.077,-0.0088 -0.127124,-0.609782 z m 0.309023,0.0021 0.04858,0.117305 0.100769,0.536917 -0.02894,-0.0031 -0.201539,-0.624766 z m -1.420066,0.07028 h 0.120922 l 0.08681,0.518317 -0.08785,0.0088 -0.113171,-0.364318 -0.0036,-0.09922 z m 1.576131,0.03411 0.271301,0.02842 0.07493,0.56069 -0.07286,-0.0083 z m -2.376599,0.03152 0.355015,0.05374 0.01447,0.46354 -0.06873,0.0072 z m 0.464571,0.02429 0.250114,0.06253 0.0072,0.394809 -0.07028,0.0072 -0.187069,-0.448032 z m -0.60358,0.167947 0.04444,0.372586 -0.07234,0.0072 -0.107487,-0.28112 0.01809,-0.06563 z m 2.923333,0.06563 0.13126,0.05168 -0.02015,0.267168 -0.07028,-0.0078 z m -1.370457,0.252698 0.07597,0.0088 v 1.168922 l 0.133842,-0.0863 -0.28112,0.605647 -0.294039,-0.635103 0.187584,0.105937 0.100769,-1.160137 z m 1.58595,0.0057 0.0057,0.0041 0.01706,0.06976 -0.02791,-0.0021 z m -1.764234,0.0124 -0.02067,0.237713 -1.208193,-0.112655 z m 0.353983,0.0016 1.041797,0.117306 -1.041797,0.09715 z m -0.196887,0.03049 -0.10387,1.227831 -0.100253,-0.06305 0.150378,0.2589 0.07028,-1.350822 z m 1.435571,0.168466 -1.238684,0.775663 v -0.659392 z m -2.958475,0.01188 1.336352,0.125058 -0.05633,0.648539 z m 3.061827,0.04238 -0.709517,1.48518 -0.861963,0.519864 0.03773,-0.46147 0.380854,-0.820106 z m -0.948778,1.746144 -0.03979,0.104389 -0.02222,-0.06667 z m -0.363286,0.218075 -0.02429,0.06977 -0.02015,-0.04289 z m -1.182356,0.0016 0.79685,1.982309 0.04858,-0.09974 0.906405,-1.871205 -0.30489,0.208772 -0.0956,-0.183448 -0.07803,0.301789 -0.143661,0.09818 -0.121957,-0.245462 -0.05168,0.364318 -0.06718,0.04599 -0.136428,-0.0925 -0.06098,-0.243396 -0.09095,0.14056 -0.136943,-0.0925 -0.0124,-0.253214 -0.132807,0.15503 z m 0.911571,0.161748 -0.04496,0.09612 0.0031,-0.07131 z m 0.455787,0.01395 0.03824,0.07286 -0.0677,0.04754 z m 0.134358,0.122989 -0.694531,1.439706 0.08372,-1.020611 z m -0.466637,0.06046 0.05064,0.103354 -0.01964,0.01757 -0.05426,0.03721 z"
         style="color:#000000;font-style:normal;font-variant:normal;font-weight:normal;font-stretch:normal;font-size:medium;line-height:normal;font-family:sans-serif;font-variant-ligatures:normal;font-variant-position:normal;font-variant-caps:normal;font-variant-numeric:normal;font-variant-alternates:normal;font-feature-settings:normal;text-indent:0;text-align:start;text-decoration:none;text-decoration-line:none;text-decoration-style:solid;text-decoration-color:#000000;letter-spacing:normal;word-spacing:normal;text-transform:none;writing-mode:lr-tb;direction:ltr;text-orientation:mixed;dominant-baseline:auto;baseline-shift:baseline;text-anchor:start;white-space:normal;shape-padding:0;clip-rule:nonzero;display:inline;overflow:visible;visibility:visible;opacity:1;isolation:auto;mix-blend-mode:normal;color-interpolation:sRGB;color-interpolation-filters:linearRGB;solid-color:#000000;solid-opacity:1;vector-effect:none;fill:#ffffff;fill-opacity:1;fill-rule:nonzero;stroke:none;stroke-width:0.1;stroke-linecap:butt;stroke-linejoin:miter;stroke-miterlimit:4;stroke-dasharray:none;stroke-dashoffset:0;stroke-opacity:1;color-rendering:auto;image-rendering:auto;shape-rendering:auto;text-rendering:auto;enable-background:accumulate"
         inkscape:connector-curvature="0"
         inkscape:export-filename="F:\MyCloud\Design\Aufträge\Halloweenhaus Schmalenbek\LogoSchwarzrot.png"
         inkscape:export-xdpi="14483"
         inkscape:export-ydpi="14483" />
      <circle
         transform="matrix(0.81904665,0,0,0.81904665,-3.7380903,19.218027)"
         r="0.15869129"
         cy="51.375961"
         cx="40.113403"
         id="circle898"
         style="opacity:1;fill:#00ff00;fill-opacity:1;stroke:none;stroke-width:0.0655172;stroke-linecap:round;stroke-linejoin:miter;stroke-miterlimit:4;stroke-dasharray:none;stroke-opacity:1;filter:url(#filter3047)" />
      <circle
         transform="matrix(0.78399329,0,0,0.78399329,-2.1156665,21.010626)"
         style="opacity:1;fill:#d60000;fill-opacity:1;stroke:none;stroke-width:0.0655172;stroke-linecap:round;stroke-linejoin:miter;stroke-miterlimit:4;stroke-dasharray:none;stroke-opacity:1;filter:url(#filter2991)"
         id="circle900"
         cx="41.114826"
         cy="51.33754"
         r="0.15869129" />
    </g>
  </g>
</svg>
