<?xml version="1.0" encoding="UTF-8" standalone="no"?>
<svg
   width="200"
   height="200"
   viewBox="0 0 52.916666 52.916666"
   version="1.1"
   id="svg5"
   xmlns="http://www.w3.org/2000/svg"
   xmlns:svg="http://www.w3.org/2000/svg">
  <defs
     id="defs8" />
  <g
     id="layer1">
    <path
       id="path2565"
       fill="#00ff00"
       d="M 83.667969 59.279297 A 5.9286789 5.9286789 0 0 0 77.740234 65.208984 A 5.9286789 5.9286789 0 0 0 83.667969 71.136719 A 5.9286789 5.9286789 0 0 0 89.595703 65.208984 A 5.9286789 5.9286789 0 0 0 83.667969 59.279297 z M 119.6875 59.279297 A 5.9286789 5.9286789 0 0 0 113.75977 65.208984 A 5.9286789 5.9286789 0 0 0 119.6875 71.136719 A 5.9286789 5.9286789 0 0 0 125.61523 65.208984 A 5.9286789 5.9286789 0 0 0 119.6875 59.279297 z "
       transform="scale(0.26458333)" />
    <path
       id="path869"
       fill="currentColor"
       d="M 27.671776,1.685123 26.07359,3.638574 h -0.591982 l -1.183838,-1.3021338 -1.775819,2.0124114 -2.131082,0.059336 -0.05909,1.3022588 -7.280907,-0.6510666 -0.94687,1.716608 -1.598437,0.2365924 -1.3022589,4.7354748 7.3399929,15.745651 2.427011,1.420557 1.479765,3.433341 0.88791,-1.716732 1.598187,1.065539 0.414349,2.72294 1.006456,-1.302133 1.065292,0.65094 0.473684,2.427012 1.124752,-2.486096 1.598188,-0.769488 0.651066,1.1245 0.651192,-2.130832 1.657398,-0.828822 0.651066,1.479889 1.243174,-3.018742 2.130832,-1.00658 L 43.713357,11.037778 43.417304,10.149994 42.529394,9.7356436 42.470184,8.1965424 40.220805,7.3086333 39.924751,4.8225365 36.136522,4.4675231 35.840468,3.2243499 32.999108,4.2898913 32.111199,3.6979098 30.039451,4.112259 29.625102,2.5730326 Z m 0.503103,1.7168587 0.94712,0.4142242 1.095084,6.1858231 -1.331927,-0.088753 z m -3.788355,0.7694881 1.095084,1.1839629 0.887909,3.4627591 -0.32547,1.2429232 -2.604643,-4.9721932 z m 7.458289,1.0063306 0.858367,0.8581163 0.887909,4.4100043 -0.73982,-0.05934 z m 3.462759,0.029418 0.88791,5.4163346 -1.598187,-5.179617 z M 21.397325,5.5920246 h 0.976538 l 0.591855,2.3382574 -0.02954,2.633936 -1.627605,-3.8475662 z m 15.627106,0.4736854 1.982868,0.2070498 0.503228,4.7058072 z m -22.967224,0.4437671 3.018866,0.3552634 -0.02942,4.1730375 z m 4.291583,0.2369676 2.219711,0.325471 -0.177632,3.3740053 z m -6.008191,1.4797656 0.32547,3.0482847 H 12.074213 L 11.038465,9.3508375 11.067882,8.5518063 Z M 40.664822,8.8477347 41.3751,9.1732052 41.286346,11.304288 40.90154,11.126656 Z m -12.963628,2.2789213 0.02979,11.779416 1.154169,-0.946871 -2.397342,4.883315 -2.722689,-5.712263 1.775819,1.124876 0.887909,-11.09893 z m -2.367675,0.236718 -0.08863,1.775819 -9.737462,-0.917452 z m 3.847566,0.02967 7.695131,0.769362 -7.84297,0.710528 z m -2.077005,0.264507 -0.201792,0.0019 -1.035999,11.424275 -0.799031,-0.38468 1.509434,2.752481 z m 13.087182,1.629733 -11.069263,7.132693 -0.02967,-6.126488 z m -26.873876,0.118296 11.483487,1.095084 -0.177632,5.505088 z m 27.880082,0.710277 -6.215366,13.555234 -8.139024,4.79481 0.05909,-3.610846 3.551638,-7.902433 z m -23.321487,18.280444 7.743452,18.835249 8.957082,-18.458578 -2.553068,1.715981 -1.08845,-1.590425 -0.544162,2.553194 -1.674172,1.130136 -1.130135,-1.841539 -0.502226,3.097229 -0.753465,0.460417 L 24.865842,37.08408 24.6986,35.033115 23.568466,36.20531 22.563887,35.661147 21.810422,32.77297 21.056957,34.572699 Z m 14.314707,3.097232 -6.445824,13.310506 0.544287,-9.585368 z" />
  </g>
</svg>
