<?xml version="1.0" encoding="UTF-8" standalone="no"?>
<svg
   width="550"
   height="200"
   viewBox="0 0 145.52083 52.916666"
   version="1.1"
   id="svg5"
   xmlns="http://www.w3.org/2000/svg"
   xmlns:svg="http://www.w3.org/2000/svg">
  <defs
     id="defs8" />
  <g
     id="layer1">
    <path
       id="path2565"
       fill="#00ff00"
       d="m 83.667969,59.279297 a 5.9286789,5.9286789 0 0 0 -5.927735,5.929687 5.9286789,5.9286789 0 0 0 5.927735,5.927735 5.9286789,5.9286789 0 0 0 5.927734,-5.927735 5.9286789,5.9286789 0 0 0 -5.927734,-5.929687 z m 36.019531,0 a 5.9286789,5.9286789 0 0 0 -5.92773,5.929687 5.9286789,5.9286789 0 0 0 5.92773,5.927735 5.9286789,5.9286789 0 0 0 5.92773,-5.927735 5.9286789,5.9286789 0 0 0 -5.92773,-5.929687 z"
       transform="scale(0.26458333)" />
    <path
       id="path869"
       fill="#ffffff"
       d="M 104.58594 6.3691406 L 98.544922 13.751953 L 96.308594 13.751953 L 91.833984 8.8300781 L 85.123047 16.4375 L 77.068359 16.660156 L 76.84375 21.582031 L 49.326172 19.121094 L 45.748047 25.609375 L 39.707031 26.503906 L 34.783203 44.402344 L 62.525391 103.91406 L 71.699219 109.2832 L 77.291016 122.25781 L 80.648438 115.76953 L 86.6875 119.79688 L 88.253906 130.08984 L 92.058594 125.16797 L 96.083984 127.62695 L 97.875 136.80078 L 102.125 127.4043 L 108.16602 124.49609 L 110.62695 128.74609 L 113.08789 120.69336 L 119.35156 117.56055 L 121.8125 123.1543 L 126.51172 111.74414 L 134.56445 107.93945 L 165.2168 41.716797 L 164.09766 38.361328 L 160.74023 36.796875 L 160.51758 30.978516 L 152.01562 27.623047 L 150.89648 18.226562 L 136.57812 16.884766 L 135.46094 12.185547 L 124.7207 16.212891 L 121.36523 13.976562 L 113.53516 15.542969 L 111.96875 9.7246094 L 104.58594 6.3691406 z M 106.48828 12.857422 L 110.06836 14.423828 L 114.20703 37.802734 L 109.17188 37.466797 L 106.48828 12.857422 z M 92.169922 15.765625 L 96.308594 20.240234 L 99.664062 33.328125 L 98.433594 38.025391 L 88.589844 19.234375 L 92.169922 15.765625 z M 120.35742 19.570312 L 123.60352 22.8125 L 126.95898 39.480469 L 124.16211 39.255859 L 120.35742 19.570312 z M 133.44531 19.681641 L 136.80273 40.152344 L 130.76172 20.576172 L 133.44531 19.681641 z M 80.871094 21.134766 L 84.5625 21.134766 L 86.798828 29.972656 L 86.6875 39.927734 L 80.537109 25.386719 L 80.871094 21.134766 z M 331.5625 22.416016 C 332.18813 23.553528 332.69953 24.663505 333.09766 25.744141 C 333.55266 26.824776 333.89359 27.87663 334.12109 28.900391 C 334.23486 29.753524 334.34916 30.83444 334.46289 32.142578 C 334.63354 33.393841 334.71875 34.871858 334.71875 36.578125 L 334.71875 83.330078 C 334.71875 84.58134 334.77686 85.776549 334.89062 86.914062 C 335.00439 87.994697 335.31624 89.501778 335.82812 91.435547 L 346.15039 91.435547 L 348.9668 87.681641 L 351.86719 91.435547 L 363.04297 91.435547 C 363.49798 89.558652 363.75368 88.136808 363.81055 87.169922 C 363.92427 86.146161 363.98242 85.121417 363.98242 84.097656 L 363.98242 38.455078 C 363.98242 36.691936 364.15288 35.384386 364.49414 34.53125 C 364.55102 33.791869 365.03335 32.854309 365.94336 31.716797 L 355.53516 31.716797 C 356.27453 32.854309 356.72976 33.762805 356.90039 34.445312 C 357.07104 35.12782 357.15625 36.293968 357.15625 37.943359 L 357.15625 79.576172 C 357.15625 80.543054 357.10009 81.339211 356.98633 81.964844 C 356.92945 82.590473 356.84423 83.130932 356.73047 83.585938 C 356.38922 84.666576 355.79063 85.207031 354.9375 85.207031 C 354.02749 85.207031 353.4018 84.724699 353.06055 83.757812 C 352.8899 83.359685 352.77759 82.819226 352.7207 82.136719 L 352.7207 79.917969 L 352.7207 43.0625 C 352.7207 42.26624 352.77686 41.61149 352.89062 41.099609 C 353.00435 40.587729 353.1187 40.134456 353.23242 39.736328 C 353.40307 39.451956 353.60258 39.138129 353.83008 38.796875 C 354.11445 38.455621 354.4825 38.058522 354.9375 37.603516 C 354.08441 36.807258 353.40251 36.152504 352.89062 35.640625 C 352.43563 35.128744 352.06563 34.673519 351.78125 34.275391 C 351.44 33.706634 351.07 33.024774 350.67188 32.228516 C 350.33061 31.375382 349.93351 30.350638 349.47852 29.15625 C 348.796 31.545025 348.08509 33.25163 347.3457 34.275391 C 346.77695 35.071649 345.72509 36.096393 344.18945 37.347656 C 345.0426 38.030164 345.52493 38.712024 345.63867 39.394531 C 345.80932 39.678903 345.89453 40.134133 345.89453 40.759766 C 345.95141 41.32852 345.98047 41.981322 345.98047 42.720703 L 345.98047 79.576172 C 345.98047 80.543054 345.95138 81.339211 345.89453 81.964844 C 345.89453 82.590473 345.80932 83.130932 345.63867 83.585938 C 345.3543 84.666576 344.75766 85.207031 343.84766 85.207031 C 343.33576 85.207031 342.93672 85.094715 342.65234 84.867188 C 342.36797 84.582816 342.11227 84.212818 341.88477 83.757812 C 341.71412 83.075305 341.62891 81.851033 341.62891 80.087891 L 341.62891 37.175781 C 341.62891 35.981392 341.74321 34.958601 341.9707 34.105469 C 342.08447 33.934842 342.22586 33.679145 342.39648 33.337891 C 342.56713 32.939763 342.82476 32.399305 343.16602 31.716797 C 341.34602 31.148041 339.75173 29.952831 338.38672 28.132812 C 337.59046 27.109051 336.93766 26.283834 336.42578 25.658203 C 335.9139 24.975695 335.51485 24.493362 335.23047 24.208984 C 334.09296 23.242099 332.87064 22.643517 331.5625 22.416016 z M 139.93555 22.925781 L 147.42969 23.708984 L 149.33203 41.494141 L 139.93555 22.925781 z M 53.128906 24.603516 L 64.539062 25.945312 L 64.427734 41.716797 L 53.128906 24.603516 z M 69.349609 25.498047 L 77.738281 26.728516 L 77.068359 39.480469 L 69.349609 25.498047 z M 320.04492 30.863281 C 317.31489 30.863281 315.06783 31.6885 313.30469 33.337891 C 312.3378 34.418529 311.685 35.669909 311.34375 37.091797 C 311.22999 37.603679 311.11568 38.285542 311.00195 39.138672 C 310.88823 39.934931 310.83203 40.84538 310.83203 41.869141 L 310.83203 81.027344 C 310.83203 82.164857 310.88819 83.160538 311.00195 84.013672 C 311.11572 84.866806 311.23002 85.604836 311.34375 86.230469 C 311.685 87.595483 312.3378 88.761629 313.30469 89.728516 C 315.06783 91.434783 317.31489 92.289063 320.04492 92.289062 C 322.77495 92.289062 324.99295 91.434783 326.69922 89.728516 C 327.32485 88.932256 327.80914 87.824232 328.15039 86.402344 C 328.54852 84.923581 328.74805 83.075574 328.74805 80.857422 L 328.74805 44.171875 L 328.74805 40.417969 C 328.74805 39.394208 328.68994 38.627115 328.57617 38.115234 C 328.46241 37.091474 328.23578 36.210084 327.89453 35.470703 C 327.61016 34.674444 327.2111 34.048755 326.69922 33.59375 C 324.8792 31.773731 322.6612 30.863281 320.04492 30.863281 z M 517.11914 30.863281 C 514.55976 30.863281 512.39792 31.6885 510.63477 33.337891 C 509.72473 34.2479 509.01381 35.499281 508.50195 37.091797 C 508.44488 37.603679 508.35986 38.285542 508.24609 39.138672 C 508.18902 39.934931 508.16016 40.84538 508.16016 41.869141 L 508.16016 49.972656 C 508.16016 51.33767 508.30341 52.561943 508.58789 53.642578 C 508.92918 54.723217 509.41148 55.716945 510.03711 56.626953 C 510.26464 56.911325 510.69277 57.395618 511.31836 58.078125 C 512.0009 58.703758 512.90935 59.470851 514.04688 60.380859 C 516.32189 62.314632 517.65851 63.850772 518.05664 64.988281 C 518.96664 66.637675 519.42188 69.425194 519.42188 73.349609 L 519.42188 80.429688 C 519.42188 82.19283 519.28054 83.444209 518.99609 84.183594 C 518.71187 85.321107 518.08602 85.890625 517.11914 85.890625 C 516.26603 85.890625 515.66743 85.435399 515.32617 84.525391 C 515.21241 84.127259 515.12701 83.642973 515.07031 83.074219 L 515.07031 80.857422 L 515.07031 67.546875 L 508.16016 62.429688 L 508.16016 81.027344 C 508.16016 82.164857 508.19053 83.160538 508.24609 84.013672 C 508.35986 84.866806 508.44526 85.604836 508.50195 86.230469 C 508.78617 86.96985 509.0711 87.624605 509.35547 88.193359 C 509.69676 88.762118 510.12287 89.27351 510.63477 89.728516 C 512.34103 91.434783 514.55903 92.289062 517.28906 92.289062 C 520.13285 92.289062 522.32176 91.434783 523.85742 89.728516 C 525.33616 88.135997 526.07617 85.179969 526.07617 80.857422 L 526.07617 70.449219 C 526.07617 68.856703 526.02001 67.520092 525.90625 66.439453 C 525.84918 65.358818 525.76415 64.475476 525.65039 63.792969 C 525.42286 62.939835 525.08193 62.143678 524.62695 61.404297 C 524.17194 60.664912 523.60243 59.926881 522.91992 59.1875 C 522.12369 58.391244 521.44179 57.68032 520.87305 57.054688 C 520.30427 56.429055 519.82001 55.944769 519.42188 55.603516 L 518.05664 54.238281 C 517.60166 53.783275 517.09027 53.357112 516.52148 52.958984 C 515.55464 51.764597 515.07031 50.228457 515.07031 48.351562 L 515.07031 42.208984 L 515.07031 40.162109 C 515.12738 39.53648 515.21241 38.996018 515.32617 38.541016 C 515.72435 37.574128 516.32291 37.091797 517.11914 37.091797 C 518.14294 37.091797 518.79571 37.77366 519.08008 39.138672 C 519.19384 39.593678 519.27887 40.161243 519.33594 40.84375 C 519.39301 41.469383 519.42187 42.294599 519.42188 43.318359 L 519.42188 48.351562 L 526.07617 54.666016 L 526.07617 42.294922 C 526.07617 37.972374 525.33812 35.072516 523.85938 33.59375 C 522.20999 31.773731 519.96293 30.863281 517.11914 30.863281 z M 46.642578 31.091797 L 47.871094 42.611328 L 45.634766 42.611328 L 41.720703 35.341797 L 41.832031 32.322266 L 46.642578 31.091797 z M 219.54688 31.716797 C 219.945 32.285553 220.22976 32.796948 220.40039 33.251953 C 220.62788 33.65008 220.79836 33.991012 220.91211 34.275391 C 221.08276 34.673519 221.16797 35.213978 221.16797 35.896484 C 221.22485 36.522118 221.25195 37.262102 221.25195 38.115234 L 221.25195 86.060547 C 221.25195 87.19806 221.13964 88.079449 220.91211 88.705078 C 220.79838 88.98945 220.65502 89.303278 220.48438 89.644531 C 220.31373 89.928903 220.14327 90.269841 219.97266 90.667969 L 219.54688 91.435547 L 228.8457 91.435547 L 228.50391 90.837891 C 228.10577 89.984757 227.9082 88.762437 227.9082 87.169922 L 227.9082 64.732422 L 232.17383 62.429688 L 232.17383 86.828125 C 232.17383 88.534393 232.03048 89.814835 231.74609 90.667969 L 231.4043 91.435547 L 240.70508 91.435547 L 240.27734 90.667969 C 239.99297 90.269841 239.76633 89.899847 239.5957 89.558594 C 239.48198 89.160466 239.33861 88.819535 239.16797 88.535156 C 238.99732 87.795775 238.91211 86.629625 238.91211 85.037109 L 238.91211 38.115234 C 238.91211 36.408967 238.99732 35.242818 239.16797 34.617188 C 239.45234 33.764052 239.96569 32.797432 240.70508 31.716797 L 231.4043 31.716797 C 231.91618 32.854309 232.17383 34.218031 232.17383 35.810547 L 232.17383 54.921875 L 227.9082 57.224609 L 227.9082 36.322266 C 227.9082 35.526008 227.96436 34.758915 228.07812 34.019531 C 228.24877 33.280149 228.44829 32.513056 228.67578 31.716797 L 219.54688 31.716797 z M 252.47656 31.716797 C 248.8934 31.716797 246.44876 32.824822 245.14062 35.042969 C 244.23062 36.862988 243.77539 40.276199 243.77539 45.28125 L 243.77539 88.279297 C 243.77539 92.146838 242.97924 95.871916 241.38672 99.455078 C 242.06923 99.341352 242.72398 99.056572 243.34961 98.601562 C 243.97524 98.146553 244.62804 97.66422 245.31055 97.152344 C 245.36743 97.095462 245.68125 96.725487 246.25 96.042969 C 246.81876 95.41734 247.67108 94.506887 248.80859 93.3125 C 249.37736 92.45937 250.34397 91.663213 251.70898 90.923828 C 251.31086 90.582575 250.999 90.042116 250.77148 89.302734 C 250.71464 89.018363 250.68555 88.704535 250.68555 88.363281 L 250.68555 87 L 250.68555 76.335938 L 255.03711 74.117188 L 255.03711 84.439453 L 255.03711 86.744141 C 255.03711 87.36977 255.00802 87.908275 254.95117 88.363281 C 254.78053 88.818283 254.581 89.331636 254.35352 89.900391 C 254.12599 90.412275 253.87031 90.923667 253.58594 91.435547 L 263.73828 91.435547 C 262.94202 90.354912 262.4868 89.444463 262.37305 88.705078 C 262.14556 88.250076 262.00412 87.738677 261.94727 87.169922 C 261.89038 86.544289 261.86133 85.862428 261.86133 85.123047 L 261.86133 37.517578 C 261.86133 36.835071 261.89042 36.209381 261.94727 35.640625 C 262.00411 35.071869 262.14554 34.560474 262.37305 34.105469 C 262.42993 33.650464 262.88514 32.854309 263.73828 31.716797 L 252.47656 31.716797 z M 265.87109 31.716797 C 266.3261 32.228677 266.66703 32.71101 266.89453 33.166016 C 267.1789 33.62102 267.40751 34.047182 267.57812 34.445312 C 267.8625 35.298444 268.00391 36.664118 268.00391 38.541016 L 268.00391 84.611328 C 268.00391 86.488226 267.86249 87.851948 267.57812 88.705078 C 267.40748 89.10321 267.1789 89.529369 266.89453 89.984375 C 266.66704 90.439381 266.3261 90.923667 265.87109 91.435547 L 282.08008 91.435547 C 285.09449 91.435547 286.60352 89.928466 286.60352 86.914062 C 286.60352 84.240908 285.69307 81.652918 283.87305 79.150391 C 283.81616 79.832898 283.75805 80.458585 283.70117 81.027344 C 283.70117 81.539224 283.61596 81.936328 283.44531 82.220703 C 282.81968 84.097598 280.85738 85.037109 277.55859 85.037109 L 274.6582 85.037109 L 274.6582 38.541016 L 274.6582 36.066406 C 274.71509 35.383899 274.82939 34.843441 275 34.445312 C 275.22749 33.762805 275.76796 32.854309 276.62109 31.716797 L 265.87109 31.716797 z M 288.22266 31.716797 C 288.67766 32.228677 289.02054 32.71101 289.24805 33.166016 C 289.53242 33.62102 289.75906 34.047182 289.92969 34.445312 C 290.21406 35.298444 290.35547 36.664118 290.35547 38.541016 L 290.35547 84.611328 C 290.35547 86.488226 290.21407 87.851948 289.92969 88.705078 C 289.75904 89.10321 289.53242 89.529369 289.24805 89.984375 C 289.02052 90.439381 288.67766 90.923667 288.22266 91.435547 L 304.43359 91.435547 C 307.44801 91.435547 308.95508 89.928466 308.95508 86.914062 C 308.95508 84.240908 308.04463 81.652918 306.22461 79.150391 C 306.16773 79.832898 306.11157 80.458585 306.05469 81.027344 C 306.05469 81.539224 305.96947 81.936328 305.79883 82.220703 C 305.1732 84.097598 303.21089 85.037109 299.91211 85.037109 L 297.01172 85.037109 L 297.01172 38.541016 L 297.01172 36.066406 C 297.0686 35.383899 297.18092 34.843441 297.35156 34.445312 C 297.57905 33.762805 298.11951 32.854309 298.97266 31.716797 L 288.22266 31.716797 z M 367.05273 31.716797 C 367.50774 32.228677 367.84867 32.71101 368.07617 33.166016 C 368.36054 33.62102 368.58914 34.047182 368.75977 34.445312 C 369.04414 35.298444 369.18555 36.60795 369.18555 38.371094 L 369.18555 84.611328 C 369.18555 86.488226 369.04415 87.851948 368.75977 88.705078 C 368.58912 89.160084 368.36054 89.615307 368.07617 90.070312 C 367.84868 90.525315 367.50774 90.980541 367.05273 91.435547 L 387.27148 91.435547 L 387.27148 81.283203 C 386.87335 82.420716 386.39101 83.273042 385.82227 83.841797 C 385.31037 84.353677 384.57036 84.611328 383.60352 84.611328 L 375.92578 84.611328 L 375.92578 63.792969 L 379.84961 63.792969 C 380.93025 63.792969 381.84069 63.99249 382.58008 64.390625 C 382.97821 64.618115 383.34824 64.98812 383.68945 65.5 C 384.03074 66.01188 384.37164 66.608509 384.71289 67.291016 L 384.71289 52.873047 C 384.31476 53.612428 383.91571 54.267183 383.51758 54.835938 C 383.11944 55.404696 382.6371 55.803749 382.06836 56.03125 C 381.78414 56.25874 381.38491 56.400168 380.87305 56.457031 L 379.08203 56.457031 L 375.92578 56.457031 L 375.92578 38.371094 L 381.98242 38.371094 C 383.34744 38.371094 384.45739 38.741072 385.31055 39.480469 C 386.1637 40.219854 386.81647 41.327874 387.27148 42.806641 L 387.27148 31.716797 L 367.05273 31.716797 z M 389.23438 31.716797 C 389.68935 32.228677 390.03032 32.71101 390.25781 33.166016 C 390.54203 33.62102 390.77076 34.047182 390.94141 34.445312 C 391.22563 35.298444 391.36719 36.60795 391.36719 38.371094 L 391.36719 84.611328 C 391.36719 86.488226 391.22582 87.851948 390.94141 88.705078 C 390.77095 89.160084 390.54222 89.615307 390.25781 90.070312 C 390.03028 90.525315 389.68935 90.980541 389.23438 91.435547 L 409.45312 91.435547 L 409.45312 81.283203 C 409.05499 82.420716 408.57265 83.273042 408.00391 83.841797 C 407.49204 84.353677 406.75204 84.611328 405.78516 84.611328 L 398.10742 84.611328 L 398.10742 63.792969 L 402.03125 63.792969 C 403.11189 63.792969 404.02237 63.99249 404.76172 64.390625 C 405.15985 64.618115 405.52984 64.98812 405.87109 65.5 C 406.21239 66.01188 406.55328 66.608509 406.89453 67.291016 L 406.89453 52.873047 C 406.4964 53.612428 406.09735 54.267183 405.69922 54.835938 C 405.30108 55.404696 404.81874 55.803749 404.25 56.03125 C 403.96578 56.25874 403.56659 56.400168 403.05469 56.457031 L 401.26367 56.457031 L 398.10742 56.457031 L 398.10742 38.371094 L 404.16406 38.371094 C 405.52908 38.371094 406.63907 38.741072 407.49219 39.480469 C 408.34534 40.219854 408.99811 41.327874 409.45312 42.806641 L 409.45312 31.716797 L 389.23438 31.716797 z M 411.07422 31.716797 C 411.64296 32.342428 412.06914 32.939056 412.35352 33.507812 C 412.69481 34.076568 412.92335 34.587964 413.03711 35.042969 C 413.32133 35.611725 413.46289 36.266475 413.46289 37.005859 C 413.51996 37.74524 413.54883 38.62663 413.54883 39.650391 L 413.54883 86.402344 C 413.54883 92.431159 412.46789 97.093799 410.30664 100.39258 L 410.81836 100.39258 C 413.26402 100.39258 415.48198 98.544575 417.47266 94.847656 C 417.75688 94.392658 418.01274 93.966487 418.24023 93.568359 C 418.52445 93.227106 418.80934 92.913285 419.09375 92.628906 C 419.32128 92.515142 419.57696 92.373752 419.86133 92.203125 C 420.20262 92.032479 420.60162 91.805852 421.05664 91.521484 C 420.77242 90.838977 420.54369 90.269455 420.37305 89.814453 C 420.25928 89.359447 420.14697 88.933288 420.0332 88.535156 C 419.97613 88.250785 419.89111 87.824618 419.77734 87.255859 C 419.72027 86.630227 419.69141 85.890243 419.69141 85.037109 L 419.69141 58.589844 L 425.83398 84.353516 C 426.34588 86.401037 426.60156 87.881007 426.60156 88.791016 C 426.60156 89.246022 426.51616 89.701248 426.3457 90.15625 C 426.23194 90.611256 426.06151 91.037419 425.83398 91.435547 L 435.38867 91.435547 C 435.04738 90.866788 434.76265 90.32633 434.53516 89.814453 C 434.3647 89.302569 434.22333 88.762118 434.10938 88.193359 C 433.99561 87.738353 433.88134 87.197895 433.76758 86.572266 C 433.65381 85.889759 433.59766 85.064543 433.59766 84.097656 L 433.59766 38.626953 C 433.59766 37.773822 433.65344 37.033835 433.76758 36.408203 C 433.88134 35.725695 433.99561 35.185237 434.10938 34.787109 L 434.19531 34.617188 C 434.30908 34.219057 434.45041 33.792896 434.62109 33.337891 C 434.84862 32.826012 435.13339 32.285553 435.47461 31.716797 L 424.98047 31.716797 C 426.00423 33.081812 426.62989 34.360301 426.85742 35.554688 C 426.91449 36.009692 426.97065 36.635383 427.02734 37.431641 C 427.14111 38.2279 427.19922 39.167408 427.19922 40.248047 L 427.19922 65.841797 L 419.69141 31.716797 L 411.07422 31.716797 z M 437.60742 31.716797 C 438.00556 32.285553 438.28834 32.796948 438.45898 33.251953 C 438.68651 33.65008 438.85698 33.991012 438.9707 34.275391 C 439.14116 34.673519 439.22656 35.213978 439.22656 35.896484 C 439.28363 36.522118 439.3125 37.262102 439.3125 38.115234 L 439.3125 86.060547 C 439.3125 87.19806 439.19823 88.079449 438.9707 88.705078 C 438.85694 88.98945 438.71557 89.303278 438.54492 89.644531 C 438.37447 89.928903 438.20404 90.269841 438.0332 90.667969 L 437.60742 91.435547 L 446.90625 91.435547 L 446.56445 90.837891 C 446.16636 89.984757 445.9668 88.762437 445.9668 87.169922 L 445.9668 64.732422 L 450.23242 62.429688 L 450.23242 86.828125 C 450.23242 88.534393 450.09105 89.814835 449.80664 90.667969 L 449.46484 91.435547 L 458.76367 91.435547 L 458.33789 90.667969 C 458.05367 90.269841 457.8269 89.899847 457.65625 89.558594 C 457.54249 89.160466 457.39886 88.819535 457.22852 88.535156 C 457.05806 87.795775 456.97266 86.629625 456.97266 85.037109 L 456.97266 38.115234 C 456.97266 36.408967 457.05806 35.242818 457.22852 34.617188 C 457.51274 33.764052 458.02428 32.797432 458.76367 31.716797 L 449.46484 31.716797 C 449.97674 32.854309 450.23242 34.218031 450.23242 35.810547 L 450.23242 54.921875 L 445.9668 57.224609 L 445.9668 36.322266 C 445.9668 35.526008 446.02491 34.758915 446.13867 34.019531 C 446.30913 33.280149 446.50677 32.513056 446.73438 31.716797 L 437.60742 31.716797 z M 470.53711 31.716797 C 466.95393 31.716797 464.5093 32.824822 463.20117 35.042969 C 462.29114 36.862988 461.83594 40.276199 461.83594 45.28125 L 461.83594 88.279297 C 461.83594 92.146838 461.03977 95.871916 459.44727 99.455078 C 460.12977 99.341352 460.78258 99.056572 461.4082 98.601562 C 462.03383 98.146553 462.68859 97.66422 463.37109 97.152344 C 463.42816 97.095462 463.74188 96.725487 464.31055 96.042969 C 464.87929 95.41734 465.73165 94.506887 466.86914 93.3125 C 467.43792 92.45937 468.40452 91.663213 469.76953 90.923828 C 469.3714 90.582575 469.05952 90.042116 468.83203 89.302734 C 468.77496 89.018363 468.74609 88.704535 468.74609 88.363281 L 468.74609 87 L 468.74609 76.335938 L 473.09766 74.117188 L 473.09766 84.439453 L 473.09766 86.744141 C 473.09766 87.36977 473.06728 87.908275 473.01172 88.363281 C 472.84126 88.818283 472.6417 89.331636 472.41406 89.900391 C 472.18653 90.412275 471.93082 90.923667 471.64648 91.435547 L 481.79883 91.435547 C 481.00256 90.354912 480.54732 89.444463 480.43359 88.705078 C 480.20607 88.250076 480.06473 87.738677 480.00781 87.169922 C 479.95074 86.544289 479.92188 85.862428 479.92188 85.123047 L 479.92188 37.517578 C 479.92188 36.835071 479.95225 36.209381 480.00781 35.640625 C 480.06488 35.071869 480.20622 34.560474 480.43359 34.105469 C 480.49066 33.650464 480.94575 32.854309 481.79883 31.716797 L 470.53711 31.716797 z M 483.76172 31.716797 C 484.78544 32.740558 485.32593 33.592884 485.38281 34.275391 C 485.7241 35.071649 485.89453 36.408261 485.89453 38.285156 L 485.89453 81.369141 L 485.89453 84.183594 C 485.9516 85.036728 486.03663 85.747648 486.15039 86.316406 C 486.37792 87.055788 486.6336 87.737648 486.91797 88.363281 C 487.25926 88.932036 487.71442 89.445385 488.2832 89.900391 C 489.87571 91.49291 492.06469 92.289062 494.85156 92.289062 C 497.52475 92.289062 499.68655 91.49291 501.33594 89.900391 C 502.81472 88.307875 503.55469 85.464183 503.55469 81.369141 L 503.55469 38.882812 L 503.55469 36.238281 C 503.61176 35.498899 503.72407 34.929381 503.89453 34.53125 C 503.9516 33.678118 504.55009 32.740558 505.6875 31.716797 L 495.2793 31.716797 C 496.01869 32.456179 496.47197 33.364674 496.64258 34.445312 C 496.75634 34.729688 496.84174 35.213978 496.89844 35.896484 C 496.95551 36.522118 496.98438 37.289209 496.98438 38.199219 L 496.98438 80.601562 C 496.98438 82.478457 496.81391 83.786005 496.47266 84.525391 C 496.18844 85.606026 495.59164 86.146484 494.68164 86.146484 C 493.82849 86.146484 493.22993 85.635089 492.88867 84.611328 C 492.60445 83.928821 492.46289 82.733611 492.46289 81.027344 L 492.46289 38.882812 C 492.46289 37.745302 492.49327 36.83485 492.54883 36.152344 C 492.6059 35.469837 492.63477 34.985551 492.63477 34.701172 C 492.80522 33.620537 493.25862 32.626807 493.99805 31.716797 L 483.76172 31.716797 z M 153.69336 33.439453 L 156.37891 34.669922 L 156.04297 42.724609 L 154.58789 42.052734 L 153.69336 33.439453 z M 320.04492 37.091797 C 320.89806 37.091797 321.46759 37.688425 321.75195 38.882812 C 321.86572 39.28094 321.95093 39.821399 322.00781 40.503906 C 322.06469 41.186413 322.09375 42.00968 322.09375 42.976562 L 322.09375 80.259766 C 322.09375 81.226652 322.06466 82.051868 322.00781 82.734375 C 321.95093 83.360008 321.86572 83.84234 321.75195 84.183594 C 321.52446 85.321107 320.95493 85.890625 320.04492 85.890625 C 319.02116 85.890625 318.3393 85.37728 317.99805 84.353516 C 317.94116 83.955388 317.88501 83.473055 317.82812 82.904297 C 317.77128 82.335542 317.74219 81.568449 317.74219 80.601562 L 317.74219 42.550781 C 317.74219 41.583899 317.77132 40.816802 317.82812 40.248047 C 317.88501 39.679288 317.94116 39.165943 317.99805 38.710938 C 318.3393 37.6303 319.02116 37.091797 320.04492 37.091797 z M 252.30664 37.859375 L 255.03711 37.859375 L 255.03711 67.121094 L 250.68555 69.339844 L 250.68555 42.039062 C 250.68555 39.25216 251.22601 37.859375 252.30664 37.859375 z M 470.36719 37.859375 L 473.09766 37.859375 L 473.09766 67.121094 L 468.74609 69.339844 L 468.74609 42.039062 C 468.74609 39.25216 469.28654 37.859375 470.36719 37.859375 z M 104.69727 42.052734 L 104.81055 86.574219 L 109.17188 82.996094 L 100.11133 101.45117 L 89.820312 79.863281 L 96.533203 84.113281 L 99.888672 42.166016 L 104.69727 42.052734 z M 95.748047 42.947266 L 95.414062 49.660156 L 58.611328 46.193359 L 95.748047 42.947266 z M 110.29102 43.060547 L 139.375 45.96875 L 109.73242 48.654297 L 110.29102 43.060547 z M 102.44141 44.060547 L 101.67773 44.066406 L 97.761719 87.246094 L 94.742188 85.791016 L 100.44727 96.195312 L 102.44141 44.060547 z M 151.9043 50.21875 L 110.06836 77.177734 L 109.95508 54.023438 L 151.9043 50.21875 z M 50.333984 50.666016 L 93.736328 54.804688 L 93.064453 75.611328 L 50.333984 50.666016 z M 155.70703 53.351562 L 132.2168 104.58398 L 101.45508 122.70508 L 101.67773 109.05859 L 115.10156 79.191406 L 155.70703 53.351562 z M 228.67578 107.71289 C 226.11638 107.71289 223.95455 108.53811 222.19141 110.1875 C 221.2814 111.09751 220.57047 112.34889 220.05859 113.94141 C 220.00171 114.45329 219.9165 115.13514 219.80273 115.98828 C 219.74589 116.78453 219.7168 117.69499 219.7168 118.71875 L 219.7168 126.82227 C 219.7168 128.18728 219.86016 129.41156 220.14453 130.49219 C 220.48578 131.57283 220.96812 132.56655 221.59375 133.47656 C 221.82124 133.76093 222.24741 134.24522 222.87305 134.92773 C 223.55555 135.55336 224.46599 136.32046 225.60352 137.23047 C 227.87853 139.16424 229.21515 140.70037 229.61328 141.83789 C 230.52329 143.48728 230.97852 146.27481 230.97852 150.19922 L 230.97852 157.2793 C 230.97852 159.04245 230.83709 160.29383 230.55273 161.0332 C 230.26836 162.17071 229.64267 162.74023 228.67578 162.74023 C 227.82265 162.74023 227.22407 162.28501 226.88281 161.375 C 226.76909 160.97688 226.68387 160.49259 226.62695 159.92383 L 226.62695 157.70703 L 226.62695 144.39648 L 219.7168 139.2793 L 219.7168 157.87695 C 219.7168 159.01446 219.74593 160.01014 219.80273 160.86328 C 219.9165 161.71641 220.00171 162.4564 220.05859 163.08203 C 220.34297 163.82141 220.62773 164.47422 220.91211 165.04297 C 221.25336 165.61173 221.67953 166.12312 222.19141 166.57812 C 223.89767 168.28439 226.11567 169.13867 228.8457 169.13867 C 231.68948 169.13867 233.87842 168.28439 235.41406 166.57812 C 236.89283 164.9856 237.63281 162.02957 237.63281 157.70703 L 237.63281 147.29883 C 237.63281 145.70632 237.57665 144.36969 237.46289 143.28906 C 237.40601 142.20842 237.32083 141.32703 237.20703 140.64453 C 236.97954 139.79139 236.6386 138.99329 236.18359 138.25391 C 235.72863 137.51453 235.15907 136.7765 234.47656 136.03711 C 233.6803 135.24086 232.99844 134.52993 232.42969 133.9043 C 231.86093 133.27867 231.37664 132.79438 230.97852 132.45312 L 229.61328 131.08789 C 229.15828 130.63288 228.64689 130.20672 228.07812 129.80859 C 227.11125 128.6142 226.62695 127.07806 226.62695 125.20117 L 226.62695 119.05859 L 226.62695 117.01172 C 226.68384 116.38609 226.76905 115.84563 226.88281 115.39062 C 227.28094 114.42375 227.87952 113.94141 228.67578 113.94141 C 229.69954 113.94141 230.35234 114.62326 230.63672 115.98828 C 230.75044 116.44328 230.83566 117.0128 230.89258 117.69531 C 230.94946 118.32094 230.97852 119.14421 230.97852 120.16797 L 230.97852 125.20117 L 237.63281 131.51562 L 237.63281 119.14453 C 237.63281 114.82198 236.89283 111.92213 235.41406 110.44336 C 233.76467 108.62334 231.51956 107.71288 228.67578 107.71289 z M 249.49219 107.71289 C 246.98966 107.71289 244.85689 108.45288 243.09375 109.93164 C 242.58187 110.38665 242.15375 110.95422 241.8125 111.63672 C 241.52813 112.26236 241.30148 112.94617 241.13086 113.68555 C 241.01713 114.31118 240.90283 115.04921 240.78906 115.90234 C 240.67534 116.6986 240.61914 117.66523 240.61914 118.80273 L 240.61914 157.96289 C 240.61914 159.1004 240.67534 160.09412 240.78906 160.94727 C 240.90283 161.8004 241.01713 162.51327 241.13086 163.08203 C 241.52899 164.67454 242.18374 165.8678 243.09375 166.66406 C 243.94689 167.51719 244.91351 168.14288 245.99414 168.54102 C 247.13165 168.93914 248.32491 169.13867 249.57617 169.13867 C 252.47683 169.13867 254.75295 168.31345 256.40234 166.66406 C 257.88111 165.18529 258.61914 162.22732 258.61914 157.79102 L 258.61914 142.17969 L 251.96484 145.16602 L 251.96484 156.68164 C 251.96484 157.76228 251.93763 158.64562 251.88086 159.32812 C 251.82398 160.01064 251.73876 160.52202 251.625 160.86328 C 251.39751 162.22829 250.71368 162.91016 249.57617 162.91016 C 248.66616 162.91016 248.09861 162.36969 247.87109 161.28906 C 247.52984 160.60656 247.35937 159.35518 247.35938 157.53516 L 247.35938 119.05859 C 247.35938 117.35233 247.52984 116.10095 247.87109 115.30469 C 248.09862 114.28093 248.66616 113.76953 249.57617 113.76953 C 250.71368 113.76953 251.3975 114.42428 251.625 115.73242 C 251.73873 116.18742 251.82394 116.755 251.88086 117.4375 C 251.93774 118.06314 251.96484 118.88835 251.96484 119.91211 L 251.96484 131.94141 C 254.06925 130.23513 256.28724 129.38281 258.61914 129.38281 L 258.61914 118.80273 C 258.61914 116.58458 258.42158 114.79274 258.02344 113.42773 C 257.68218 112.00585 257.14173 110.92689 256.40234 110.1875 C 254.58232 108.53811 252.27909 107.71289 249.49219 107.71289 z M 468.91602 107.71289 C 466.41348 107.71289 464.28073 108.45288 462.51758 109.93164 C 462.00572 110.38665 461.57953 110.95422 461.23828 111.63672 C 460.95406 112.26236 460.72725 112.94617 460.55664 113.68555 C 460.44288 114.31118 460.32823 115.04921 460.21484 115.90234 C 460.10108 116.6986 460.04492 117.66523 460.04492 118.80273 L 460.04492 157.96289 C 460.04492 159.1004 460.10108 160.09412 460.21484 160.94727 C 460.32861 161.8004 460.44288 162.51327 460.55664 163.08203 C 460.95474 164.67454 461.60758 165.8678 462.51758 166.66406 C 463.37073 167.51719 464.33733 168.14288 465.41797 168.54102 C 466.55546 168.93914 467.7507 169.13867 469.00195 169.13867 C 471.90259 169.13867 474.17679 168.31345 475.82617 166.66406 C 477.30495 165.18529 478.04492 162.22732 478.04492 157.79102 L 478.04492 142.17969 L 471.39062 145.16602 L 471.39062 156.68164 C 471.39062 157.76228 471.36025 158.64562 471.30469 159.32812 C 471.24762 160.01064 471.16259 160.52202 471.04883 160.86328 C 470.8213 162.22829 470.13944 162.91016 469.00195 162.91016 C 468.09192 162.91016 467.52241 162.36969 467.29492 161.28906 C 466.95363 160.60656 466.7832 159.35518 466.7832 157.53516 L 466.7832 119.05859 C 466.7832 117.35233 466.95363 116.10095 467.29492 115.30469 C 467.52245 114.28093 468.09196 113.76953 469.00195 113.76953 C 470.13944 113.76953 470.82134 114.42428 471.04883 115.73242 C 471.16259 116.18742 471.24762 116.755 471.30469 117.4375 C 471.36176 118.06314 471.39062 118.88835 471.39062 119.91211 L 471.39062 131.94141 C 473.49503 130.23513 475.71303 129.38281 478.04492 129.38281 L 478.04492 118.80273 C 478.04492 116.58458 477.84536 114.79274 477.44727 113.42773 C 477.10597 112.00585 476.5656 110.92689 475.82617 110.1875 C 474.00618 108.53811 471.70293 107.71289 468.91602 107.71289 z M 261.34961 108.56641 C 261.74774 109.13516 262.0325 109.64655 262.20312 110.10156 C 262.43065 110.49969 262.6011 110.84063 262.71484 111.125 C 262.88549 111.52313 262.9707 112.06358 262.9707 112.74609 C 263.02759 113.37172 263.05664 114.1117 263.05664 114.96484 L 263.05664 162.91016 C 263.05664 164.04767 262.94233 164.92906 262.71484 165.55469 C 262.60108 165.83906 262.45969 166.15289 262.28906 166.49414 C 262.11842 166.77851 261.94796 167.11945 261.77734 167.51758 L 261.34961 168.28516 L 270.64844 168.28516 L 270.30859 167.6875 C 269.91046 166.83437 269.71094 165.61204 269.71094 164.01953 L 269.71094 141.58203 L 273.97656 139.2793 L 273.97656 163.67773 C 273.97656 165.384 273.8332 166.66445 273.54883 167.51758 L 273.20898 168.28516 L 282.50781 168.28516 L 282.08203 167.51758 C 281.79766 167.11945 281.56906 166.74945 281.39844 166.4082 C 281.28471 166.01007 281.14332 165.66915 280.97266 165.38477 C 280.80201 164.64539 280.7168 163.47924 280.7168 161.88672 L 280.7168 114.96484 C 280.7168 113.25857 280.80201 112.09243 280.97266 111.4668 C 281.25703 110.61367 281.76843 109.64705 282.50781 108.56641 L 273.20898 108.56641 C 273.72086 109.70392 273.97656 111.06763 273.97656 112.66016 L 273.97656 131.77148 L 269.71094 134.07422 L 269.71094 113.17188 C 269.71094 112.37562 269.7671 111.60853 269.88086 110.86914 C 270.05151 110.12976 270.25102 109.36267 270.47852 108.56641 L 261.34961 108.56641 z M 284.72656 108.56641 C 285.92095 109.98829 286.63187 111.09632 286.85938 111.89258 C 287.03002 112.17695 287.14234 112.74648 287.19922 113.59961 C 287.2561 114.39587 287.28516 115.41865 287.28516 116.66992 L 287.28516 163.42188 C 287.28516 165.12815 287.19994 166.63522 287.0293 167.94336 C 286.91557 169.19463 286.80123 170.24648 286.6875 171.09961 C 286.46001 172.12337 286.11907 173.17717 285.66406 174.25781 C 285.26593 175.33844 284.75454 176.44647 284.12891 177.58398 C 285.43705 177.35649 286.65935 176.75986 287.79688 175.79297 C 288.08125 175.5086 288.48031 175.02431 288.99219 174.3418 C 289.50407 173.71617 290.15688 172.89291 290.95312 171.86914 C 292.31815 170.04913 293.91045 168.85392 295.73047 168.28516 L 294.96289 166.75 C 294.79224 166.35187 294.65085 166.0671 294.53711 165.89648 C 294.30962 165.04334 294.19531 164.01861 294.19531 162.82422 L 294.19531 119.91211 C 294.19531 118.14897 294.28053 116.92665 294.45117 116.24414 C 294.67866 115.78914 294.93437 115.4482 295.21875 115.2207 C 295.50312 114.93633 295.90218 114.79297 296.41406 114.79297 C 297.32407 114.79297 297.9207 115.33342 298.20508 116.41406 C 298.37572 116.86906 298.46094 117.40953 298.46094 118.03516 C 298.51782 118.66079 298.54688 119.45695 298.54688 120.42383 L 298.54688 157.2793 C 298.54688 158.01869 298.51778 158.7025 298.46094 159.32812 C 298.46094 159.89689 298.37572 160.32304 298.20508 160.60742 C 298.09135 161.28992 297.60704 161.97179 296.75391 162.6543 C 298.28954 163.90555 299.34335 164.9303 299.91211 165.72656 C 300.65149 166.75032 301.36241 168.45498 302.04492 170.84375 C 302.49993 169.64937 302.89703 168.65563 303.23828 167.85938 C 303.63641 167.00624 304.0064 166.29531 304.34766 165.72656 C 304.63203 165.32843 305.00203 164.87321 305.45703 164.36133 C 305.96891 163.84945 306.65077 163.1947 307.50391 162.39844 C 307.0489 161.94344 306.67891 161.54634 306.39453 161.20508 C 306.16704 160.86382 305.96946 160.55001 305.79883 160.26562 C 305.68506 159.8675 305.57076 159.41226 305.45703 158.90039 C 305.34327 158.3885 305.28516 157.73571 305.28516 156.93945 L 305.28516 120.08398 L 305.28516 117.86523 C 305.34204 117.18272 305.45635 116.64228 305.62695 116.24414 C 305.96821 115.27726 306.5939 114.79297 307.50391 114.79297 C 308.35704 114.79297 308.95367 115.33342 309.29492 116.41406 C 309.40869 116.86906 309.49589 117.40953 309.55273 118.03516 C 309.6665 118.66079 309.72266 119.45695 309.72266 120.42383 L 309.72266 162.05664 C 309.72266 163.70604 309.63744 164.87218 309.4668 165.55469 C 309.29615 166.2372 308.84094 167.14765 308.10156 168.28516 L 318.50977 168.28516 C 317.59975 167.14765 317.11547 166.21008 317.05859 165.4707 C 316.71734 164.61756 316.54687 163.30806 316.54688 161.54492 L 316.54688 115.90234 C 316.54688 113.91169 316.71734 112.48986 317.05859 111.63672 C 317.28608 110.84046 317.88468 109.81766 318.85156 108.56641 L 304.43359 108.56641 L 301.5332 112.32031 L 298.7168 108.56641 L 284.72656 108.56641 z M 331.13672 108.56641 C 327.55356 108.56641 325.10697 109.67443 323.79883 111.89258 C 322.88882 113.7126 322.43359 117.12581 322.43359 122.13086 L 322.43359 165.12891 C 322.43359 168.99645 321.63744 172.72153 320.04492 176.30469 C 320.72743 176.19096 321.38218 175.90618 322.00781 175.45117 C 322.63345 174.99616 323.2882 174.51383 323.9707 174.00195 C 324.02759 173.94507 324.33943 173.57509 324.9082 172.89258 C 325.47696 172.26695 326.32929 171.3565 327.4668 170.16211 C 328.03555 169.30898 329.00413 168.51282 330.36914 167.77344 C 329.97101 167.43218 329.65719 166.89173 329.42969 166.15234 C 329.37281 165.86797 329.34375 165.55609 329.34375 165.21484 L 329.34375 163.84961 L 329.34375 153.18555 L 333.69531 150.9668 L 333.69531 161.28906 L 333.69531 163.59375 C 333.69531 164.21939 333.66618 164.75983 333.60938 165.21484 C 333.43873 165.66985 333.24118 166.18125 333.01367 166.75 C 332.78618 167.26188 332.53047 167.77328 332.24609 168.28516 L 342.39648 168.28516 C 341.60023 167.20452 341.14695 166.29407 341.0332 165.55469 C 340.80571 165.09969 340.66235 164.58828 340.60547 164.01953 C 340.54859 163.39389 340.52148 162.71204 340.52148 161.97266 L 340.52148 114.36719 C 340.52148 113.68468 340.5487 113.05898 340.60547 112.49023 C 340.66235 111.92147 340.80571 111.41009 341.0332 110.95508 C 341.09009 110.50008 341.54334 109.70392 342.39648 108.56641 L 331.13672 108.56641 z M 344.5293 108.56641 C 344.9843 109.07828 345.32719 109.56062 345.55469 110.01562 C 345.83906 110.47062 346.0657 110.89679 346.23633 111.29492 C 346.5207 112.14805 346.66211 113.51374 346.66211 115.39062 L 346.66211 161.46094 C 346.66211 163.33784 346.52071 164.70156 346.23633 165.55469 C 346.06568 165.95282 345.83906 166.37897 345.55469 166.83398 C 345.3272 167.28898 344.9843 167.77328 344.5293 168.28516 L 360.74023 168.28516 C 363.75465 168.28516 365.26172 166.77807 365.26172 163.76367 C 365.26172 161.09051 364.35127 158.50253 362.53125 156 C 362.47437 156.68251 362.41825 157.30819 362.36133 157.87695 C 362.36133 158.38883 362.27611 158.78789 362.10547 159.07227 C 361.47984 160.94916 359.51753 161.88672 356.21875 161.88672 L 353.31836 161.88672 L 353.31836 115.39062 L 353.31836 112.91602 C 353.37524 112.2335 353.48756 111.69305 353.6582 111.29492 C 353.88573 110.61241 354.42616 109.70392 355.2793 108.56641 L 344.5293 108.56641 z M 366.79688 108.56641 C 367.25187 109.07828 367.59282 109.56062 367.82031 110.01562 C 368.10468 110.47062 368.33328 110.89679 368.50391 111.29492 C 368.78828 112.14805 368.92969 113.45756 368.92969 115.2207 L 368.92969 161.46094 C 368.92969 163.33784 368.78829 164.70156 368.50391 165.55469 C 368.33326 166.0097 368.10468 166.46491 367.82031 166.91992 C 367.59282 167.37492 367.25187 167.83016 366.79688 168.28516 L 387.01562 168.28516 L 387.01562 158.13281 C 386.61749 159.27033 386.13519 160.12264 385.56641 160.69141 C 385.05454 161.20329 384.31454 161.46094 383.34766 161.46094 L 375.66992 161.46094 L 375.66992 140.64453 L 379.59375 140.64453 C 380.67439 140.64453 381.58483 140.84209 382.32422 141.24023 C 382.72232 141.46772 383.09234 141.83773 383.43359 142.34961 C 383.77489 142.86149 384.11578 143.45811 384.45703 144.14062 L 384.45703 129.72266 C 384.0589 130.46203 383.65985 131.1168 383.26172 131.68555 C 382.86358 132.25431 382.38128 132.65336 381.8125 132.88086 C 381.52828 133.10839 381.12909 133.24978 380.61719 133.30664 L 378.82617 133.30664 L 375.66992 133.30664 L 375.66992 115.2207 L 381.72656 115.2207 C 383.09161 115.2207 384.20157 115.59069 385.05469 116.33008 C 385.90784 117.06946 386.56065 118.17749 387.01562 119.65625 L 387.01562 108.56641 L 366.79688 108.56641 z M 388.63672 108.56641 C 389.20546 109.19204 389.63164 109.78866 389.91602 110.35742 C 390.25731 110.92617 390.48585 111.43758 390.59961 111.89258 C 390.88383 112.46134 391.02539 113.11609 391.02539 113.85547 C 391.08246 114.59486 391.11133 115.47624 391.11133 116.5 L 391.11133 163.25195 C 391.11133 169.28076 390.03043 173.94341 387.86914 177.24219 L 388.38086 177.24219 C 390.82652 177.24219 393.04452 175.39417 395.03516 171.69727 C 395.31938 171.24226 395.57524 170.8161 395.80273 170.41797 C 396.08695 170.07672 396.37188 169.76485 396.65625 169.48047 C 396.88378 169.36674 397.13949 169.22338 397.42383 169.05273 C 397.76512 168.88209 398.16412 168.65546 398.61914 168.37109 C 398.33492 167.68858 398.10619 167.11906 397.93555 166.66406 C 397.82178 166.20905 397.70947 165.7829 397.5957 165.38477 C 397.53863 165.10039 397.45361 164.67423 397.33984 164.10547 C 397.28277 163.47984 397.25391 162.73986 397.25391 161.88672 L 397.25391 135.43945 L 403.39648 161.20508 C 403.90838 163.2526 404.16406 164.73061 404.16406 165.64062 C 404.16406 166.09562 404.07866 166.55086 403.9082 167.00586 C 403.79444 167.46087 403.62401 167.88703 403.39648 168.28516 L 412.95117 168.28516 C 412.60988 167.7164 412.32515 167.17594 412.09766 166.66406 C 411.9272 166.15218 411.78583 165.61173 411.67188 165.04297 C 411.55811 164.58797 411.44384 164.04751 411.33008 163.42188 C 411.21631 162.73937 411.16016 161.91414 411.16016 160.94727 L 411.16016 115.47656 C 411.16016 114.62342 411.21631 113.88345 411.33008 113.25781 C 411.44384 112.57531 411.55849 112.03485 411.67188 111.63672 L 411.75781 111.4668 C 411.87158 111.06867 412.01291 110.64251 412.18359 110.1875 C 412.41112 109.67562 412.69589 109.13516 413.03711 108.56641 L 402.54297 108.56641 C 403.56673 109.93141 404.19243 111.20991 404.41992 112.4043 C 404.47699 112.85931 404.53315 113.485 404.58984 114.28125 C 404.70361 115.07751 404.76172 116.01703 404.76172 117.09766 L 404.76172 142.69141 L 397.25391 108.56641 L 388.63672 108.56641 z M 415.16992 108.56641 C 416.36429 109.76079 416.96094 111.69404 416.96094 114.36719 L 416.96094 160.52148 C 416.96094 161.65899 416.93056 162.62562 416.875 163.42188 L 416.875 165.12891 C 416.70454 165.64079 416.47777 166.18125 416.19336 166.75 C 415.96583 167.26188 415.6249 167.77328 415.16992 168.28516 L 426.6875 168.28516 C 430.44129 168.28516 432.82975 167.37471 433.85352 165.55469 C 434.5929 164.41718 434.96289 162.28441 434.96289 159.15625 L 434.96289 147.63867 C 434.96289 145.7049 434.87749 144.1126 434.70703 142.86133 C 434.59327 141.61007 434.45002 140.69962 434.2793 140.13086 C 433.71055 138.76585 432.40299 137.91352 430.35547 137.57227 C 431.66364 137.17413 432.74454 136.3218 433.59766 135.01367 C 434.28016 133.81928 434.62109 131.82791 434.62109 129.04102 L 434.62109 121.19141 C 434.62109 116.75511 434.22205 113.77002 433.42578 112.23438 C 432.68639 110.64186 431.06699 109.53189 428.56445 108.90625 C 428.10944 108.79252 427.39852 108.70727 426.43164 108.65039 C 425.52164 108.59351 424.44074 108.56641 423.18945 108.56641 L 415.16992 108.56641 z M 437.52148 108.56641 C 437.9765 109.07828 438.31739 109.56062 438.54492 110.01562 C 438.82914 110.47062 439.05791 110.89679 439.22852 111.29492 C 439.51274 112.14805 439.6543 113.45756 439.6543 115.2207 L 439.6543 161.46094 C 439.6543 163.33784 439.51296 164.70156 439.22852 165.55469 C 439.05806 166.0097 438.82933 166.46491 438.54492 166.91992 C 438.31739 167.37492 437.97646 167.83016 437.52148 168.28516 L 457.74023 168.28516 L 457.74023 158.13281 C 457.34214 159.27033 456.85976 160.12264 456.29102 160.69141 C 455.77912 161.20329 455.03918 161.46094 454.07227 161.46094 L 446.39453 161.46094 L 446.39453 140.64453 L 450.31836 140.64453 C 451.399 140.64453 452.30944 140.84209 453.04883 141.24023 C 453.44696 141.46772 453.81695 141.83773 454.1582 142.34961 C 454.49949 142.86149 454.84039 143.45811 455.18164 144.14062 L 455.18164 129.72266 C 454.78354 130.46203 454.38446 131.1168 453.98633 131.68555 C 453.58819 132.25431 453.10581 132.65336 452.53711 132.88086 C 452.25289 133.10839 451.8537 133.24978 451.3418 133.30664 L 449.55078 133.30664 L 446.39453 133.30664 L 446.39453 115.2207 L 452.45117 115.2207 C 453.81619 115.2207 454.92618 115.59069 455.7793 116.33008 C 456.63245 117.06946 457.28525 118.17749 457.74023 119.65625 L 457.74023 108.56641 L 437.52148 108.56641 z M 480.77539 108.56641 C 481.74231 109.81766 482.30986 110.72616 482.48047 111.29492 C 482.76469 112.14805 482.9082 113.45756 482.9082 115.2207 L 482.9082 161.46094 C 482.9082 162.42783 482.87782 163.22398 482.82227 163.84961 C 482.76519 164.47524 482.68017 164.98664 482.56641 165.38477 C 482.33888 166.12415 481.74227 167.09077 480.77539 168.28516 L 491.52539 168.28516 C 491.12729 167.60265 490.78437 166.9479 490.5 166.32227 C 490.27247 165.63976 490.10201 165.04313 489.98828 164.53125 C 489.87452 163.9625 489.7622 163.3368 489.64844 162.6543 C 489.59137 161.97179 489.5625 161.17564 489.5625 160.26562 L 489.5625 140.38867 L 495.36328 158.73047 C 495.47705 159.29923 495.61842 159.81062 495.78906 160.26562 C 495.95952 160.72063 496.10315 161.17586 496.2168 161.63086 C 496.50102 162.31337 496.67163 162.91 496.72852 163.42188 C 496.78559 163.87688 496.81445 164.33211 496.81445 164.78711 C 496.81445 165.35587 496.72905 165.92539 496.55859 166.49414 C 496.44483 167.00603 496.18934 167.60265 495.79102 168.28516 L 507.30664 168.28516 C 506.7379 167.83016 506.25556 167.34586 505.85742 166.83398 C 505.51613 166.3221 505.1752 165.75454 504.83398 165.12891 C 504.77691 164.84453 504.60645 164.33314 504.32227 163.59375 C 504.03767 162.85437 503.66791 161.74439 503.21289 160.26562 L 495.44922 135.86523 L 501.08008 117.95117 C 501.53506 116.52928 501.90508 115.36313 502.18945 114.45312 C 502.53074 113.48623 502.81349 112.77531 503.04102 112.32031 C 503.32524 111.6378 503.72443 111.01212 504.23633 110.44336 C 504.80507 109.81773 505.43077 109.19204 506.11328 108.56641 L 495.02148 108.56641 C 495.24901 109.19204 495.42143 109.78866 495.53516 110.35742 C 495.70561 110.8693 495.79102 111.3807 495.79102 111.89258 C 495.79102 112.34759 495.64777 113.08757 495.36328 114.11133 C 495.07906 115.07822 494.70889 116.30053 494.25391 117.7793 L 489.5625 132.19727 L 489.5625 116.33008 C 489.5625 113.14505 490.13009 110.55705 491.26758 108.56641 L 480.77539 108.56641 z M 330.96484 114.70898 L 333.69531 114.70898 L 333.69531 143.9707 L 329.34375 146.18945 L 329.34375 118.88867 C 329.34375 116.10176 329.88422 114.70898 330.96484 114.70898 z M 423.95703 115.39062 L 425.66211 115.39062 C 427.08401 115.39062 427.79492 116.35725 427.79492 118.29102 L 427.79492 131.08789 C 427.79492 133.07853 427.08401 134.07422 425.66211 134.07422 L 423.95703 134.07422 L 423.95703 115.39062 z M 67.5625 122.44336 L 96.830078 193.63086 L 130.68359 123.86719 L 121.0332 130.35156 L 116.91992 124.3418 L 114.86328 133.99023 L 108.53516 138.26172 L 104.26367 131.30273 L 102.36523 143.00781 L 99.517578 144.74805 L 93.980469 140.16016 L 93.349609 132.4082 L 89.078125 136.83984 L 85.28125 134.7832 L 82.433594 123.86719 L 79.585938 130.66797 L 67.5625 122.44336 z M 121.66602 134.14844 L 97.302734 184.45703 L 99.361328 148.22852 L 121.66602 134.14844 z M 423.95703 140.90039 L 425.66211 140.90039 C 427.08401 140.90039 427.79492 141.80889 427.79492 143.62891 L 427.79492 159.15625 C 427.79492 161.20378 427.08401 162.22852 425.66211 162.22852 L 423.95703 162.22852 L 423.95703 140.90039 z "
       transform="scale(0.26458333)" />
  </g>
</svg>
