<?xml version="1.0" encoding="UTF-8" standalone="no"?>
<svg
   width="1400"
   height="200"
   viewBox="0 0 370.41665 52.916666"
   version="1.1"
   id="svg5"
   xmlns="http://www.w3.org/2000/svg"
   xmlns:svg="http://www.w3.org/2000/svg">
  <defs
     id="defs8" />
  <g
     id="layer1">
    <path
       id="path2565"
       fill="#00ff00"
       d="m 83.667969,59.279297 a 5.9286789,5.9286789 0 0 0 -5.927735,5.929687 5.9286789,5.9286789 0 0 0 5.927735,5.927735 5.9286789,5.9286789 0 0 0 5.927734,-5.927735 5.9286789,5.9286789 0 0 0 -5.927734,-5.929687 z m 36.019531,0 a 5.9286789,5.9286789 0 0 0 -5.92773,5.929687 5.9286789,5.9286789 0 0 0 5.92773,5.927735 5.9286789,5.9286789 0 0 0 5.92773,-5.927735 5.9286789,5.9286789 0 0 0 -5.92773,-5.929687 z"
       transform="scale(0.26458333)" />
    <path
       id="path869"
       fill="#ffffff"
       d="M 104.58594 6.3691406 L 98.544922 13.751953 L 96.308594 13.751953 L 91.833984 8.8300781 L 85.123047 16.4375 L 77.068359 16.660156 L 76.84375 21.582031 L 49.326172 19.121094 L 45.748047 25.609375 L 39.707031 26.503906 L 34.783203 44.402344 L 62.525391 103.91406 L 71.699219 109.2832 L 77.291016 122.25781 L 80.648438 115.76953 L 86.6875 119.79688 L 88.253906 130.08984 L 92.058594 125.16797 L 96.083984 127.62695 L 97.875 136.80078 L 102.125 127.4043 L 108.16602 124.49609 L 110.62695 128.74609 L 113.08789 120.69336 L 119.35156 117.56055 L 121.8125 123.1543 L 126.51172 111.74414 L 134.56445 107.93945 L 165.2168 41.716797 L 164.09766 38.361328 L 160.74023 36.796875 L 160.51758 30.978516 L 152.01562 27.623047 L 150.89648 18.226562 L 136.57812 16.884766 L 135.46094 12.185547 L 124.7207 16.212891 L 121.36523 13.976562 L 113.53516 15.542969 L 111.96875 9.7246094 L 104.58594 6.3691406 z M 106.48828 12.857422 L 110.06836 14.423828 L 114.20703 37.802734 L 109.17188 37.466797 L 106.48828 12.857422 z M 92.169922 15.765625 L 96.308594 20.240234 L 99.664062 33.328125 L 98.433594 38.025391 L 88.589844 19.234375 L 92.169922 15.765625 z M 120.35742 19.570312 L 123.60352 22.8125 L 126.95898 39.480469 L 124.16211 39.255859 L 120.35742 19.570312 z M 133.44531 19.681641 L 136.80273 40.152344 L 130.76172 20.576172 L 133.44531 19.681641 z M 80.871094 21.134766 L 84.5625 21.134766 L 86.798828 29.972656 L 86.6875 39.927734 L 80.537109 25.386719 L 80.871094 21.134766 z M 139.93555 22.925781 L 147.42969 23.708984 L 149.33203 41.494141 L 139.93555 22.925781 z M 53.128906 24.603516 L 64.539062 25.945312 L 64.427734 41.716797 L 53.128906 24.603516 z M 69.349609 25.498047 L 77.738281 26.728516 L 77.068359 39.480469 L 69.349609 25.498047 z M 425.32617 28.0625 C 426.4755 30.152166 427.4151 32.190599 428.14648 34.175781 C 428.98234 36.160964 429.6094 38.093911 430.02734 39.974609 C 430.2364 41.541859 430.44541 43.52657 430.6543 45.929688 C 430.96775 48.228318 431.125 50.94558 431.125 54.080078 L 431.125 139.96484 C 431.125 142.26348 431.22862 144.4572 431.4375 146.54688 C 431.64646 148.53206 432.22174 151.30108 433.16211 154.85352 L 452.125 154.85352 L 457.29688 147.95703 L 462.62695 154.85352 L 483.15625 154.85352 C 483.99205 151.40557 484.46379 148.79379 484.56836 147.01758 C 484.77724 145.13688 484.88086 143.2557 484.88086 141.375 L 484.88086 57.527344 C 484.88086 54.288362 485.19341 51.885609 485.82031 50.318359 C 485.9248 48.960078 486.81459 47.23615 488.48633 45.146484 L 469.36523 45.146484 C 470.7235 47.23615 471.5596 48.908312 471.87305 50.162109 C 472.18652 51.41591 472.34375 53.557876 472.34375 56.587891 L 472.34375 133.06836 C 472.34375 134.84457 472.23818 136.30771 472.0293 137.45703 C 471.92473 138.60635 471.76943 139.59968 471.56055 140.43555 C 470.93365 142.42073 469.83482 143.41211 468.26758 143.41211 C 466.59584 143.41211 465.44721 142.52426 464.82031 140.74805 C 464.50694 140.01666 464.29793 139.02528 464.19336 137.77148 L 464.19336 133.69531 L 464.19336 65.990234 C 464.19336 64.527469 464.29893 63.327068 464.50781 62.386719 C 464.71685 61.446367 464.92393 60.610288 465.13281 59.878906 C 465.44626 59.35649 465.81253 58.781197 466.23047 58.154297 C 466.75288 57.527397 467.4317 56.796803 468.26758 55.960938 C 466.70033 54.498171 465.44816 53.29582 464.50781 52.355469 C 463.67193 51.41512 462.99116 50.579038 462.46875 49.847656 C 461.84185 48.802823 461.16303 47.548705 460.43164 46.085938 C 459.80474 44.518687 459.07416 42.63946 458.23828 40.445312 C 456.98449 44.83361 455.6786 47.966956 454.32031 49.847656 C 453.2755 51.310422 451.34255 53.191604 448.52148 55.490234 C 450.08883 56.744035 450.97666 57.998153 451.18555 59.251953 C 451.499 59.77437 451.65625 60.610452 451.65625 61.759766 C 451.76082 62.804598 451.8125 64.004997 451.8125 65.363281 L 451.8125 133.06836 C 451.8125 134.84457 451.76082 136.30771 451.65625 137.45703 C 451.65625 138.60635 451.499 139.59968 451.18555 140.43555 C 450.66312 142.42073 449.56627 143.41211 447.89453 143.41211 C 446.95418 143.41211 446.22163 143.20309 445.69922 142.78516 C 445.17681 142.26274 444.707 141.58391 444.28906 140.74805 C 443.97561 139.49425 443.81836 137.24875 443.81836 134.00977 L 443.81836 55.175781 C 443.81836 52.981632 444.0274 51.102405 444.44531 49.535156 C 444.6543 49.221707 444.91702 48.7519 445.23047 48.125 C 445.54392 47.393616 446.01373 46.400282 446.64062 45.146484 C 443.29715 44.101652 440.37087 41.907919 437.86328 38.564453 C 436.4005 36.683754 435.20011 35.168847 434.25977 34.019531 C 433.31942 32.765732 432.58686 31.875932 432.06445 31.353516 C 429.97478 29.5773 427.7293 28.480433 425.32617 28.0625 z M 46.642578 31.091797 L 47.871094 42.611328 L 45.634766 42.611328 L 41.720703 35.341797 L 41.832031 32.322266 L 46.642578 31.091797 z M 153.69336 33.439453 L 156.37891 34.669922 L 156.04297 42.724609 L 154.58789 42.052734 L 153.69336 33.439453 z M 104.69727 42.052734 L 104.81055 86.574219 L 109.17188 82.996094 L 100.11133 101.45117 L 89.820312 79.863281 L 96.533203 84.113281 L 99.888672 42.166016 L 104.69727 42.052734 z M 95.748047 42.947266 L 95.414062 49.660156 L 58.611328 46.193359 L 95.748047 42.947266 z M 110.29102 43.060547 L 139.375 45.96875 L 109.73242 48.654297 L 110.29102 43.060547 z M 404.16797 43.578125 C 399.15276 43.578125 395.02609 45.094985 391.78711 48.125 C 390.01088 50.110182 388.80854 52.407449 388.18164 55.019531 C 387.97276 55.95988 387.76372 57.214001 387.55469 58.78125 C 387.34581 60.244015 387.24219 61.916174 387.24219 63.796875 L 387.24219 135.73242 C 387.24219 137.82209 387.34581 139.6515 387.55469 141.21875 C 387.76357 142.786 387.97261 144.14365 388.18164 145.29297 C 388.80854 147.80057 390.01088 149.94253 391.78711 151.71875 C 395.02609 154.85325 399.15276 156.42188 404.16797 156.42188 C 409.18315 156.42188 413.25806 154.85325 416.39258 151.71875 C 417.54188 150.25598 418.42974 148.2195 419.05664 145.60742 C 419.78803 142.89086 420.1543 139.49477 420.1543 135.41992 L 420.1543 68.027344 L 420.1543 61.132812 C 420.1543 59.252114 420.04873 57.84074 419.83984 56.900391 C 419.63096 55.01969 419.21294 53.40125 418.58594 52.042969 C 418.06353 50.580203 417.33292 49.429618 416.39258 48.59375 C 413.04911 45.250287 408.97419 43.578125 404.16797 43.578125 z M 766.20117 43.578125 C 761.49941 43.578125 757.53 45.094985 754.29102 48.125 C 752.61928 49.796733 751.31339 52.094 750.37305 55.019531 C 750.26848 55.95988 750.11123 57.214001 749.90234 58.78125 C 749.79778 60.244015 749.74609 61.916174 749.74609 63.796875 L 749.74609 78.685547 C 749.74609 81.193145 750.00687 83.438646 750.5293 85.423828 C 751.15619 87.409012 752.04406 89.238426 753.19336 90.910156 C 753.6113 91.432573 754.39559 92.320418 755.54492 93.574219 C 756.79872 94.723535 758.46894 96.134908 760.55859 97.806641 C 764.73795 101.35907 767.19442 104.17987 767.92578 106.26953 C 769.59752 109.29955 770.43359 114.41956 770.43359 121.62891 L 770.43359 134.63672 C 770.43359 137.8757 770.17084 140.17297 769.64844 141.53125 C 769.12601 143.62092 767.97737 144.66602 766.20117 144.66602 C 764.63393 144.66602 763.53705 143.82994 762.91016 142.1582 C 762.70127 141.42682 762.54402 140.53897 762.43945 139.49414 L 762.43945 135.41992 L 762.43945 110.9707 L 749.74414 101.56641 L 749.74414 135.73242 C 749.74414 137.82209 749.79778 139.6515 749.90234 141.21875 C 750.11123 142.786 750.26653 144.14365 750.37109 145.29297 C 750.89353 146.65125 751.41705 147.8536 751.93945 148.89844 C 752.56635 149.94327 753.35067 150.88288 754.29102 151.71875 C 757.42553 154.85325 761.49849 156.42188 766.51367 156.42188 C 771.73784 156.42188 775.76097 154.85325 778.58203 151.71875 C 781.29858 148.79322 782.6582 143.36065 782.6582 135.41992 L 782.6582 116.29883 C 782.6582 113.3733 782.55263 110.91878 782.34375 108.93359 C 782.23918 106.94841 782.08193 105.32802 781.87305 104.07422 C 781.45511 102.50697 780.82804 101.04578 779.99219 99.6875 C 779.15631 98.329218 778.11317 96.969612 776.85938 95.611328 C 775.39661 94.148563 774.14249 92.842676 773.09766 91.693359 C 772.05282 90.544045 771.16498 89.656197 770.43359 89.029297 C 769.59774 88.193429 768.76166 87.35735 767.92578 86.521484 C 767.08993 85.685619 766.14835 84.901306 765.10352 84.169922 C 763.32731 81.975773 762.43945 79.154978 762.43945 75.707031 L 762.43945 64.423828 L 762.43945 60.662109 C 762.54402 59.512793 762.70127 58.519459 762.91016 57.683594 C 763.64152 55.907377 764.73839 55.019531 766.20117 55.019531 C 768.08186 55.019531 769.28423 56.273652 769.80664 58.78125 C 770.01552 59.617118 770.1708 60.662218 770.27539 61.916016 C 770.37996 63.065332 770.43359 64.580238 770.43359 66.460938 L 770.43359 75.707031 L 782.6582 87.304688 L 782.6582 64.580078 C 782.6582 56.639348 781.29858 51.310316 778.58203 48.59375 C 775.55201 45.250287 771.42534 43.578125 766.20117 43.578125 z M 834.68945 43.578125 C 829.98772 43.578125 826.01828 45.094985 822.7793 48.125 C 821.10756 49.796733 819.80167 52.094 818.86133 55.019531 C 818.75676 55.95988 818.59952 57.214001 818.39062 58.78125 C 818.28606 60.244015 818.23437 61.916174 818.23438 63.796875 L 818.23438 78.685547 C 818.23438 81.193145 818.49517 83.438646 819.01758 85.423828 C 819.64448 87.409012 820.53231 89.238426 821.68164 90.910156 C 822.09958 91.432573 822.8839 92.320418 824.0332 93.574219 C 825.287 94.723535 826.95719 96.134908 829.04688 97.806641 C 833.2262 101.35907 835.68267 104.17987 836.41406 106.26953 C 838.0858 109.29955 838.92186 114.41956 838.92188 121.62891 L 838.92188 134.63672 C 838.92188 137.8757 838.6611 140.17297 838.13867 141.53125 C 837.61627 143.62092 836.46568 144.66602 834.68945 144.66602 C 833.12221 144.66602 832.02534 143.82994 831.39844 142.1582 C 831.18956 141.42682 831.0323 140.53897 830.92773 139.49414 L 830.92773 135.41992 L 830.92773 110.9707 L 818.23438 101.56641 L 818.23438 135.73242 C 818.23438 137.82209 818.28606 139.6515 818.39062 141.21875 C 818.59952 142.786 818.75676 144.14365 818.86133 145.29297 C 819.38373 146.65125 819.9053 147.8536 820.42773 148.89844 C 821.05463 149.94327 821.83895 150.88288 822.7793 151.71875 C 825.91379 154.85325 829.9887 156.42188 835.00391 156.42188 C 840.22807 156.42188 844.24927 154.85325 847.07031 151.71875 C 849.78689 148.79322 851.14648 143.36065 851.14648 135.41992 L 851.14648 116.29883 C 851.14648 113.3733 851.04091 110.91878 850.83203 108.93359 C 850.72746 106.94841 850.57216 105.32802 850.36328 104.07422 C 849.94537 102.50697 849.3183 101.04578 848.48242 99.6875 C 847.64657 98.329218 846.60145 96.969612 845.34766 95.611328 C 843.88488 94.148563 842.63078 92.842676 841.58594 91.693359 C 840.54112 90.544045 839.65326 89.656197 838.92188 89.029297 C 838.08598 88.193429 837.24992 87.35735 836.41406 86.521484 C 835.57818 85.685619 834.63856 84.901306 833.59375 84.169922 C 831.81752 81.975773 830.92773 79.154978 830.92773 75.707031 L 830.92773 64.423828 L 830.92773 60.662109 C 831.0323 59.512793 831.18956 58.519459 831.39844 57.683594 C 832.12983 55.907377 833.2267 55.019531 834.68945 55.019531 C 836.57017 55.019531 837.77252 56.273652 838.29492 58.78125 C 838.5038 59.617118 838.66106 60.662218 838.76562 61.916016 C 838.8702 63.065332 838.92188 64.580238 838.92188 66.460938 L 838.92188 75.707031 L 851.14648 87.304688 L 851.14648 64.580078 C 851.14648 56.639348 849.78689 51.310316 847.07031 48.59375 C 844.04029 45.250287 839.91362 43.578125 834.68945 43.578125 z M 872.92969 43.578125 C 868.33242 43.578125 864.41476 44.937734 861.17578 47.654297 C 860.23543 48.490165 859.45112 49.535265 858.82422 50.789062 C 858.30181 51.93838 857.88571 53.190544 857.57227 54.548828 C 857.36338 55.698142 857.15437 57.057751 856.94531 58.625 C 856.73643 60.087768 856.63086 61.863459 856.63086 63.953125 L 856.63086 135.89062 C 856.63086 137.9803 856.73643 139.80775 856.94531 141.375 C 857.15419 142.94225 857.36321 144.24814 857.57227 145.29297 C 858.30363 148.2185 859.50405 150.41223 861.17578 151.875 C 862.74305 153.44225 864.51875 154.59284 866.50391 155.32422 C 868.59358 156.0556 870.78926 156.42188 873.08789 156.42188 C 878.41655 156.42188 882.595 154.90501 885.625 151.875 C 888.34157 149.15843 889.69922 143.72587 889.69922 135.57617 L 889.69922 106.89648 L 877.47461 112.38086 L 877.47461 133.53906 C 877.47461 135.52424 877.42293 137.14464 877.31836 138.39844 C 877.21379 139.65224 877.05654 140.59185 876.84766 141.21875 C 876.42974 143.72635 875.17757 144.98047 873.08789 144.98047 C 871.41616 144.98047 870.37108 143.98714 869.95312 142.00195 C 869.32623 140.74816 869.01172 138.44893 869.01172 135.10547 L 869.01172 64.423828 C 869.01172 61.28933 869.32623 58.990109 869.95312 57.527344 C 870.37108 55.646643 871.41616 54.707031 873.08789 54.707031 C 875.17757 54.707031 876.42974 55.90743 876.84766 58.310547 C 877.05654 59.146412 877.21379 60.191512 877.31836 61.445312 C 877.42293 62.59463 877.47461 64.109536 877.47461 65.990234 L 877.47461 88.089844 C 881.34049 84.955345 885.4154 83.386719 889.69922 83.386719 L 889.69922 63.953125 C 889.69922 59.878275 889.3349 56.587676 888.60352 54.080078 C 887.97662 51.467996 886.98329 49.483282 885.625 48.125 C 882.28155 45.094985 878.04939 43.578125 872.92969 43.578125 z M 1276.0254 43.578125 C 1271.4281 43.578125 1267.5105 44.937734 1264.2715 47.654297 C 1263.3311 48.490165 1262.5468 49.535265 1261.9199 50.789062 C 1261.3975 51.93838 1260.9795 53.190544 1260.666 54.548828 C 1260.4571 55.698142 1260.2481 57.057751 1260.0391 58.625 C 1259.8302 60.087768 1259.7266 61.863459 1259.7266 63.953125 L 1259.7266 135.89062 C 1259.7266 137.9803 1259.8302 139.80775 1260.0391 141.375 C 1260.2479 142.94225 1260.457 144.24814 1260.666 145.29297 C 1261.3974 148.2185 1262.5998 150.41223 1264.2715 151.875 C 1265.8388 153.44225 1267.6144 154.59284 1269.5996 155.32422 C 1271.6893 156.0556 1273.883 156.42188 1276.1816 156.42188 C 1281.5103 156.42188 1285.6907 154.90501 1288.7207 151.875 C 1291.4373 149.15843 1292.7949 143.72587 1292.7949 135.57617 L 1292.7949 106.89648 L 1280.5703 112.38086 L 1280.5703 133.53906 C 1280.5703 135.52424 1280.5186 137.14464 1280.4141 138.39844 C 1280.3095 139.65224 1280.1522 140.59185 1279.9434 141.21875 C 1279.5254 143.72635 1278.2713 144.98047 1276.1816 144.98047 C 1274.5099 144.98047 1273.4648 143.98714 1273.0469 142.00195 C 1272.42 140.74816 1272.1074 138.44893 1272.1074 135.10547 L 1272.1074 64.423828 C 1272.1074 61.28933 1272.42 58.990109 1273.0469 57.527344 C 1273.4648 55.646643 1274.5099 54.707031 1276.1816 54.707031 C 1278.2713 54.707031 1279.5254 55.90743 1279.9434 58.310547 C 1280.1522 59.146412 1280.3095 60.191512 1280.4141 61.445312 C 1280.5186 62.59463 1280.5703 64.109536 1280.5703 65.990234 L 1280.5703 88.089844 C 1284.4362 84.955345 1288.5111 83.386719 1292.7949 83.386719 L 1292.7949 63.953125 C 1292.7949 59.878275 1292.4287 56.587676 1291.6973 54.080078 C 1291.0704 51.467996 1290.079 49.483282 1288.7207 48.125 C 1285.3772 45.094985 1281.1451 43.578125 1276.0254 43.578125 z M 102.44141 44.060547 L 101.67773 44.066406 L 97.761719 87.246094 L 94.742188 85.791016 L 100.44727 96.195312 L 102.44141 44.060547 z M 219.54688 45.146484 C 220.27826 46.191317 220.79983 47.130932 221.11328 47.966797 C 221.53122 48.698181 221.84572 49.32524 222.05469 49.847656 C 222.36814 50.579038 222.52344 51.572372 222.52344 52.826172 C 222.62793 53.975488 222.68164 55.333141 222.68164 56.900391 L 222.68164 144.98047 C 222.68164 147.07013 222.47262 148.68858 222.05469 149.83789 C 221.84573 150.36031 221.58494 150.9356 221.27148 151.5625 C 220.95804 152.08492 220.64353 152.71198 220.33008 153.44336 L 219.54688 154.85352 L 236.62891 154.85352 L 236.00195 153.75586 C 235.27057 152.18861 234.90625 149.94311 234.90625 147.01758 L 234.90625 105.79883 L 242.74219 101.56641 L 242.74219 146.39062 C 242.74219 149.52513 242.4814 151.87611 241.95898 153.44336 L 241.33203 154.85352 L 258.41406 154.85352 L 257.63086 153.44336 C 257.10844 152.71198 256.6904 152.03315 256.37695 151.40625 C 256.168 150.67487 255.90721 150.04781 255.59375 149.52539 C 255.2803 148.16711 255.12305 146.02514 255.12305 143.09961 L 255.12305 56.900391 C 255.12305 53.765892 255.2803 51.623926 255.59375 50.474609 C 256.11617 48.90736 257.05578 47.131666 258.41406 45.146484 L 241.33203 45.146484 C 242.27238 47.23615 242.74219 49.744391 242.74219 52.669922 L 242.74219 87.775391 L 234.90625 92.007812 L 234.90625 53.609375 C 234.90625 52.14661 235.00979 50.735237 235.21875 49.376953 C 235.5322 48.018672 235.89847 46.60925 236.31641 45.146484 L 219.54688 45.146484 z M 280.04297 45.146484 C 273.46052 45.146484 268.96757 47.182965 266.56445 51.257812 C 264.89272 54.601277 264.05664 60.871876 264.05664 70.066406 L 264.05664 149.05469 C 264.05664 156.15955 262.5935 163.00349 259.66797 169.58594 C 260.92177 169.37698 262.12412 168.85541 263.27344 168.01953 C 264.42275 167.18367 265.62315 166.29386 266.87695 165.35352 C 266.98144 165.24902 267.55674 164.5702 268.60156 163.31641 C 269.6464 162.16709 271.21307 160.49493 273.30273 158.30078 C 274.34757 156.73353 276.12326 155.27235 278.63086 153.91406 C 277.89948 153.28716 277.32614 152.29383 276.9082 150.93555 C 276.80371 150.41313 276.75 149.83784 276.75 149.21094 L 276.75 146.70312 L 276.75 127.11328 L 284.74414 123.03906 L 284.74414 142.00195 L 284.74414 146.23438 C 284.74414 147.38369 284.69238 148.37507 284.58789 149.21094 C 284.27444 150.04681 283.90817 150.98837 283.49023 152.0332 C 283.0723 152.97355 282.60249 153.91317 282.08008 154.85352 L 300.73047 154.85352 C 299.2677 152.86833 298.43162 151.19617 298.22266 149.83789 C 297.80472 149.00203 297.54394 148.06241 297.43945 147.01758 C 297.33496 145.86826 297.28125 144.61414 297.28125 143.25586 L 297.28125 55.802734 C 297.28125 54.548934 297.33496 53.400302 297.43945 52.355469 C 297.54394 51.310636 297.80473 50.371021 298.22266 49.535156 C 298.32715 48.699291 299.16323 47.23615 300.73047 45.146484 L 280.04297 45.146484 z M 304.64844 45.146484 C 305.48431 46.086833 306.11136 46.974682 306.5293 47.810547 C 307.05171 48.646415 307.46975 49.430728 307.7832 50.162109 C 308.30562 51.729359 308.56641 54.235644 308.56641 57.683594 L 308.56641 142.31641 C 308.56641 145.76435 308.30562 148.27064 307.7832 149.83789 C 307.46975 150.56927 307.05171 151.35359 306.5293 152.18945 C 306.11136 153.02532 305.48431 153.91317 304.64844 154.85352 L 334.42578 154.85352 C 339.96339 154.85352 342.73242 152.08449 342.73242 146.54688 C 342.73242 141.63615 341.06026 136.88242 337.7168 132.28516 C 337.61231 133.53895 337.50681 134.68759 337.40234 135.73242 C 337.40234 136.67277 337.24705 137.40532 336.93359 137.92773 C 335.78428 141.37568 332.17917 143.09961 326.11914 143.09961 L 320.79102 143.09961 L 320.79102 57.683594 L 320.79102 53.138672 C 320.89551 51.884874 321.10453 50.893493 321.41797 50.162109 C 321.8359 48.908312 322.82728 47.23615 324.39453 45.146484 L 304.64844 45.146484 z M 345.70898 45.146484 C 346.54485 46.086833 347.17191 46.974682 347.58984 47.810547 C 348.11226 48.646415 348.5303 49.430728 348.84375 50.162109 C 349.36617 51.729359 349.62695 54.235644 349.62695 57.683594 L 349.62695 142.31641 C 349.62695 145.76435 349.36617 148.27064 348.84375 149.83789 C 348.5303 150.56927 348.11226 151.35359 347.58984 152.18945 C 347.17191 153.02532 346.54485 153.91317 345.70898 154.85352 L 375.48633 154.85352 C 381.02395 154.85352 383.79297 152.08449 383.79297 146.54688 C 383.79297 141.63615 382.12277 136.88242 378.7793 132.28516 C 378.67473 133.53895 378.56916 134.68759 378.46484 135.73242 C 378.46484 136.67277 378.30759 137.40532 377.99414 137.92773 C 376.84482 141.37568 373.24167 143.09961 367.18164 143.09961 L 361.85156 143.09961 L 361.85156 57.683594 L 361.85156 53.138672 C 361.95605 51.884874 362.16507 50.893493 362.47852 50.162109 C 362.89645 48.908312 363.88978 47.23615 365.45703 45.146484 L 345.70898 45.146484 z M 490.52344 45.146484 C 491.35932 46.086833 491.98638 46.974682 492.4043 47.810547 C 492.92673 48.646415 493.34475 49.430728 493.6582 50.162109 C 494.18061 51.729359 494.44141 54.132112 494.44141 57.371094 L 494.44141 142.31641 C 494.44141 145.76435 494.18061 148.27064 493.6582 149.83789 C 493.34475 150.67376 492.92673 151.50984 492.4043 152.3457 C 491.98638 153.18157 491.35932 154.01765 490.52344 154.85352 L 527.66602 154.85352 L 527.66602 136.20312 C 526.93465 138.2928 526.04679 139.85946 525.00195 140.9043 C 524.06161 141.84465 522.70396 142.31641 520.92773 142.31641 L 506.82227 142.31641 L 506.82227 104.07422 L 514.03125 104.07422 C 516.01643 104.07422 517.68858 104.44048 519.04688 105.17188 C 519.77826 105.58981 520.45709 106.26863 521.08398 107.20898 C 521.71088 108.14933 522.33795 109.2462 522.96484 110.5 L 522.96484 84.013672 C 522.23345 85.371956 521.50285 86.574308 520.77148 87.619141 C 520.0401 88.663973 519.15226 89.394567 518.10742 89.8125 C 517.58502 90.230433 516.85248 90.491219 515.91211 90.595703 L 512.62109 90.595703 L 506.82227 90.595703 L 506.82227 57.371094 L 517.94922 57.371094 C 520.45683 57.371094 522.49526 58.049922 524.0625 59.408203 C 525.62974 60.766487 526.83016 62.804919 527.66602 65.521484 L 527.66602 45.146484 L 490.52344 45.146484 z M 531.27148 45.146484 C 532.10734 46.086833 532.7344 46.974682 533.15234 47.810547 C 533.67475 48.646415 534.0928 49.430728 534.40625 50.162109 C 534.92868 51.729359 535.18945 54.132112 535.18945 57.371094 L 535.18945 142.31641 C 535.18945 145.76435 534.92868 148.27064 534.40625 149.83789 C 534.0928 150.67376 533.67475 151.50984 533.15234 152.3457 C 532.7344 153.18157 532.10734 154.01765 531.27148 154.85352 L 568.41406 154.85352 L 568.41406 136.20312 C 567.68267 138.2928 566.79484 139.85946 565.75 140.9043 C 564.80965 141.84465 563.45198 142.31641 561.67578 142.31641 L 547.57031 142.31641 L 547.57031 104.07422 L 554.7793 104.07422 C 556.76448 104.07422 558.43666 104.44048 559.79492 105.17188 C 560.52631 105.58981 561.20513 106.26863 561.83203 107.20898 C 562.45893 108.14933 563.08599 109.2462 563.71289 110.5 L 563.71289 84.013672 C 562.98153 85.371956 562.25092 86.574308 561.51953 87.619141 C 560.78814 88.663973 559.90031 89.394567 558.85547 89.8125 C 558.33306 90.230433 557.6005 90.491219 556.66016 90.595703 L 553.36914 90.595703 L 547.57031 90.595703 L 547.57031 57.371094 L 558.69727 57.371094 C 561.20486 57.371094 563.2433 58.049922 564.81055 59.408203 C 566.37779 60.766487 567.57818 62.804919 568.41406 65.521484 L 568.41406 45.146484 L 531.27148 45.146484 z M 571.39258 45.146484 C 572.43739 46.295798 573.22171 47.392667 573.74414 48.4375 C 574.37104 49.482333 574.78909 50.421945 574.99805 51.257812 C 575.52048 52.302646 575.78125 53.505 575.78125 54.863281 C 575.88582 56.221565 575.9375 57.841958 575.9375 59.722656 L 575.9375 145.60742 C 575.9375 156.68265 573.95279 165.25052 569.98242 171.31055 L 570.92188 171.31055 C 575.41468 171.31055 579.48956 167.91446 583.14648 161.12305 C 583.66889 160.28718 584.1387 159.50287 584.55664 158.77148 C 585.07905 158.14458 585.60259 157.57124 586.125 157.04883 C 586.54294 156.83987 587.01272 156.57713 587.53516 156.26367 C 588.16205 155.95022 588.89266 155.53218 589.72852 155.00977 C 589.20611 153.75597 588.79001 152.71087 588.47656 151.875 C 588.26768 151.03913 588.05867 150.25677 587.84961 149.52539 C 587.74504 149.00297 587.58779 148.21866 587.37891 147.17383 C 587.27434 146.02451 587.22266 144.66686 587.22266 143.09961 L 587.22266 94.513672 L 598.50586 141.8457 C 599.44621 145.6071 599.91602 148.32436 599.91602 149.99609 C 599.91602 150.83196 599.75876 151.66609 599.44531 152.50195 C 599.23643 153.33782 598.92388 154.12213 598.50586 154.85352 L 616.05859 154.85352 C 615.4317 153.80868 614.9101 152.81535 614.49219 151.875 C 614.17871 150.93465 613.91794 149.94327 613.70898 148.89844 C 613.5001 148.06257 613.29109 147.06924 613.08203 145.91992 C 612.87315 144.66612 612.76758 143.15122 612.76758 141.375 L 612.76758 57.841797 C 612.76758 56.274548 612.87315 54.914939 613.08203 53.765625 C 613.29091 52.511825 613.49993 51.520447 613.70898 50.789062 L 613.86523 50.474609 C 614.07412 49.743225 614.33491 48.960865 614.64844 48.125 C 615.06638 47.184651 615.5899 46.191317 616.2168 45.146484 L 596.93945 45.146484 C 598.82017 47.654083 599.9688 50.005069 600.38672 52.199219 C 600.49129 53.035084 600.5949 54.183719 600.69922 55.646484 C 600.9081 57.10925 601.01367 58.833175 601.01367 60.818359 L 601.01367 107.83594 L 587.22266 45.146484 L 571.39258 45.146484 z M 620.13281 45.146484 C 620.8642 46.191317 621.38772 47.130932 621.70117 47.966797 C 622.11911 48.698181 622.43167 49.32524 622.64062 49.847656 C 622.95408 50.579038 623.11133 51.572372 623.11133 52.826172 C 623.2159 53.975488 623.26758 55.333141 623.26758 56.900391 L 623.26758 144.98047 C 623.26758 147.07013 623.05858 148.68858 622.64062 149.83789 C 622.43174 150.36031 622.17095 150.9356 621.85742 151.5625 C 621.54397 152.08492 621.23142 152.71198 620.91797 153.44336 L 620.13477 154.85352 L 637.2168 154.85352 L 636.58984 153.75586 C 635.85845 152.18861 635.49219 149.94311 635.49219 147.01758 L 635.49219 105.79883 L 643.33008 101.56641 L 643.33008 146.39062 C 643.33008 149.52513 643.06733 151.87611 642.54492 153.44336 L 641.91797 154.85352 L 659.00195 154.85352 L 658.21875 153.44336 C 657.69632 152.71198 657.27829 152.03315 656.96484 151.40625 C 656.75596 150.67487 656.49321 150.04781 656.17969 149.52539 C 655.86624 148.16711 655.71094 146.02514 655.71094 143.09961 L 655.71094 56.900391 C 655.71094 53.765892 655.86624 51.623926 656.17969 50.474609 C 656.70209 48.90736 657.64367 47.131666 659.00195 45.146484 L 641.91797 45.146484 C 642.85832 47.23615 643.33008 49.744391 643.33008 52.669922 L 643.33008 87.775391 L 635.49219 92.007812 L 635.49219 53.609375 C 635.49219 52.14661 635.59776 50.735237 635.80664 49.376953 C 636.12009 48.018672 636.48636 46.60925 636.9043 45.146484 L 620.13281 45.146484 z M 680.62891 45.146484 C 674.04646 45.146484 669.55352 47.182965 667.15039 51.257812 C 665.47866 54.601277 664.64258 60.871876 664.64258 70.066406 L 664.64258 149.05469 C 664.64258 156.15955 663.18139 163.00349 660.25586 169.58594 C 661.50965 169.37698 662.71004 168.85541 663.85938 168.01953 C 665.00868 167.18367 666.21102 166.29386 667.46484 165.35352 C 667.56941 165.24902 668.14472 164.5702 669.18945 163.31641 C 670.23429 162.16709 671.80097 160.49493 673.89062 158.30078 C 674.93547 156.73353 676.71113 155.27235 679.21875 153.91406 C 678.48736 153.28716 677.91208 152.29383 677.49414 150.93555 C 677.38957 150.41313 677.33789 149.83784 677.33789 149.21094 L 677.33789 146.70312 L 677.33789 127.11328 L 685.33203 123.03906 L 685.33203 142.00195 L 685.33203 146.23438 C 685.33203 147.38369 685.2784 148.37507 685.17383 149.21094 C 684.86038 150.04681 684.49605 150.98837 684.07812 152.0332 C 683.66018 152.97355 683.18842 153.91317 682.66602 154.85352 L 701.31641 154.85352 C 699.85363 152.86833 699.01755 151.19617 698.80859 149.83789 C 698.39065 149.00203 698.12988 148.06241 698.02539 147.01758 C 697.92082 145.86826 697.86914 144.61414 697.86914 143.25586 L 697.86914 55.802734 C 697.86914 54.548934 697.92082 53.400302 698.02539 52.355469 C 698.12996 51.310636 698.39073 50.371021 698.80859 49.535156 C 698.91316 48.699291 699.74924 47.23615 701.31641 45.146484 L 680.62891 45.146484 z M 704.92188 45.146484 C 706.80257 47.027182 707.7959 48.593856 707.90039 49.847656 C 708.52729 51.310422 708.83984 53.766897 708.83984 57.214844 L 708.83984 136.35938 L 708.83984 141.53125 C 708.94441 143.0985 709.10166 144.40634 709.31055 145.45117 C 709.72849 146.80945 710.1983 148.06162 710.7207 149.21094 C 711.3476 150.25577 712.18368 151.19734 713.22852 152.0332 C 716.15405 154.95873 720.17719 156.42188 725.29688 156.42188 C 730.20759 156.42188 734.17701 154.95873 737.20703 152.0332 C 739.9236 149.10767 741.2832 143.88217 741.2832 136.35938 L 741.28125 136.35938 L 741.28125 58.310547 L 741.28125 53.453125 C 741.38582 52.094843 741.59486 51.049743 741.9082 50.318359 C 742.01277 48.75111 743.10962 47.027182 745.19922 45.146484 L 726.08008 45.146484 C 727.43834 46.504766 728.27442 48.176928 728.58789 50.162109 C 728.79677 50.684526 728.95207 51.572372 729.05664 52.826172 C 729.16121 53.975488 729.21484 55.38491 729.21484 57.056641 L 729.21484 134.94922 C 729.21484 138.39717 728.90034 140.79992 728.27344 142.1582 C 727.75103 144.14338 726.65416 145.13672 724.98242 145.13672 C 723.41518 145.13672 722.3183 144.1971 721.69141 142.31641 C 721.16897 141.06261 720.9082 138.86692 720.9082 135.73242 L 720.9082 58.310547 C 720.9082 56.220881 720.95989 54.550675 721.06445 53.296875 C 721.16902 52.043077 721.2207 51.153276 721.2207 50.630859 C 721.53415 48.645675 722.37025 46.818215 723.72852 45.146484 L 704.92188 45.146484 z M 894.71484 45.146484 C 895.44621 46.191317 895.9678 47.130932 896.28125 47.966797 C 896.69919 48.698181 897.0137 49.32524 897.22266 49.847656 C 897.53611 50.579038 897.69336 51.572372 897.69336 52.826172 C 897.79793 53.975488 897.84961 55.333141 897.84961 56.900391 L 897.84961 144.98047 C 897.84961 147.07013 897.6406 148.68858 897.22266 149.83789 C 897.01377 150.36031 896.75298 150.9356 896.43945 151.5625 C 896.126 152.08492 895.8115 152.71198 895.49805 153.44336 L 894.71484 154.85352 L 911.79883 154.85352 L 911.17188 153.75586 C 910.44048 152.18861 910.07422 149.94311 910.07422 147.01758 L 910.07422 105.79883 L 917.91016 101.56641 L 917.91016 146.39062 C 917.91016 149.52513 917.64936 151.87611 917.12695 153.44336 L 916.5 154.85352 L 933.58203 154.85352 L 932.79883 153.44336 C 932.2764 152.71198 931.85837 152.03315 931.54492 151.40625 C 931.33604 150.67487 931.07524 150.04781 930.76172 149.52539 C 930.44827 148.16711 930.29102 146.02514 930.29102 143.09961 L 930.29102 56.900391 C 930.29102 53.765892 930.44827 51.623926 930.76172 50.474609 C 931.28413 48.90736 932.22374 47.131666 933.58203 45.146484 L 916.5 45.146484 C 917.44035 47.23615 917.91016 49.744391 917.91016 52.669922 L 917.91016 87.775391 L 910.07422 92.007812 L 910.07422 53.609375 C 910.07422 52.14661 910.17784 50.735237 910.38672 49.376953 C 910.70017 48.018672 911.06645 46.60925 911.48438 45.146484 L 894.71484 45.146484 z M 937.6582 45.146484 C 939.85234 47.758566 941.15823 49.795047 941.57617 51.257812 C 941.88962 51.78023 942.09866 52.825329 942.20312 54.392578 C 942.3077 55.855344 942.35937 57.736523 942.35938 60.035156 L 942.35938 145.91992 C 942.35938 149.05442 942.20212 151.82345 941.88867 154.22656 C 941.67979 156.52519 941.47078 158.45814 941.26172 160.02539 C 940.8438 161.90609 940.21674 163.83904 939.38086 165.82422 C 938.64947 167.8094 937.70985 169.84783 936.56055 171.9375 C 938.96367 171.51957 941.20918 170.4227 943.29883 168.64648 C 943.82126 168.12407 944.55379 167.23427 945.49414 165.98047 C 946.43449 164.83115 947.6349 163.31624 949.09766 161.43555 C 951.60527 158.09208 954.53155 155.89835 957.875 154.85352 L 956.46484 152.0332 C 956.15139 151.30182 955.8906 150.77829 955.68164 150.46484 C 955.2637 148.89759 955.05469 147.01837 955.05469 144.82422 L 955.05469 65.990234 C 955.05469 62.751252 955.20999 60.505751 955.52344 59.251953 C 955.94138 58.416085 956.41119 57.789026 956.93359 57.371094 C 957.45603 56.848677 958.18856 56.587891 959.12891 56.587891 C 960.80064 56.587891 961.89752 57.579271 962.41992 59.564453 C 962.73337 60.400321 962.89063 61.393655 962.89062 62.542969 C 962.9952 63.692285 963.04687 65.155424 963.04688 66.931641 L 963.04688 134.63672 C 963.04688 135.995 962.9952 137.24912 962.89062 138.39844 C 962.89062 139.44327 962.73337 140.22563 962.41992 140.74805 C 962.21104 142.00185 961.32318 143.25597 959.75586 144.50977 C 962.5769 146.8084 964.50985 148.68958 965.55469 150.15234 C 966.91297 152.03304 968.21886 155.16639 969.47266 159.55469 C 970.30851 157.36054 971.03912 155.53308 971.66602 154.07031 C 972.3974 152.50306 973.07818 151.19718 973.70508 150.15234 C 974.22751 149.42096 974.90633 148.58488 975.74219 147.64453 C 976.68253 146.70418 977.93471 145.50183 979.50195 144.03906 C 978.6661 143.20319 977.98728 142.4726 977.46484 141.8457 C 977.04693 141.2188 976.68259 140.64351 976.36914 140.12109 C 976.16026 139.38971 975.95125 138.55363 975.74219 137.61328 C 975.53331 136.67293 975.42773 135.47253 975.42773 134.00977 L 975.42773 66.304688 L 975.42773 62.228516 C 975.5323 60.974715 975.74134 59.983335 976.05469 59.251953 C 976.68159 57.475736 977.83217 56.587891 979.50391 56.587891 C 981.07115 56.587891 982.168 57.579271 982.79492 59.564453 C 983.0038 60.400321 983.1591 61.393655 983.26367 62.542969 C 983.47255 63.692285 983.57814 65.155424 983.57812 66.931641 L 983.57812 143.41211 C 983.57814 146.44212 983.42087 148.58409 983.10742 149.83789 C 982.79397 151.09169 981.9579 152.76385 980.59961 154.85352 L 999.7207 154.85352 C 998.04897 152.76385 997.16113 151.03992 997.05664 149.68164 C 996.42974 148.11439 996.11523 145.71164 996.11523 142.47266 L 996.11523 58.625 C 996.11523 54.968085 996.42974 52.356313 997.05664 50.789062 C 997.47458 49.326297 998.57139 47.445115 1000.3477 45.146484 L 973.86133 45.146484 L 968.53125 52.042969 L 963.35938 45.146484 L 937.6582 45.146484 z M 1022.916 45.146484 C 1016.3336 45.146484 1011.8406 47.182965 1009.4375 51.257812 C 1007.7658 54.601277 1006.9297 60.871876 1006.9297 70.066406 L 1006.9297 149.05469 C 1006.9297 156.15955 1005.4666 163.00349 1002.541 169.58594 C 1003.7948 169.37698 1004.9972 168.85541 1006.1465 168.01953 C 1007.2958 167.18367 1008.4962 166.29386 1009.75 165.35352 C 1009.8546 165.24902 1010.4299 164.5702 1011.4746 163.31641 C 1012.5194 162.16709 1014.0861 160.49493 1016.1758 158.30078 C 1017.2206 156.73353 1018.9982 155.27235 1021.5059 153.91406 C 1020.7745 153.28716 1020.1993 152.29383 1019.7812 150.93555 C 1019.6767 150.41313 1019.625 149.83784 1019.625 149.21094 L 1019.625 146.70312 L 1019.625 127.11328 L 1027.6172 123.03906 L 1027.6172 142.00195 L 1027.6172 146.23438 C 1027.6172 147.38369 1027.5655 148.37507 1027.4609 149.21094 C 1027.1475 150.04681 1026.7812 150.98837 1026.3633 152.0332 C 1025.9453 152.97355 1025.4755 153.91317 1024.9531 154.85352 L 1043.6035 154.85352 C 1042.1407 152.86833 1041.3047 151.19617 1041.0957 149.83789 C 1040.6778 149.00203 1040.417 148.06241 1040.3125 147.01758 C 1040.2079 145.86826 1040.1543 144.61414 1040.1543 143.25586 L 1040.1543 55.802734 C 1040.1543 54.548934 1040.2079 53.400302 1040.3125 52.355469 C 1040.4171 51.310636 1040.6778 50.371021 1041.0957 49.535156 C 1041.2003 48.699291 1042.0363 47.23615 1043.6035 45.146484 L 1022.916 45.146484 z M 1047.5215 45.146484 C 1048.3573 46.086833 1048.9844 46.974682 1049.4023 47.810547 C 1049.9248 48.646415 1050.3428 49.430728 1050.6562 50.162109 C 1051.1788 51.729359 1051.4395 54.235644 1051.4395 57.683594 L 1051.4395 142.31641 C 1051.4395 145.76435 1051.1788 148.27064 1050.6562 149.83789 C 1050.3428 150.56927 1049.9248 151.35359 1049.4023 152.18945 C 1048.9844 153.02532 1048.3573 153.91317 1047.5215 154.85352 L 1077.2988 154.85352 C 1082.8364 154.85352 1085.6055 152.08449 1085.6055 146.54688 C 1085.6055 141.63615 1083.9333 136.88242 1080.5898 132.28516 C 1080.4853 133.53895 1080.3817 134.68759 1080.2773 135.73242 C 1080.2773 136.67277 1080.1201 137.40532 1079.8066 137.92773 C 1078.6573 141.37568 1075.0522 143.09961 1068.9922 143.09961 L 1063.6641 143.09961 L 1063.6641 57.683594 L 1063.6641 53.138672 C 1063.7686 51.884874 1063.9776 50.893493 1064.291 50.162109 C 1064.7089 48.908312 1065.7003 47.23615 1067.2676 45.146484 L 1047.5215 45.146484 z M 1088.4258 45.146484 C 1089.2616 46.086833 1089.8887 46.974682 1090.3066 47.810547 C 1090.8291 48.646415 1091.2471 49.430728 1091.5605 50.162109 C 1092.083 51.729359 1092.3438 54.132112 1092.3438 57.371094 L 1092.3438 142.31641 C 1092.3438 145.76435 1092.083 148.27064 1091.5605 149.83789 C 1091.2471 150.67376 1090.8291 151.50984 1090.3066 152.3457 C 1089.8887 153.18157 1089.2616 154.01765 1088.4258 154.85352 L 1125.5703 154.85352 L 1125.5703 136.20312 C 1124.8389 138.2928 1123.9512 139.85946 1122.9062 140.9043 C 1121.9659 141.84465 1120.6063 142.31641 1118.8301 142.31641 L 1104.7266 142.31641 L 1104.7266 104.07422 L 1111.9355 104.07422 C 1113.9207 104.07422 1115.5909 104.44048 1116.9492 105.17188 C 1117.6806 105.58981 1118.3614 106.26863 1118.9883 107.20898 C 1119.6152 108.14933 1120.2422 109.2462 1120.8691 110.5 L 1120.8691 84.013672 C 1120.1378 85.371956 1119.4052 86.574308 1118.6738 87.619141 C 1117.9424 88.663973 1117.0546 89.394567 1116.0098 89.8125 C 1115.4873 90.230433 1114.7568 90.491219 1113.8164 90.595703 L 1110.5254 90.595703 L 1104.7266 90.595703 L 1104.7266 57.371094 L 1115.8535 57.371094 C 1118.3611 57.371094 1120.3976 58.049922 1121.9648 59.408203 C 1123.5321 60.766487 1124.7345 62.804919 1125.5703 65.521484 L 1125.5703 45.146484 L 1088.4258 45.146484 z M 1128.5469 45.146484 C 1129.5917 46.295798 1130.376 47.392667 1130.8984 48.4375 C 1131.5253 49.482333 1131.9434 50.421945 1132.1523 51.257812 C 1132.6748 52.302646 1132.9355 53.505 1132.9355 54.863281 C 1133.0401 56.221565 1133.0918 57.841958 1133.0918 59.722656 L 1133.0918 145.60742 C 1133.0918 156.68265 1131.1071 165.25052 1127.1367 171.31055 L 1128.0781 171.31055 C 1132.5709 171.31055 1136.6458 167.91446 1140.3027 161.12305 C 1140.8251 160.28718 1141.295 159.50287 1141.7129 158.77148 C 1142.2353 158.14458 1142.7569 157.57124 1143.2793 157.04883 C 1143.6972 156.83987 1144.167 156.57713 1144.6895 156.26367 C 1145.3164 155.95022 1146.0489 155.53218 1146.8848 155.00977 C 1146.3624 153.75597 1145.9443 152.71087 1145.6309 151.875 C 1145.422 151.03913 1145.213 150.25677 1145.0039 149.52539 C 1144.8993 149.00297 1144.7421 148.21866 1144.5332 147.17383 C 1144.4286 146.02451 1144.377 144.66686 1144.377 143.09961 L 1144.377 94.513672 L 1155.6602 141.8457 C 1156.6005 145.6071 1157.0723 148.32436 1157.0723 149.99609 C 1157.0723 150.83196 1156.915 151.66609 1156.6016 152.50195 C 1156.3927 153.33782 1156.0782 154.12213 1155.6602 154.85352 L 1173.2148 154.85352 C 1172.5879 153.80868 1172.0644 152.81535 1171.6465 151.875 C 1171.333 150.93465 1171.0723 149.94327 1170.8633 148.89844 C 1170.6544 148.06257 1170.4454 147.06924 1170.2363 145.91992 C 1170.0274 144.66612 1169.9238 143.15122 1169.9238 141.375 L 1169.9238 57.841797 C 1169.9238 56.274548 1170.0274 54.914939 1170.2363 53.765625 C 1170.4452 52.511825 1170.6542 51.520447 1170.8633 50.789062 L 1171.0195 50.474609 C 1171.2284 49.743225 1171.4892 48.960865 1171.8027 48.125 C 1172.2207 47.184651 1172.7442 46.191317 1173.3711 45.146484 L 1154.0938 45.146484 C 1155.9744 47.654083 1157.1231 50.005069 1157.541 52.199219 C 1157.6456 53.035084 1157.7512 54.183719 1157.8555 55.646484 C 1158.0644 57.10925 1158.168 58.833175 1158.168 60.818359 L 1158.168 107.83594 L 1144.377 45.146484 L 1128.5469 45.146484 z M 1177.2891 45.146484 C 1179.4832 47.340631 1180.5801 50.892019 1180.5801 55.802734 L 1180.5801 140.5918 C 1180.5801 142.68146 1180.5284 144.45716 1180.4238 145.91992 L 1180.4238 149.05469 C 1180.1104 149.99504 1179.6923 150.98837 1179.1699 152.0332 C 1178.752 152.97355 1178.1249 153.91317 1177.2891 154.85352 L 1198.4473 154.85352 C 1205.3432 154.85352 1209.7306 153.18136 1211.6113 149.83789 C 1212.9696 147.74823 1213.6484 143.83056 1213.6484 138.08398 L 1213.6484 116.92578 C 1213.6484 113.37335 1213.4931 110.44902 1213.1797 108.15039 C 1212.9708 105.85176 1212.7081 104.1796 1212.3945 103.13477 C 1211.3497 100.62717 1208.9469 99.060494 1205.1855 98.433594 C 1207.5886 97.70221 1209.5734 96.133583 1211.1406 93.730469 C 1212.3944 91.536319 1213.0215 87.879446 1213.0215 82.759766 L 1213.0215 68.341797 C 1213.0215 60.192102 1212.2909 54.705815 1210.8281 51.884766 C 1209.4698 48.959235 1206.4918 46.922754 1201.8945 45.773438 C 1201.0587 45.564479 1199.7528 45.407228 1197.9766 45.302734 C 1196.3048 45.198243 1194.3201 45.146484 1192.0215 45.146484 L 1177.2891 45.146484 z M 1218.3516 45.146484 C 1219.1874 46.086833 1219.8125 46.974682 1220.2305 47.810547 C 1220.7529 48.646415 1221.1709 49.430728 1221.4844 50.162109 C 1222.0068 51.729359 1222.2695 54.132112 1222.2695 57.371094 L 1222.2695 142.31641 C 1222.2695 145.76435 1222.0068 148.27064 1221.4844 149.83789 C 1221.1709 150.67376 1220.7529 151.50984 1220.2305 152.3457 C 1219.8125 153.18157 1219.1874 154.01765 1218.3516 154.85352 L 1255.4941 154.85352 L 1255.4941 136.20312 C 1254.7628 138.2928 1253.8749 139.85946 1252.8301 140.9043 C 1251.8897 141.84465 1250.5321 142.31641 1248.7559 142.31641 L 1234.6504 142.31641 L 1234.6504 104.07422 L 1241.8594 104.07422 C 1243.8446 104.07422 1245.5167 104.44048 1246.875 105.17188 C 1247.6064 105.58981 1248.2852 106.26863 1248.9121 107.20898 C 1249.539 108.14933 1250.1661 109.2462 1250.793 110.5 L 1250.793 84.013672 C 1250.0616 85.371956 1249.329 86.574308 1248.5977 87.619141 C 1247.8663 88.663973 1246.9784 89.394567 1245.9336 89.8125 C 1245.4112 90.230433 1244.6806 90.491219 1243.7402 90.595703 L 1240.4492 90.595703 L 1234.6504 90.595703 L 1234.6504 57.371094 L 1245.7773 57.371094 C 1248.2849 57.371094 1250.3234 58.049922 1251.8906 59.408203 C 1253.4579 60.766487 1254.6583 62.804919 1255.4941 65.521484 L 1255.4941 45.146484 L 1218.3516 45.146484 z M 1297.8105 45.146484 C 1299.5868 47.445115 1300.6299 49.117277 1300.9434 50.162109 C 1301.4658 51.729359 1301.7285 54.132112 1301.7285 57.371094 L 1301.7285 142.31641 C 1301.7285 144.09262 1301.6749 145.55381 1301.5703 146.70312 C 1301.4657 147.85245 1301.3104 148.79401 1301.1016 149.52539 C 1300.6836 150.88367 1299.5848 152.65937 1297.8086 154.85352 L 1317.5566 154.85352 C 1316.8253 153.59972 1316.1982 152.39931 1315.6758 151.25 C 1315.2578 149.9962 1314.9453 148.89738 1314.7363 147.95703 C 1314.5274 146.9122 1314.3184 145.76357 1314.1094 144.50977 C 1314.0048 143.25597 1313.9512 141.79283 1313.9512 140.12109 L 1313.9512 103.60547 L 1324.6094 137.30078 C 1324.8183 138.34561 1325.079 139.28523 1325.3926 140.12109 C 1325.706 140.95696 1325.9668 141.79304 1326.1758 142.62891 C 1326.6982 143.8827 1327.0127 144.97957 1327.1172 145.91992 C 1327.2218 146.75579 1327.2734 147.59187 1327.2734 148.42773 C 1327.2734 149.47257 1327.1162 150.51767 1326.8027 151.5625 C 1326.5939 152.50285 1326.124 153.59972 1325.3926 154.85352 L 1346.5508 154.85352 C 1345.5059 154.01765 1344.6181 153.1298 1343.8867 152.18945 C 1343.2598 151.2491 1342.6328 150.204 1342.0059 149.05469 C 1341.9013 148.53227 1341.5887 147.59266 1341.0664 146.23438 C 1340.544 144.87608 1339.8632 142.83766 1339.0273 140.12109 L 1324.7656 95.298828 L 1335.1094 62.386719 C 1335.9452 59.774637 1336.626 57.63267 1337.1484 55.960938 C 1337.7753 54.18472 1338.2969 52.878834 1338.7148 52.042969 C 1339.2373 50.789168 1339.9679 49.638583 1340.9082 48.59375 C 1341.953 47.444433 1343.1036 46.295798 1344.3574 45.146484 L 1323.9824 45.146484 C 1324.4003 46.295798 1324.7148 47.392667 1324.9238 48.4375 C 1325.2373 49.377852 1325.3926 50.317463 1325.3926 51.257812 C 1325.3926 52.093679 1325.1318 53.453284 1324.6094 55.333984 C 1324.087 57.110199 1323.4081 59.3557 1322.5723 62.072266 L 1313.9531 88.558594 L 1313.9531 59.408203 C 1313.9531 53.557142 1314.9963 48.803399 1317.0859 45.146484 L 1297.8105 45.146484 z M 151.9043 50.21875 L 110.06836 77.177734 L 109.95508 54.023438 L 151.9043 50.21875 z M 50.333984 50.666016 L 93.736328 54.804688 L 93.064453 75.611328 L 50.333984 50.666016 z M 155.70703 53.351562 L 132.2168 104.58398 L 101.45508 122.70508 L 101.67773 109.05859 L 115.10156 79.191406 L 155.70703 53.351562 z M 404.16797 55.019531 C 405.73521 55.019531 406.78033 56.116398 407.30273 58.310547 C 407.51162 59.041928 407.66692 60.035262 407.77148 61.289062 C 407.87605 62.542864 407.92969 64.05777 407.92969 65.833984 L 407.92969 134.32227 C 407.92969 136.09848 407.87605 137.61339 407.77148 138.86719 C 407.66692 140.0165 407.51162 140.90435 407.30273 141.53125 C 406.88479 143.62092 405.83968 144.66602 404.16797 144.66602 C 402.28725 144.66602 401.03315 143.7264 400.40625 141.8457 C 400.30168 141.11432 400.19806 140.22647 400.09375 139.18164 C 399.98918 138.13681 399.93555 136.72544 399.93555 134.94922 L 399.93555 65.050781 C 399.93555 63.274567 399.98918 61.863192 400.09375 60.818359 C 400.19832 59.773527 400.30194 58.833915 400.40625 57.998047 C 401.03315 56.012865 402.28725 55.019531 404.16797 55.019531 z M 279.72852 56.429688 L 284.74414 56.429688 L 284.74414 110.1875 L 276.75 114.26172 L 276.75 64.109375 C 276.75 58.989695 277.74333 56.429687 279.72852 56.429688 z M 680.31641 56.429688 L 685.33203 56.429688 L 685.33203 110.1875 L 677.33789 114.26172 L 677.33789 64.109375 C 677.33789 58.989695 678.33122 56.429687 680.31641 56.429688 z M 1022.6016 56.429688 L 1027.6172 56.429688 L 1027.6172 110.1875 L 1019.625 114.26172 L 1019.625 64.109375 C 1019.625 58.989695 1020.6164 56.429687 1022.6016 56.429688 z M 1193.4316 57.683594 L 1196.5664 57.683594 C 1199.1785 57.683594 1200.4844 59.461241 1200.4844 63.013672 L 1200.4844 86.521484 C 1200.4844 90.178399 1199.1785 92.007813 1196.5664 92.007812 L 1193.4316 92.007812 L 1193.4316 57.683594 z M 1193.4316 104.54492 L 1196.5664 104.54492 C 1199.1785 104.54492 1200.4844 106.21708 1200.4844 109.56055 L 1200.4844 138.08398 C 1200.4844 141.84538 1199.1785 143.72656 1196.5664 143.72656 L 1193.4316 143.72656 L 1193.4316 104.54492 z M 67.5625 122.44336 L 96.830078 193.63086 L 130.68359 123.86719 L 121.0332 130.35156 L 116.91992 124.3418 L 114.86328 133.99023 L 108.53516 138.26172 L 104.26367 131.30273 L 102.36523 143.00781 L 99.517578 144.74805 L 93.980469 140.16016 L 93.349609 132.4082 L 89.078125 136.83984 L 85.28125 134.7832 L 82.433594 123.86719 L 79.585938 130.66797 L 67.5625 122.44336 z M 121.66602 134.14844 L 97.302734 184.45703 L 99.361328 148.22852 L 121.66602 134.14844 z "
       transform="scale(0.26458333)" />
  </g>
</svg>
