<?xml version="1.0" encoding="UTF-8" standalone="no"?>
<svg
   width="100%"
   height="100%"
   viewBox="0 0 24 24"
   version="1.1"
   id="svg3"
   sodipodi:docname="block-references.svg"
   inkscape:version="1.1.1 (3bf5ae0d25, 2021-09-20)"
   xmlns:inkscape="http://www.inkscape.org/namespaces/inkscape"
   xmlns:sodipodi="http://sodipodi.sourceforge.net/DTD/sodipodi-0.dtd"
   xmlns="http://www.w3.org/2000/svg"
   xmlns:svg="http://www.w3.org/2000/svg">
  <path
     fill="currentColor"
     d="m 2.2695312,1.0644531 c -0.6633054,0 -1.2050781,0.5417725 -1.2050781,1.2050781 V 5.0117188 H 1.546875 V 2.2695312 c 0,-0.4046521 0.318004,-0.7226562 0.7226562,-0.7226562 H 21.730469 c 0.404652,0 0.722656,0.3180039 0.722656,0.7226562 v 5.4375 h 0.482422 v -5.4375 c 0,-0.6633054 -0.541772,-1.2050781 -1.205078,-1.2050781 z M 1.0644531,5.0117188 V 21.730469 c 0,0.663305 0.5417727,1.205078 1.2050781,1.205078 H 21.730469 c 0.663306,0 1.205078,-0.541773 1.205078,-1.205078 V 7.7070312 H 22.453125 V 21.730469 c 0,0.404652 -0.318004,0.722656 -0.722656,0.722656 H 2.2695312 c -0.4046521,0 -0.7226562,-0.318004 -0.7226562,-0.722656 V 5.0117188 Z"
     id="path923"
     sodipodi:nodetypes="ssccssssccssscssssccsssscc" />
  <g
     id="g3207"
     transform="translate(0,3.4614412)">
    <g
       id="g3475"
       transform="translate(0.04235292)">
      <path
         style="fill:none;stroke:#000000;stroke-width:1.5;stroke-linecap:round;stroke-linejoin:round;stroke-miterlimit:4;stroke-dasharray:none;stroke-opacity:1"
         d="M 3.7991909,6.1519087 H 9.8384563"
         id="path2909" />
      <path
         style="fill:none;stroke:#000000;stroke-width:1.5;stroke-linecap:round;stroke-linejoin:round;stroke-miterlimit:4;stroke-dasharray:none;stroke-opacity:1"
         d="M 3.7991909,8.0630511 H 9.8384563"
         id="path3057" />
      <path
         style="fill:none;stroke:#000000;stroke-width:1.5;stroke-linecap:round;stroke-linejoin:round;stroke-miterlimit:4;stroke-dasharray:none;stroke-opacity:1"
         d="M 3.7991909,9.8894871 H 9.8384563"
         id="path3059" />
      <path
         style="fill:none;stroke:#000000;stroke-width:0.89882;stroke-linecap:round;stroke-linejoin:round;stroke-miterlimit:4;stroke-dasharray:none;stroke-opacity:1"
         d="M 4.6296125,11.526511 H 9.008035"
         id="path3061" />
      <rect
         style="fill:none;stroke:#000000;stroke-width:0.464682;stroke-linecap:round;stroke-linejoin:round;stroke-miterlimit:4;stroke-dasharray:none;stroke-opacity:1"
         id="rect3344"
         width="8.9013691"
         height="10.023529"
         x="2.368139"
         y="3.7950292"
         ry="1.157647" />
    </g>
    <g
       id="g3487"
       transform="translate(10.32)">
      <path
         style="fill:none;stroke:#000000;stroke-width:1.5;stroke-linecap:round;stroke-linejoin:round;stroke-miterlimit:4;stroke-dasharray:none;stroke-opacity:1"
         d="M 3.7991909,6.1519087 H 9.8384563"
         id="path3477" />
      <path
         style="fill:none;stroke:#000000;stroke-width:1.5;stroke-linecap:round;stroke-linejoin:round;stroke-miterlimit:4;stroke-dasharray:none;stroke-opacity:1"
         d="M 3.7991909,8.0630511 H 9.8384563"
         id="path3479" />
      <path
         style="fill:none;stroke:#000000;stroke-width:1.5;stroke-linecap:round;stroke-linejoin:round;stroke-miterlimit:4;stroke-dasharray:none;stroke-opacity:1"
         d="M 3.7991909,9.8894871 H 9.8384563"
         id="path3481" />
      <path
         style="fill:none;stroke:#000000;stroke-width:0.89882;stroke-linecap:round;stroke-linejoin:round;stroke-miterlimit:4;stroke-dasharray:none;stroke-opacity:1"
         d="M 4.6296125,11.526511 H 9.008035"
         id="path3483" />
      <rect
         style="fill:none;stroke:#000000;stroke-width:0.464682;stroke-linecap:round;stroke-linejoin:round;stroke-miterlimit:4;stroke-dasharray:none;stroke-opacity:1"
         id="rect3485"
         width="8.9013691"
         height="10.023529"
         x="2.368139"
         y="3.7950292"
         ry="1.157647" />
    </g>
  </g>
</svg>
