<?xml version="1.0" encoding="UTF-8" standalone="no"?>
<svg
   width="100%"
   height="100%"
   viewBox="0 0 24 24"
   version="1.1"
   id="svg3"
   sodipodi:docname="block-image.svg"
   inkscape:version="1.1.1 (3bf5ae0d25, 2021-09-20)"
   xmlns:inkscape="http://www.inkscape.org/namespaces/inkscape"
   xmlns:sodipodi="http://sodipodi.sourceforge.net/DTD/sodipodi-0.dtd"
   xmlns="http://www.w3.org/2000/svg"
   xmlns:svg="http://www.w3.org/2000/svg">
  <defs
     id="defs7" />
  <sodipodi:namedview
     id="namedview5"
     pagecolor="#505050"
     bordercolor="#ffffff"
     borderopacity="1"
     inkscape:pageshadow="0"
     inkscape:pageopacity="0"
     inkscape:pagecheckerboard="1"
     showgrid="false"
     inkscape:zoom="35.416667"
     inkscape:cx="11.985882"
     inkscape:cy="12.014118"
     inkscape:window-width="1920"
     inkscape:window-height="1009"
     inkscape:window-x="1912"
     inkscape:window-y="-8"
     inkscape:window-maximized="1"
     inkscape:current-layer="svg3" />
  <path
     fill="currentColor"
     d="m 3.287207,5.7590713 c -0.5407913,0 -0.9737168,0.4362089 -0.9737168,0.9769834 V 17.263944 c 0,0.540793 0.4329422,0.976985 0.9737168,0.976985 h 17.422318 c 0.540792,0 0.976985,-0.436192 0.976985,-0.976985 V 6.7360547 c 0,-0.5407919 -0.436211,-0.9769834 -0.976985,-0.9769834 z M 4.7575824,7.4451028 H 19.23915 c 0.394625,0 0.709048,0.3209574 0.709048,0.7155823 v 7.6786299 c 0,0.394626 -0.314423,0.715582 -0.709048,0.715582 h -1.800393 l -4.469943,-4.466676 -2.578058,4.466676 H 4.7575824 c -0.3946247,0 -0.7090477,-0.320956 -0.7090477,-0.715582 V 8.1606851 c 0,-0.3946249 0.314423,-0.7155823 0.7090477,-0.7155823 z M 7.345444,8.5887283 C 6.1507222,8.5889218 5.1825513,9.5570941 5.1823572,10.751814 5.1806886,11.947848 6.1494094,12.921241 7.345444,12.921435 8.5414774,12.921241 9.5101955,11.947848 9.5085304,10.751814 9.5083369,9.5570941 8.5401634,8.5889218 7.345444,8.5887283 Z m 9.158807,0.2744695 -2.048724,3.5452402 -0.254865,0.375762 3.342654,3.355724 h 1.738312 c 0.233159,-0.01505 0.269384,-0.174155 0.254864,-0.369228 l 0.0034,-3.871989 z"
     id="block-textimage"
     sodipodi:nodetypes="sssssssssssssscccssssccccccccccccc"
     style="stroke-width:1.67296" />
  <path
     fill="currentColor"
     d="m 2.2695312,1.0644531 c -0.6633054,0 -1.2050781,0.5417725 -1.2050781,1.2050781 V 5.0117188 H 1.546875 V 2.2695312 c 0,-0.4046521 0.318004,-0.7226562 0.7226562,-0.7226562 H 21.730469 c 0.404652,0 0.722656,0.3180039 0.722656,0.7226562 v 5.4375 h 0.482422 v -5.4375 c 0,-0.6633054 -0.541772,-1.2050781 -1.205078,-1.2050781 z M 1.0644531,5.0117188 V 21.730469 c 0,0.663305 0.5417727,1.205078 1.2050781,1.205078 H 21.730469 c 0.663306,0 1.205078,-0.541773 1.205078,-1.205078 V 7.7070312 H 22.453125 V 21.730469 c 0,0.404652 -0.318004,0.722656 -0.722656,0.722656 H 2.2695312 c -0.4046521,0 -0.7226562,-0.318004 -0.7226562,-0.722656 V 5.0117188 Z"
     id="path923"
     sodipodi:nodetypes="ssccssssccssscssssccsssscc" />
</svg>
