<?xml version="1.0" encoding="UTF-8" standalone="no"?>
<!DOCTYPE svg PUBLIC "-//W3C//DTD SVG 1.1//EN" "http://www.w3.org/Graphics/SVG/1.1/DTD/svg11.dtd">
<svg width="100%" height="100%" viewBox="0 0 325 305" version="1.1" xmlns="http://www.w3.org/2000/svg" xmlns:xlink="http://www.w3.org/1999/xlink" xml:space="preserve" xmlns:serif="http://www.serif.com/" style="fill-rule:evenodd;clip-rule:evenodd;stroke-linejoin:round;stroke-miterlimit:2;">
    <path fill="white" id="path836" d="M65.047,303.623c-0.525,-0.211 -1.453,-1.349 -2.063,-2.529c-0.919,-1.778 -1.109,-6.824 -1.109,-29.505l-0,-27.36l-42.375,-0.479l-4.154,-2.042c-5.302,-2.606 -10.698,-8.002 -13.304,-13.305l-2.042,-4.153l0,-204.75l1.976,-4.215c2.676,-5.706 6.448,-9.686 12.073,-12.736l4.701,-2.549l287.25,0l4.701,2.549c5.625,3.05 9.397,7.03 12.073,12.736l1.976,4.215l-0,204.75l-2.042,4.154c-2.606,5.302 -8.002,10.698 -13.304,13.304l-4.154,2.042l-162.931,0.407l-10.409,8.827c-63.728,54.041 -60.149,51.145 -63.122,51.082c-1.534,-0.033 -3.217,-0.232 -3.741,-0.443l-0,-0Zm0.262,-164.207l7.882,-4.209l8.418,4.334c9.249,4.762 11.401,4.983 13.74,1.414c1.164,-1.777 1.145,-2.479 -0.297,-11.051l-1.54,-9.154l6.681,-6.764c5.537,-5.605 6.682,-7.165 6.682,-9.105c-0,-4.472 -1.661,-5.444 -11.813,-6.92c-5.052,-0.734 -9.27,-1.475 -9.374,-1.648c-0.103,-0.172 -1.97,-3.912 -4.148,-8.31c-3.337,-6.738 -4.327,-8.125 -6.285,-8.807c-3.982,-1.389 -5.781,0.132 -10.115,8.554c-2.123,4.125 -4.19,7.862 -4.593,8.304c-0.402,0.442 -4.234,1.244 -8.514,1.782c-8.82,1.109 -11.681,2.25 -12.353,4.928c-0.829,3.303 0.276,5.18 6.797,11.545l6.402,6.249l-1.52,8.911c-1.374,8.051 -1.412,9.121 -0.393,11.09c2.188,4.231 4.646,4.035 14.343,-1.143Zm88.818,0.083l8.227,-4.126l8.514,4.238c9.336,4.647 11.432,4.852 13.731,1.343c1.163,-1.775 1.145,-2.48 -0.287,-11.05l-1.529,-9.154l6.671,-6.837c6.656,-6.821 7.515,-8.465 6.205,-11.88c-0.785,-2.046 -4.068,-3.176 -12.192,-4.197c-4.28,-0.538 -8.112,-1.34 -8.514,-1.782c-0.403,-0.442 -2.47,-4.179 -4.593,-8.304c-2.769,-5.381 -4.443,-7.777 -5.923,-8.479c-3.635,-1.724 -5.669,-0.017 -10.094,8.479c-2.149,4.125 -4.021,7.8 -4.16,8.166c-0.139,0.366 -4.455,1.277 -9.591,2.023c-10.284,1.494 -11.967,2.46 -11.967,6.87c-0,1.846 1.256,3.548 6.749,9.15l6.75,6.883l-1.5,8.161c-0.824,4.489 -1.499,8.786 -1.499,9.551c-0,1.866 3.305,5.071 5.228,5.071c0.851,-0 5.249,-1.857 9.774,-4.126Zm89.276,-0.014l8.253,-4.139l8.126,4.139c10.115,5.152 11.826,5.281 14.014,1.05c1.003,-1.94 0.962,-3.054 -0.405,-11.067l-1.52,-8.911l6.402,-6.249c6.521,-6.365 7.626,-8.243 6.797,-11.546c-0.672,-2.677 -3.533,-3.818 -12.353,-4.927c-4.28,-0.538 -8.112,-1.34 -8.514,-1.782c-0.403,-0.442 -2.47,-4.179 -4.593,-8.304c-4.342,-8.436 -6.13,-9.944 -10.137,-8.547c-2.011,0.701 -2.9,1.985 -6.244,9.017c-2.797,5.883 -4.334,8.294 -5.439,8.531c-0.847,0.181 -5.084,0.831 -9.415,1.443c-8.741,1.236 -10.5,2.356 -10.5,6.687c0,1.94 1.144,3.497 6.692,9.105l6.692,6.764l-1.436,8.25c-0.789,4.537 -1.438,8.856 -1.441,9.596c-0.009,1.828 3.315,5.029 5.221,5.029c0.851,-0 5.261,-1.863 9.8,-4.139l0,-0Z"/>
</svg>
