<?xml version="1.0" encoding="UTF-8" standalone="no"?><!DOCTYPE svg PUBLIC "-//W3C//DTD SVG 1.1//EN" "http://www.w3.org/Graphics/SVG/1.1/DTD/svg11.dtd"><svg width="100%" height="100%" viewBox="0 0 68 68" version="1.1" xmlns="http://www.w3.org/2000/svg" xmlns:xlink="http://www.w3.org/1999/xlink" xml:space="preserve" xmlns:serif="http://www.serif.com/" style="fill-rule:evenodd;clip-rule:evenodd;stroke-linejoin:round;stroke-miterlimit:2;"><path id="shop" d="M20.06,24.112l2.844,-18.877l-14.793,-0l-6.181,16.18c-0.19,0.576 -0.291,1.172 -0.291,1.798c0,3.97 4.135,7.191 9.245,7.191c4.71,0 8.604,-2.747 9.176,-6.292Zm13.94,6.292c5.106,0 9.244,-3.221 9.244,-7.191c0,-0.147 -0.01,-0.295 -0.018,-0.435l-1.83,-17.543l-14.792,-0l-1.834,17.529c-0.007,0.147 -0.014,0.294 -0.014,0.449c-0,3.97 4.138,7.191 9.244,7.191Zm17.978,3.761l0,14.218l-35.956,-0l-0,-14.196c-1.575,0.568 -3.308,0.892 -5.138,0.892c-0.702,-0 -1.381,-0.083 -2.054,-0.176l0,22.828c0,2.769 2.262,5.034 5.027,5.034l40.279,0c2.768,0 5.034,-2.269 5.034,-5.034l-0,-22.825c-0.676,0.09 -1.352,0.176 -2.054,0.176c-1.819,-0.003 -3.559,-0.334 -5.138,-0.917Zm14.095,-12.75l-6.188,-16.18l-14.789,-0l2.841,18.848c0.553,3.56 4.448,6.321 9.179,6.321c5.106,0 9.245,-3.221 9.245,-7.191c-0,-0.626 -0.101,-1.222 -0.288,-1.798Z" style="fill:#fff;fill-rule:nonzero;"/></svg>