<?xml version="1.0" encoding="UTF-8" standalone="no"?><!DOCTYPE svg PUBLIC "-//W3C//DTD SVG 1.1//EN" "http://www.w3.org/Graphics/SVG/1.1/DTD/svg11.dtd"><svg width="100%" height="100%" viewBox="0 0 283 283" version="1.1" xmlns="http://www.w3.org/2000/svg" xmlns:xlink="http://www.w3.org/1999/xlink" xml:space="preserve" xmlns:serif="http://www.serif.com/" style="fill-rule:evenodd;clip-rule:evenodd;stroke-linejoin:round;stroke-miterlimit:2;"><path id="shop" d="M83.587,100.421l11.815,-78.423l-61.456,-0l-25.679,67.218c-0.789,2.393 -1.209,4.869 -1.209,7.47c0,16.493 17.179,29.875 38.408,29.875c19.567,-0 35.745,-11.413 38.121,-26.14Zm57.913,26.14c21.213,-0 38.404,-13.382 38.404,-29.875c-0,-0.611 -0.042,-1.226 -0.075,-1.807l-7.603,-72.881l-61.452,-0l-7.619,72.823c-0.03,0.61 -0.059,1.221 -0.059,1.865c0,16.493 17.191,29.875 38.404,29.875Zm74.689,15.624l-0,59.068l-149.378,0l0,-58.976c-6.543,2.36 -13.742,3.706 -21.345,3.706c-2.916,-0 -5.737,-0.345 -8.533,-0.732l-0,94.838c-0,11.504 9.397,20.913 20.884,20.913l167.337,0c11.499,0 20.913,-9.426 20.913,-20.913l0,-94.825c-2.808,0.374 -5.617,0.731 -8.533,0.731c-7.557,-0.012 -14.786,-1.387 -21.345,-3.81Zm58.556,-52.969l-25.707,-67.218l-61.44,-0l11.802,78.302c2.298,14.79 18.479,26.261 38.134,26.261c21.213,-0 38.408,-13.382 38.408,-29.875c-0,-2.601 -0.42,-5.077 -1.197,-7.47Z" style="fill:#5589a7;fill-rule:nonzero;"/></svg>