<?xml version="1.0" encoding="UTF-8" standalone="no"?><!DOCTYPE svg PUBLIC "-//W3C//DTD SVG 1.1//EN" "http://www.w3.org/Graphics/SVG/1.1/DTD/svg11.dtd">
<svg width="100%" height="100%" viewBox="0 0 283 283" version="1.1"
    xmlns="http://www.w3.org/2000/svg"
    xmlns:xlink="http://www.w3.org/1999/xlink" xml:space="preserve"
    xmlns:serif="http://www.serif.com/" style="fill-rule:evenodd;clip-rule:evenodd;stroke-linejoin:round;stroke-miterlimit:2;">
    <path d="M272.586,106.825l-0,87.168c-0,24.054 -19.529,43.583 -43.584,43.583l-175.782,0c-24.054,0 -43.584,-19.529 -43.584,-43.583l0,-87.168c0,-24.054 19.53,-43.583 43.584,-43.583l175.782,-0c24.055,-0 43.584,19.529 43.584,43.583Zm-204.583,-19.974c0,-2.364 -1.92,-4.284 -4.284,-4.284l-30.082,0c-2.365,0 -4.284,1.92 -4.284,4.284l-0,8.569c-0,2.365 1.919,4.285 4.284,4.285l30.082,-0c2.364,-0 4.284,-1.92 4.284,-4.285l0,-8.569Zm73.108,-0.981c-35.62,-0 -64.539,28.919 -64.539,64.539c-0,35.62 28.919,64.539 64.539,64.539c35.62,0 64.539,-28.919 64.539,-64.539c0,-35.62 -28.919,-64.539 -64.539,-64.539Z" style="fill:#ffffff;"/>
    <path d="M251.782,45.193l0,36.098c0,5.433 -4.411,9.845 -9.845,9.845l-33.181,-0c-5.433,-0 -9.845,-4.412 -9.845,-9.845l0,-36.098c0,-5.434 4.412,-9.845 9.845,-9.845l33.181,-0c5.434,-0 9.845,4.411 9.845,9.845Z" style="fill:#ffffff;"/>
    <circle cx="141.111" cy="150.409" r="48.131" style="fill:#ffffff;"/>
</svg>
