<?xml version="1.0" encoding="UTF-8" standalone="no"?><!DOCTYPE svg PUBLIC "-//W3C//DTD SVG 1.1//EN" "http://www.w3.org/Graphics/SVG/1.1/DTD/svg11.dtd"><svg width="100%" height="100%" viewBox="0 0 284 284" version="1.1" xmlns="http://www.w3.org/2000/svg" xmlns:xlink="http://www.w3.org/1999/xlink" xml:space="preserve" xmlns:serif="http://www.serif.com/" style="fill-rule:evenodd;clip-rule:evenodd;stroke-linecap:round;stroke-linejoin:round;stroke-miterlimit:1.5;"><path d="M60.826,157.235l-0,-94.105c-0,-1.64 0.644,-3.214 1.794,-4.383l34.008,-34.571c1.174,-1.195 2.78,-1.867 4.455,-1.867l115.175,-0c3.452,-0 6.25,2.798 6.25,6.25l-0,91.375l-8.881,8.88l-3.619,-3.619l-0,-90.386l-106.306,-0l-30.376,30.88l-0,79.046l-12.5,12.5Zm161.682,-7.838l-0,105.378c-0,3.451 -2.798,6.25 -6.25,6.25l-149.182,-0c-3.452,-0 -6.25,-2.799 -6.25,-6.25l-0,-68.077l12.5,-12.5l-0,74.327l136.682,-0l-0,-95.209c3.697,1.367 8.015,0.565 10.985,-2.405l1.515,-1.514Z" style="fill:#5589a7;"/><path d="M21.607,211.185l63.13,-63.13l42.838,42.838l66.7,-66.7l19.352,19.353l48.099,-48.099" style="fill:none;stroke:#5589a7;stroke-width:8.33px;"/><path d="M67.549,63.235l32.948,0l-0,-34.872" style="fill:none;stroke:#5589a7;stroke-width:12.5px;"/><circle cx="107.982" cy="111.834" r="11.273" style="fill:none;stroke:#5589a7;stroke-width:12.5px;"/><circle cx="167.73" cy="81.021" r="19.54" style="fill:none;stroke:#5589a7;stroke-width:12.5px;"/><circle cx="178.628" cy="211.185" r="12.776" style="fill:none;stroke:#5589a7;stroke-width:12.5px;"/><circle cx="96.799" cy="207.487" r="3.698" style="fill:none;stroke:#5589a7;stroke-width:12.5px;"/></svg>