<?xml version="1.0" encoding="UTF-8" standalone="no"?><!DOCTYPE svg PUBLIC "-//W3C//DTD SVG 1.1//EN" "http://www.w3.org/Graphics/SVG/1.1/DTD/svg11.dtd">
<svg width="100%" height="100%" viewBox="0 0 284 284" version="1.1"
    xmlns="http://www.w3.org/2000/svg"
    xmlns:xlink="http://www.w3.org/1999/xlink" xml:space="preserve"
    xmlns:serif="http://www.serif.com/" style="fill-rule:evenodd;clip-rule:evenodd;stroke-linejoin:round;stroke-miterlimit:2;">
    <path d="M88.451,74.595c0.119,-13.881 5.685,-27.168 15.509,-36.993c9.932,-9.931 23.405,-15.511 37.45,-15.511c14.046,0 27.519,5.58 37.45,15.511c9.825,9.825 15.391,23.112 15.509,36.993l-42.83,-0l-0,9.728l42.832,0l0,9.551l-42.832,0l-0,9.729l42.832,-0l0,9.197l-42.832,0l-0,9.728l42.832,0l0,9.161c0,14.045 -5.579,27.515 -15.511,37.447c-9.931,9.931 -23.404,15.51 -37.45,15.51c-14.045,0 -27.518,-5.579 -37.45,-15.51c-9.931,-9.932 -15.511,-23.402 -15.511,-37.447l0,-9.161l43.987,0l0,-9.728l-43.987,0l0,-9.197l43.987,-0l0,-9.729l-43.987,0l0,-9.551l43.987,0l0,-9.728l-43.985,-0Zm96.653,167.723c5.018,-0 9.832,1.993 13.38,5.542c3.549,3.549 5.543,8.363 5.543,13.382l-124.344,0c-0,-5.019 1.994,-9.833 5.542,-13.382c3.549,-3.549 8.362,-5.542 13.381,-5.542l86.498,-0Zm-57.841,-35.671c-76.092,-10.324 -62.396,-103.406 -62.396,-103.406c0.395,-2.613 2.837,-4.414 5.45,-4.019c2.613,0.395 4.413,2.837 4.018,5.45c0,0 -14.529,93.326 67.28,93.326c19.503,-0 33.566,-5.234 43.619,-13.375c15.128,-12.25 21.134,-30.865 23.43,-46.984c2.614,-18.349 0.355,-33.641 0.355,-33.641c-0.389,-2.614 1.417,-5.052 4.031,-5.441c2.614,-0.389 5.052,1.417 5.441,4.031c-0,-0 13.538,93.558 -62.398,104.035l0,25.79l-28.83,-0l-0,-25.766Z" style="fill:#5589A7;"/>
</svg>
