<?xml version="1.0" encoding="UTF-8" standalone="no"?><!DOCTYPE svg PUBLIC "-//W3C//DTD SVG 1.1//EN" "http://www.w3.org/Graphics/SVG/1.1/DTD/svg11.dtd">
<svg width="100%" height="100%" viewBox="0 0 325 305" version="1.1"
    xmlns="http://www.w3.org/2000/svg"
    xmlns:xlink="http://www.w3.org/1999/xlink" xml:space="preserve"
    xmlns:serif="http://www.serif.com/" style="fill-rule:evenodd;clip-rule:evenodd;stroke-linejoin:round;stroke-miterlimit:2;">
    <path d="M115.478,56.137l-0,10.977l-30.238,-0l-0,-10.977l30.238,-0Zm30.337,-46.713l0,37.299l-90.498,-0l-0,-37.299l90.498,0Zm137.628,67.32l-0,58.508l-238.434,0l0,-58.508l238.434,0Zm-30.445,29.254c-0,-2.657 -2.158,-4.815 -4.815,-4.815l-60.01,-0c-2.658,-0 -4.815,2.158 -4.815,4.815c-0,2.658 2.157,4.815 4.815,4.815l60.01,0c2.657,0 4.815,-2.157 4.815,-4.815Zm-100.034,-9.192c0,-1.928 -1.565,-3.493 -3.493,-3.493l-79.43,-0c-1.927,-0 -3.493,1.565 -3.493,3.493l0,18.384c0,1.928 1.566,3.494 3.493,3.494l79.43,-0c1.928,-0 3.493,-1.566 3.493,-3.494l0,-18.384Zm-129.85,171.625c2.489,2.217 5.91,3.831 10.86,4.456l257.605,-0.055c4.405,-0.227 7.83,-1.856 10.614,-4.401l-0.032,15.887c-0.012,6.144 -4.996,11.118 -11.139,11.119l-256.788,0.05c-6.121,0.001 -11.086,-4.955 -11.096,-11.076l-0.024,-15.98Zm22.637,-123.305l238.175,0l18.295,102.316c0.663,3.707 -0.35,7.517 -2.767,10.404c-2.417,2.888 -5.989,4.556 -9.755,4.556l-254.07,-0c-3.72,-0 -7.239,-1.683 -9.575,-4.578c-2.335,-2.894 -3.236,-6.69 -2.449,-10.326l22.146,-102.372Zm186.971,19.548l2.252,25.261c0.061,0.684 0.392,1.34 0.92,1.822c0.528,0.482 1.209,0.751 1.893,0.747l22.712,-0.132c0.857,-0.005 1.644,-0.358 2.181,-0.978c0.536,-0.621 0.777,-1.455 0.665,-2.311l-3.225,-24.802c-0.126,-0.973 -0.998,-1.74 -1.971,-1.734l-23.63,0.141c-1.091,0.006 -1.895,0.894 -1.797,1.986Zm-173.673,53.034l-4.308,25.213c-0.122,0.717 0.059,1.424 0.499,1.949c0.44,0.526 1.099,0.823 1.818,0.819l25.344,-0.134c1.698,-0.009 3.212,-1.359 3.426,-3.056l3.145,-24.899c0.062,-0.491 -0.078,-0.968 -0.388,-1.32c-0.31,-0.353 -0.763,-0.55 -1.255,-0.547l-26.141,0.142c-1.033,0.006 -1.964,0.803 -2.14,1.833Zm119.149,0.169l0.14,25.271c0.008,1.416 1.16,2.559 2.576,2.556l86.895,-0.154c0.918,-0.002 1.79,-0.403 2.389,-1.1c0.598,-0.696 0.864,-1.618 0.728,-2.526l-3.699,-24.661c-0.133,-0.887 -0.896,-1.542 -1.793,-1.541l-85.255,0.159c-0.528,0.001 -1.033,0.212 -1.405,0.587c-0.372,0.374 -0.579,0.881 -0.576,1.409Zm-55.166,-53.559l-2.067,25.151c-0.061,0.753 0.221,1.527 0.772,2.113c0.55,0.587 1.312,0.923 2.076,0.919l22.771,-0.132c1.566,-0.009 2.773,-1.165 2.837,-2.715l1.033,-25.042c0.022,-0.521 -0.187,-1.048 -0.573,-1.444c-0.386,-0.396 -0.91,-0.622 -1.435,-0.619l-23.637,0.141c-0.954,0.006 -1.7,0.69 -1.777,1.628Zm54.824,0.193l0.019,25.21c0,0.719 0.305,1.429 0.838,1.958c0.534,0.529 1.249,0.828 1.969,0.823l22.764,-0.131c1.686,-0.01 2.956,-1.343 2.886,-3.028l-1.036,-24.911c-0.021,-0.494 -0.244,-0.975 -0.617,-1.331c-0.373,-0.356 -0.864,-0.556 -1.358,-0.553l-23.65,0.141c-1.028,0.006 -1.816,0.797 -1.815,1.822Zm-59.304,53.197l-1.94,25.218c-0.055,0.716 0.192,1.423 0.682,1.949c0.489,0.526 1.177,0.823 1.895,0.819l25.331,-0.135c1.698,-0.009 3.084,-1.358 3.139,-3.055l0.806,-24.904c0.016,-0.491 -0.169,-0.968 -0.511,-1.32c-0.343,-0.353 -0.815,-0.55 -1.307,-0.547l-26.128,0.142c-1.032,0.006 -1.888,0.803 -1.967,1.833Zm-49.882,-53.369l-4.588,25.157c-0.137,0.75 0.065,1.517 0.55,2.097c0.485,0.58 1.205,0.912 1.965,0.908l22.788,-0.132c1.579,-0.009 2.922,-1.183 3.143,-2.749l3.542,-25.028c0.073,-0.518 -0.081,-1.04 -0.423,-1.431c-0.341,-0.392 -0.837,-0.615 -1.36,-0.612l-23.655,0.141c-0.962,0.005 -1.789,0.701 -1.962,1.649Z" style="fill:#5589A7;"/>
</svg>
