<?xml version="1.0" encoding="UTF-8" standalone="no"?>
<!DOCTYPE svg PUBLIC "-//W3C//DTD SVG 1.1//EN" "http://www.w3.org/Graphics/SVG/1.1/DTD/svg11.dtd">
<svg width="100%" height="100%" viewBox="0 0 68 68" version="1.1" xmlns="http://www.w3.org/2000/svg" xmlns:xlink="http://www.w3.org/1999/xlink" xml:space="preserve" xmlns:serif="http://www.serif.com/" style="fill-rule:evenodd;clip-rule:evenodd;stroke-linejoin:round;stroke-miterlimit:2;">
    <g transform="matrix(1.01111,0,0,1.00952,-1.16463,-3.55778)">
        <path d="M48.793,11.941C50.268,11.941 51.684,12.529 52.727,13.574C53.771,14.619 54.357,16.037 54.357,17.515L54.357,58.354C54.544,59.887 54.923,61.292 55.744,62.401L8.116,62.401C5.787,62.401 3.898,60.509 3.898,58.176L3.898,17.475C3.898,14.419 6.372,11.941 9.423,11.941L48.793,11.941ZM27.756,23.326C27.756,22.442 27.04,21.725 26.157,21.725L11.106,21.725C10.223,21.725 9.507,22.442 9.507,23.326L9.507,37.203C9.507,38.088 10.223,38.805 11.106,38.805L26.157,38.805C27.04,38.805 27.756,38.088 27.756,37.203L27.756,23.326ZM24.558,24.928L24.558,35.602L12.706,35.602L12.706,24.928L24.558,24.928ZM11.106,52.855L47.347,52.855C48.23,52.855 48.946,52.138 48.946,51.254C48.946,50.37 48.23,49.652 47.347,49.652L11.106,49.652C10.224,49.652 9.507,50.37 9.507,51.254C9.507,52.138 10.224,52.855 11.106,52.855ZM33.128,38.773L47.347,38.773C48.23,38.773 48.946,38.055 48.946,37.171C48.946,36.287 48.23,35.569 47.347,35.569L33.128,35.569C32.245,35.569 31.529,36.287 31.529,37.171C31.529,38.055 32.245,38.773 33.128,38.773ZM33.128,24.928L47.347,24.928C48.23,24.928 48.946,24.21 48.946,23.326C48.946,22.442 48.23,21.725 47.347,21.725L33.128,21.725C32.245,21.725 31.529,22.442 31.529,23.326C31.529,24.21 32.245,24.928 33.128,24.928ZM33.128,31.867L47.347,31.867C48.23,31.867 48.946,31.149 48.946,30.265C48.946,29.381 48.23,28.663 47.347,28.663L33.128,28.663C32.245,28.663 31.529,29.381 31.529,30.265C31.529,31.149 32.245,31.867 33.128,31.867ZM11.106,45.755L47.347,45.755C48.23,45.755 48.946,45.037 48.946,44.153C48.946,43.269 48.23,42.551 47.347,42.551L11.106,42.551C10.224,42.551 9.507,43.269 9.507,44.153C9.507,45.037 10.224,45.755 11.106,45.755ZM61.308,18.844C62.448,18.844 63.541,19.297 64.347,20.104C65.153,20.912 65.606,22.006 65.606,23.148L65.606,58.354C65.606,60.589 63.797,62.401 61.566,62.401L61.407,62.401C59.089,62.401 57.209,60.518 57.209,58.196L57.209,18.844L61.308,18.844Z" style="fill:white;"/>
    </g>
</svg>
