<?xml version="1.0" encoding="UTF-8" standalone="no"?><!DOCTYPE svg PUBLIC "-//W3C//DTD SVG 1.1//EN" "http://www.w3.org/Graphics/SVG/1.1/DTD/svg11.dtd"><svg width="100%" height="100%" viewBox="0 0 284 284" version="1.1" xmlns="http://www.w3.org/2000/svg" xmlns:xlink="http://www.w3.org/1999/xlink" xml:space="preserve" xmlns:serif="http://www.serif.com/" style="fill-rule:evenodd;clip-rule:evenodd;stroke-linejoin:round;stroke-miterlimit:2;"><path d="M220.27,91.136c3.181,0 5.848,-1.076 8,-3.228c2.153,-2.152 3.229,-4.819 3.229,-8.001c-0,-3.181 -1.076,-5.848 -3.229,-8.001c-2.152,-2.152 -4.819,-3.228 -8,-3.228c-3.182,0 -5.849,1.076 -8.001,3.228c-2.152,2.153 -3.228,4.82 -3.228,8.001c-0,3.182 1.076,5.849 3.228,8.001c2.152,2.152 4.819,3.228 8.001,3.228Zm-44.916,0c3.181,0 5.848,-1.076 8,-3.228c2.153,-2.152 3.229,-4.819 3.229,-8.001c-0,-3.181 -1.076,-5.848 -3.229,-8.001c-2.152,-2.152 -4.819,-3.228 -8,-3.228c-3.182,0 -5.849,1.076 -8.001,3.228c-2.152,2.153 -3.228,4.82 -3.228,8.001c-0,3.182 1.076,5.849 3.228,8.001c2.152,2.152 4.819,3.228 8.001,3.228Zm-5.615,38.179l56.145,-0c0,-6.55 -2.854,-11.744 -8.562,-15.58c-5.708,-3.837 -12.211,-5.755 -19.51,-5.755c-7.299,-0 -13.803,1.918 -19.511,5.755c-5.708,3.836 -8.562,9.03 -8.562,15.58Zm-84.217,124.642c-18.715,-0 -34.623,-6.551 -47.724,-19.651c-13.1,-13.101 -19.65,-29.008 -19.65,-47.723l-0,-78.603l134.748,-0l-0,78.603c-0,18.715 -6.551,34.622 -19.651,47.723c-13.101,13.1 -29.008,19.651 -47.723,19.651Zm-0,-22.458c12.352,-0 22.926,-4.398 31.722,-13.194c8.796,-8.796 13.194,-19.37 13.194,-31.722l-0,-56.145l-89.832,-0l-0,56.145c-0,12.352 4.398,22.926 13.194,31.722c8.796,8.796 19.37,13.194 31.722,13.194Zm112.29,-56.145c-4.866,-0 -9.685,-0.515 -14.458,-1.544c-4.772,-1.03 -9.31,-2.574 -13.615,-4.632l0,-26.388c4.117,3.181 8.562,5.661 13.335,7.439c4.772,1.778 9.685,2.667 14.738,2.667c12.352,-0 22.926,-4.398 31.722,-13.194c8.796,-8.796 13.194,-19.37 13.194,-31.722l-0,-56.145l-89.832,-0l-0,39.301l-22.458,0l-0,-61.759l134.748,-0l-0,78.603c-0,18.715 -6.551,34.622 -19.651,47.723c-13.101,13.1 -29.008,19.651 -47.723,19.651Zm-134.748,-5.615c3.181,0 5.848,-1.076 8,-3.228c2.153,-2.152 3.229,-4.819 3.229,-8.001c-0,-3.181 -1.076,-5.848 -3.229,-8c-2.152,-2.153 -4.819,-3.229 -8,-3.229c-3.182,0 -5.849,1.076 -8.001,3.229c-2.152,2.152 -3.228,4.819 -3.228,8c-0,3.182 1.076,5.849 3.228,8.001c2.152,2.152 4.819,3.228 8.001,3.228Zm44.916,0c3.181,0 5.848,-1.076 8,-3.228c2.153,-2.152 3.229,-4.819 3.229,-8.001c-0,-3.181 -1.076,-5.848 -3.229,-8c-2.152,-2.153 -4.819,-3.229 -8,-3.229c-3.182,0 -5.849,1.076 -8.001,3.229c-2.152,2.152 -3.228,4.819 -3.228,8c-0,3.182 1.076,5.849 3.228,8.001c2.152,2.152 4.819,3.228 8.001,3.228Zm-22.458,38.179c7.299,-0 13.802,-1.919 19.51,-5.755c5.708,-3.837 8.562,-9.03 8.562,-15.58l-56.145,-0c0,6.55 2.854,11.743 8.562,15.58c5.708,3.836 12.212,5.755 19.511,5.755Z" style="fill:#fff;fill-rule:nonzero;"/></svg>