<?xml version="1.0" encoding="UTF-8" standalone="no"?><!DOCTYPE svg PUBLIC "-//W3C//DTD SVG 1.1//EN" "http://www.w3.org/Graphics/SVG/1.1/DTD/svg11.dtd"><svg width="100%" height="100%" viewBox="0 0 284 284" version="1.1" xmlns="http://www.w3.org/2000/svg" xmlns:xlink="http://www.w3.org/1999/xlink" xml:space="preserve" xmlns:serif="http://www.serif.com/" style="fill-rule:evenodd;clip-rule:evenodd;stroke-linejoin:round;stroke-miterlimit:2;"><path d="M227.435,86.53c3.471,-0 6.381,-1.174 8.73,-3.523c2.348,-2.348 3.522,-5.258 3.522,-8.73c0,-3.471 -1.174,-6.381 -3.522,-8.73c-2.349,-2.348 -5.259,-3.522 -8.73,-3.522c-3.472,-0 -6.382,1.174 -8.73,3.522c-2.349,2.349 -3.523,5.259 -3.523,8.73c0,3.472 1.174,6.382 3.523,8.73c2.348,2.349 5.258,3.523 8.73,3.523Zm-49.011,-0c3.472,-0 6.382,-1.174 8.73,-3.523c2.349,-2.348 3.523,-5.258 3.523,-8.73c0,-3.471 -1.174,-6.381 -3.523,-8.73c-2.348,-2.348 -5.258,-3.522 -8.73,-3.522c-3.471,-0 -6.381,1.174 -8.73,3.522c-2.348,2.349 -3.522,5.259 -3.522,8.73c-0,3.472 1.174,6.382 3.522,8.73c2.349,2.349 5.259,3.523 8.73,3.523Zm-6.126,41.659l61.263,-0c0,-7.148 -3.114,-12.814 -9.342,-17.001c-6.229,-4.186 -13.325,-6.279 -21.289,-6.279c-7.965,-0 -15.061,2.093 -21.289,6.279c-6.229,4.187 -9.343,9.853 -9.343,17.001Zm-91.894,136.004c-20.421,-0 -37.779,-7.148 -52.074,-21.442c-14.295,-14.295 -21.442,-31.653 -21.442,-52.074l0,-85.768l147.031,-0l0,85.768c0,20.421 -7.147,37.779 -21.442,52.074c-14.294,14.294 -31.652,21.442 -52.073,21.442Zm-0,-24.506c13.478,0 25.015,-4.798 34.613,-14.396c9.598,-9.598 14.397,-21.136 14.397,-34.614l0,-61.263l-98.021,0l0,61.263c0,13.478 4.799,25.016 14.397,34.614c9.598,9.598 21.136,14.396 34.614,14.396Zm122.526,-61.263c-5.31,0 -10.568,-0.561 -15.776,-1.684c-5.207,-1.123 -10.159,-2.808 -14.856,-5.054l0,-28.794c4.493,3.471 9.343,6.177 14.55,8.117c5.207,1.94 10.568,2.91 16.082,2.91c13.478,0 25.015,-4.799 34.613,-14.397c9.598,-9.597 14.397,-21.135 14.397,-34.613l0,-61.263l-98.021,-0l0,42.884l-24.505,-0l0,-67.389l147.031,-0l0,85.768c0,20.421 -7.147,37.779 -21.442,52.073c-14.294,14.295 -31.652,21.442 -52.073,21.442Zm-147.032,-6.126c3.472,0 6.382,-1.174 8.73,-3.522c2.349,-2.349 3.523,-5.259 3.523,-8.73c0,-3.472 -1.174,-6.382 -3.523,-8.73c-2.348,-2.349 -5.258,-3.523 -8.73,-3.523c-3.471,-0 -6.381,1.174 -8.73,3.523c-2.348,2.348 -3.522,5.258 -3.522,8.73c-0,3.471 1.174,6.381 3.522,8.73c2.349,2.348 5.259,3.522 8.73,3.522Zm49.011,0c3.471,0 6.381,-1.174 8.73,-3.522c2.348,-2.349 3.522,-5.259 3.522,-8.73c0,-3.472 -1.174,-6.382 -3.522,-8.73c-2.349,-2.349 -5.259,-3.523 -8.73,-3.523c-3.472,-0 -6.382,1.174 -8.73,3.523c-2.349,2.348 -3.523,5.258 -3.523,8.73c0,3.471 1.174,6.381 3.523,8.73c2.348,2.348 5.258,3.522 8.73,3.522Zm-24.505,41.659c7.964,0 15.06,-2.093 21.289,-6.279c6.228,-4.187 9.342,-9.854 9.342,-17.001l-61.263,0c0,7.147 3.114,12.814 9.343,17.001c6.228,4.186 13.324,6.279 21.289,6.279Z" style="fill:#5589a7;fill-rule:nonzero;"/></svg>