<?xml version="1.0" encoding="UTF-8" standalone="no"?><!DOCTYPE svg PUBLIC "-//W3C//DTD SVG 1.1//EN" "http://www.w3.org/Graphics/SVG/1.1/DTD/svg11.dtd"><svg width="100%" height="100%" viewBox="0 0 283 283" version="1.1" xmlns="http://www.w3.org/2000/svg" xmlns:xlink="http://www.w3.org/1999/xlink" xml:space="preserve" xmlns:serif="http://www.serif.com/" style="fill-rule:evenodd;clip-rule:evenodd;stroke-linejoin:round;stroke-miterlimit:2;"><path d="M22.972,190.736l-0,-85.541c-0,-8.854 7.188,-16.043 16.043,-16.043l32.087,-0c8.855,-0 16.044,7.189 16.044,16.043l0,73.224l-20.187,-13.817c-3.807,-2.605 -8.873,-2.397 -12.452,0.512l-31.535,25.622Zm86.052,-1.377l-0,-15.249c-0,-8.855 7.189,-16.044 16.043,-16.044l32.088,0c1.019,0 2.015,0.096 2.982,0.277l-51.113,31.016Zm86.052,-100.536l0,-39.781c0,-8.854 7.189,-16.043 16.044,-16.043l32.087,-0c8.855,-0 16.044,7.189 16.044,16.043l-0,101.749l-34.978,-88.618c-1.586,-4.019 -5.489,-6.641 -9.809,-6.591c-4.321,0.049 -8.162,2.761 -9.655,6.816l-9.733,26.425Zm64.175,118.713l-0,25.644c-0,8.854 -7.189,16.043 -16.044,16.043l-32.087,0c-8.855,0 -16.044,-7.189 -16.044,-16.043l0,-84.079l19.844,-53.878l44.304,112.246c0.009,0.022 0.018,0.045 0.027,0.067Zm-86.053,-32.75l0,58.394c0,8.854 -7.189,16.043 -16.043,16.043l-32.088,0c-8.854,0 -16.043,-7.189 -16.043,-16.043l-0,-19.711c0.668,-0.236 1.318,-0.542 1.94,-0.919l62.234,-37.764Zm-86.052,28.879l0,29.515c0,8.854 -7.189,16.043 -16.044,16.043l-32.087,0c-8.855,0 -16.043,-7.189 -16.043,-16.043l-0,-15.601l38.637,-31.393l25.537,17.479Zm-74.636,17.046c-2.677,2.175 -6.617,1.767 -8.792,-0.91c-2.175,-2.677 -1.768,-6.617 0.91,-8.792l52.506,-42.661c2.148,-1.745 5.188,-1.87 7.471,-0.307l41.159,28.17l69.799,-42.355l33.156,-90.018c0.896,-2.433 3.201,-4.06 5.793,-4.09c2.592,-0.03 4.933,1.544 5.885,3.955l54.33,137.647c1.266,3.209 -0.311,6.842 -3.519,8.108c-3.209,1.267 -6.842,-0.31 -8.108,-3.519c-0,0 -48.314,-122.406 -48.314,-122.406l-28.248,76.693c-0.489,1.328 -1.413,2.45 -2.622,3.184l-75.114,45.578c-2.098,1.273 -4.747,1.201 -6.772,-0.185l-40.635,-27.812l-48.885,39.72Z" style="fill:#5589a7;"/></svg>