<?xml version="1.0" encoding="UTF-8" standalone="no"?><!DOCTYPE svg PUBLIC "-//W3C//DTD SVG 1.1//EN" "http://www.w3.org/Graphics/SVG/1.1/DTD/svg11.dtd"><svg width="100%" height="100%" viewBox="0 0 1184 1184" version="1.1" xmlns="http://www.w3.org/2000/svg" xmlns:xlink="http://www.w3.org/1999/xlink" xml:space="preserve" xmlns:serif="http://www.serif.com/" style="fill-rule:evenodd;clip-rule:evenodd;stroke-linejoin:round;stroke-miterlimit:2;"><path d="M334.589,1162.95c-55.224,0 -102.354,-19.518 -141.392,-58.556c-39.038,-39.038 -58.557,-86.169 -58.557,-141.393l0,-742.667c0,-55.224 19.519,-102.355 58.557,-141.393c39.038,-39.037 86.168,-58.556 141.392,-58.556l714.104,-0l-0,856.924c-23.804,0 -44.036,8.331 -60.699,24.994c-16.662,16.662 -24.994,36.895 -24.994,60.698c0,23.804 8.332,44.037 24.994,60.699c16.663,16.663 36.895,24.994 60.699,24.994l-0,114.256l-714.104,0Zm-85.692,-381.331c13.33,-6.665 27.136,-11.425 41.418,-14.282c14.282,-2.856 29.04,-4.284 44.274,-4.284l28.565,-0l-0,-628.412l-28.565,0c-23.803,0 -44.036,8.332 -60.698,24.994c-16.663,16.662 -24.994,36.895 -24.994,60.699l-0,561.285Zm228.513,-18.566l457.026,-0l0,-628.412l-457.026,0l0,628.412Zm-228.513,18.566l-0,-646.978l-0,646.978Zm85.692,267.075l532.722,-0c-5.713,-13.33 -10.236,-26.898 -13.568,-40.704c-3.333,-13.806 -4.999,-28.802 -4.999,-44.989c-0,-15.234 1.428,-29.992 4.285,-44.274c2.856,-14.282 7.617,-28.088 14.282,-41.418l-532.722,0c-24.755,0 -45.226,8.331 -61.412,24.994c-16.187,16.662 -24.28,36.895 -24.28,60.698c-0,24.756 8.093,45.227 24.28,61.413c16.186,16.187 36.657,24.28 61.412,24.28Z" style="fill:#5589a7;fill-rule:nonzero;"/></svg>