<?xml version="1.0" encoding="UTF-8" standalone="no"?><!DOCTYPE svg PUBLIC "-//W3C//DTD SVG 1.1//EN" "http://www.w3.org/Graphics/SVG/1.1/DTD/svg11.dtd"><svg width="100%" height="100%" viewBox="0 0 1184 1184" version="1.1" xmlns="http://www.w3.org/2000/svg" xmlns:xlink="http://www.w3.org/1999/xlink" xml:space="preserve" xmlns:serif="http://www.serif.com/" style="fill-rule:evenodd;clip-rule:evenodd;stroke-linejoin:round;stroke-miterlimit:2;"><path d="M344.494,1140.94c-53.096,0 -98.411,-18.766 -135.945,-56.3c-37.534,-37.534 -56.301,-82.849 -56.301,-135.945l0,-714.055c0,-53.096 18.767,-98.411 56.301,-135.945c37.534,-37.533 82.849,-56.3 135.945,-56.3l686.591,-0l-0,823.909c-22.886,0 -42.34,8.01 -58.36,24.031c-16.021,16.02 -24.031,35.474 -24.031,58.36c-0,22.886 8.01,42.34 24.031,58.36c16.02,16.021 35.474,24.031 58.36,24.031l-0,109.854l-686.591,0Zm-82.391,-366.639c12.816,-6.408 26.09,-10.986 39.822,-13.732c13.732,-2.746 27.922,-4.12 42.569,-4.12l27.464,0l-0,-604.2l-27.464,0c-22.886,0 -42.34,8.011 -58.36,24.031c-16.021,16.021 -24.031,35.474 -24.031,58.36l0,539.661Zm219.709,-17.852l439.418,0l0,-604.2l-439.418,0l0,604.2Zm-219.709,17.852l0,-622.052l0,622.052Zm82.391,256.785l512.197,-0c-5.493,-12.816 -9.841,-25.862 -13.045,-39.136c-3.205,-13.274 -4.807,-27.692 -4.807,-43.255c0,-14.647 1.374,-28.837 4.12,-42.569c2.746,-13.731 7.324,-27.006 13.732,-39.822l-512.197,0c-23.802,0 -43.484,8.01 -59.047,24.031c-15.563,16.02 -23.344,35.474 -23.344,58.36c0,23.802 7.781,43.484 23.344,59.047c15.563,15.563 35.245,23.344 59.047,23.344Z" style="fill:#e3e3e3;fill-rule:nonzero;"/></svg>